Offside-Regular.otf.ufo
<glyph name="exclam" format="1">
  <advance width="301"/>
  <unicode hex="0021"/>
  <outline>
    <contour>
      <point x="200" y="786" type="line" smooth="yes" name="hr00"/>
      <point x="200" y="807" smooth="yes"/>
      <point x="178" y="815" smooth="yes"/>
      <point x="150" y="815" type="curve" smooth="yes"/>
      <point x="124" y="815" smooth="yes"/>
      <point x="100" y="807" smooth="yes"/>
      <point x="100" y="787" type="curve" smooth="yes"/>
      <point x="100" y="787"/>
      <point x="109" y="526"/>
      <point x="117" y="269" type="curve"/>
      <point x="117" y="255" smooth="yes"/>
      <point x="131" y="247" smooth="yes"/>
      <point x="150" y="247" type="curve" smooth="yes"/>
      <point x="170" y="247" smooth="yes"/>
      <point x="183" y="255" smooth="yes"/>
      <point x="183" y="269" type="curve" smooth="yes"/>
    </contour>
    <contour>
      <point x="193" y="94" type="line"/>
      <point x="193" y="112" smooth="yes"/>
      <point x="175" y="118" smooth="yes"/>
      <point x="150" y="118" type="curve" smooth="yes"/>
      <point x="126" y="118" smooth="yes"/>
      <point x="108" y="112" smooth="yes"/>
      <point x="108" y="94" type="curve" smooth="yes"/>
      <point x="108" y="9" type="line" smooth="yes"/>
      <point x="108" y="-9" smooth="yes"/>
      <point x="126" y="-15" smooth="yes"/>
      <point x="151" y="-15" type="curve" smooth="yes"/>
      <point x="175" y="-15" smooth="yes"/>
      <point x="193" y="-9" smooth="yes"/>
      <point x="193" y="9" type="curve" smooth="yes"/>
    </contour>
  </outline>
</glyph>
<glyph name="quotedbl" format="1">
  <advance width="354"/>
  <unicode hex="0022"/>
  <outline>
    <contour>
      <point x="134" y="757" type="line" smooth="yes" name="hr00"/>
      <point x="134" y="773" smooth="yes"/>
      <point x="119" y="781" smooth="yes"/>
      <point x="92" y="781" type="curve" smooth="yes"/>
      <point x="65" y="781" smooth="yes"/>
      <point x="50" y="773" smooth="yes"/>
      <point x="50" y="758" type="curve" smooth="yes"/>
      <point x="50" y="758"/>
      <point x="50" y="757"/>
      <point x="58" y="543" type="curve"/>
      <point x="58" y="532" smooth="yes"/>
      <point x="71" y="525" smooth="yes"/>
      <point x="92" y="525" type="curve" smooth="yes"/>
      <point x="113" y="525" smooth="yes"/>
      <point x="126" y="532" smooth="yes"/>
      <point x="126" y="543" type="curve" smooth="yes"/>
    </contour>
    <contour>
      <point x="304" y="757" type="line"/>
      <point x="304" y="773" smooth="yes"/>
      <point x="289" y="781" smooth="yes"/>
      <point x="262" y="781" type="curve" smooth="yes"/>
      <point x="235" y="781" smooth="yes"/>
      <point x="220" y="773" smooth="yes"/>
      <point x="220" y="758" type="curve" smooth="yes"/>
      <point x="220" y="758" smooth="yes"/>
      <point x="220" y="757" smooth="yes"/>
      <point x="228" y="543" type="curve" smooth="yes"/>
      <point x="228" y="532" smooth="yes"/>
      <point x="241" y="525" smooth="yes"/>
      <point x="262" y="525" type="curve" smooth="yes"/>
      <point x="283" y="525" smooth="yes"/>
      <point x="296" y="532" smooth="yes"/>
      <point x="296" y="543" type="curve" smooth="yes"/>
    </contour>
  </outline>
</glyph>
<glyph name="numbersign" format="1">
  <advance width="600"/>
  <unicode hex="0023"/>
  <outline>
    <contour>
      <point x="34" y="516" type="line" smooth="yes" name="hr00"/>
      <point x="19" y="516" smooth="yes"/>
      <point x="14" y="501" smooth="yes"/>
      <point x="14" y="481" type="curve" smooth="yes"/>
      <point x="14" y="462" smooth="yes"/>
      <point x="19" y="446" smooth="yes"/>
      <point x="34" y="446" type="curve" smooth="yes"/>
      <point x="155" y="446" type="line"/>
      <point x="125" y="296" type="line"/>
      <point x="-11" y="296" type="line" smooth="yes"/>
      <point x="-26" y="296" smooth="yes"/>
      <point x="-31" y="281" smooth="yes"/>
      <point x="-31" y="261" type="curve" smooth="yes"/>
      <point x="-31" y="242" smooth="yes"/>
      <point x="-26" y="226" smooth="yes"/>
      <point x="-11" y="226" type="curve" smooth="yes"/>
      <point x="110" y="226" type="line"/>
      <point x="68" y="19" type="line"/>
      <point x="65" y="8" smooth="yes"/>
      <point x="64" y="4" smooth="yes"/>
      <point x="64" y="2" type="curve" smooth="yes"/>
      <point x="64" y="-10" smooth="yes"/>
      <point x="77" y="-15" smooth="yes"/>
      <point x="95" y="-15" type="curve" smooth="yes"/>
      <point x="116" y="-15"/>
      <point x="132" y="-9"/>
      <point x="137" y="8" type="curve"/>
      <point x="181" y="226" type="line"/>
      <point x="360" y="226" type="line"/>
      <point x="318" y="19" type="line"/>
      <point x="315" y="8" smooth="yes"/>
      <point x="314" y="4" smooth="yes"/>
      <point x="314" y="2" type="curve" smooth="yes"/>
      <point x="314" y="-10" smooth="yes"/>
      <point x="327" y="-15" smooth="yes"/>
      <point x="345" y="-15" type="curve" smooth="yes"/>
      <point x="366" y="-15"/>
      <point x="382" y="-9"/>
      <point x="387" y="8" type="curve"/>
      <point x="431" y="226" type="line"/>
      <point x="567" y="226" type="line" smooth="yes"/>
      <point x="582" y="226" smooth="yes"/>
      <point x="587" y="241" smooth="yes"/>
      <point x="587" y="261" type="curve" smooth="yes"/>
      <point x="587" y="280" smooth="yes"/>
      <point x="582" y="296" smooth="yes"/>
      <point x="567" y="296" type="curve" smooth="yes"/>
      <point x="446" y="296" type="line"/>
      <point x="476" y="446" type="line"/>
      <point x="611" y="446" type="line" smooth="yes"/>
      <point x="626" y="446" smooth="yes"/>
      <point x="631" y="461" smooth="yes"/>
      <point x="631" y="481" type="curve" smooth="yes"/>
      <point x="631" y="500" smooth="yes"/>
      <point x="626" y="516" smooth="yes"/>
      <point x="611" y="516" type="curve" smooth="yes"/>
      <point x="491" y="516" type="line"/>
      <point x="533" y="721" type="line"/>
      <point x="536" y="732" smooth="yes"/>
      <point x="536" y="736" smooth="yes"/>
      <point x="536" y="738" type="curve" smooth="yes"/>
      <point x="536" y="750" smooth="yes"/>
      <point x="524" y="755" smooth="yes"/>
      <point x="506" y="755" type="curve" smooth="yes"/>
      <point x="485" y="755" smooth="yes"/>
      <point x="468" y="749" smooth="yes"/>
      <point x="464" y="732" type="curve" smooth="yes"/>
      <point x="420" y="516" type="line"/>
      <point x="241" y="516" type="line"/>
      <point x="283" y="721" type="line"/>
      <point x="286" y="732" smooth="yes"/>
      <point x="286" y="736" smooth="yes"/>
      <point x="286" y="738" type="curve" smooth="yes"/>
      <point x="286" y="750" smooth="yes"/>
      <point x="274" y="755" smooth="yes"/>
      <point x="256" y="755" type="curve" smooth="yes"/>
      <point x="235" y="755"/>
      <point x="219" y="749"/>
      <point x="214" y="732" type="curve"/>
      <point x="170" y="516" type="line"/>
    </contour>
    <contour>
      <point x="226" y="446" type="line"/>
      <point x="405" y="446" type="line"/>
      <point x="375" y="296" type="line"/>
      <point x="196" y="296" type="line"/>
    </contour>
  </outline>
</glyph>
<glyph name="dollar" format="1">
  <advance width="600"/>
  <unicode hex="0024"/>
  <outline>
    <contour>
      <point x="339" y="822" type="line" smooth="yes" name="hr00"/>
      <point x="339" y="839" smooth="yes"/>
      <point x="324" y="845" smooth="yes"/>
      <point x="303" y="845" type="curve" smooth="yes"/>
      <point x="283" y="845" smooth="yes"/>
      <point x="267" y="839" smooth="yes"/>
      <point x="267" y="822" type="curve" smooth="yes"/>
      <point x="267" y="740" type="line"/>
      <point x="238" y="740" type="line" smooth="yes"/>
      <point x="121" y="740" smooth="yes"/>
      <point x="80" y="685" smooth="yes"/>
      <point x="80" y="574" type="curve" smooth="yes"/>
      <point x="80" y="530" type="line" smooth="yes"/>
      <point x="80" y="409" smooth="yes"/>
      <point x="124" y="380" smooth="yes"/>
      <point x="238" y="354" type="curve" smooth="yes"/>
      <point x="267" y="347" type="line"/>
      <point x="267" y="70" type="line"/>
      <point x="103" y="70" type="line" smooth="yes"/>
      <point x="88" y="70" smooth="yes"/>
      <point x="83" y="54" smooth="yes"/>
      <point x="83" y="35" type="curve" smooth="yes"/>
      <point x="83" y="15" smooth="yes"/>
      <point x="88" y="0" smooth="yes"/>
      <point x="103" y="0" type="curve" smooth="yes"/>
      <point x="267" y="0" type="line"/>
      <point x="267" y="-82" type="line" smooth="yes"/>
      <point x="267" y="-99" smooth="yes"/>
      <point x="283" y="-105" smooth="yes"/>
      <point x="303" y="-105" type="curve" smooth="yes"/>
      <point x="324" y="-105" smooth="yes"/>
      <point x="339" y="-99" smooth="yes"/>
      <point x="339" y="-82" type="curve" smooth="yes"/>
      <point x="339" y="0" type="line"/>
      <point x="365" y="0" type="line" smooth="yes"/>
      <point x="482" y="0" smooth="yes"/>
      <point x="523" y="55" smooth="yes"/>
      <point x="523" y="166" type="curve" smooth="yes"/>
      <point x="523" y="248" type="line" smooth="yes"/>
      <point x="523" y="361"/>
      <point x="449" y="379"/>
      <point x="339" y="403" type="curve"/>
      <point x="339" y="670" type="line"/>
      <point x="480" y="670" type="line" smooth="yes"/>
      <point x="495" y="670" smooth="yes"/>
      <point x="500" y="686" smooth="yes"/>
      <point x="500" y="705" type="curve" smooth="yes"/>
      <point x="500" y="725" smooth="yes"/>
      <point x="495" y="740" smooth="yes"/>
      <point x="480" y="740" type="curve" smooth="yes"/>
      <point x="339" y="740" type="line"/>
    </contour>
    <contour>
      <point x="443" y="166" type="line" smooth="yes"/>
      <point x="443" y="100" smooth="yes"/>
      <point x="423" y="70" smooth="yes"/>
      <point x="365" y="70" type="curve" smooth="yes"/>
      <point x="339" y="70" type="line"/>
      <point x="339" y="331" type="line"/>
      <point x="405" y="315" smooth="yes"/>
      <point x="443" y="301" smooth="yes"/>
      <point x="443" y="256" type="curve" smooth="yes"/>
    </contour>
    <contour>
      <point x="160" y="532" type="curve"/>
      <point x="160" y="574" type="line" smooth="yes"/>
      <point x="160" y="640" smooth="yes"/>
      <point x="180" y="670" smooth="yes"/>
      <point x="238" y="670" type="curve" smooth="yes"/>
      <point x="267" y="670" type="line"/>
      <point x="267" y="419" type="line"/>
      <point x="238" y="426" type="line" smooth="yes"/>
      <point x="181" y="439" smooth="yes"/>
      <point x="160" y="456" smooth="yes"/>
    </contour>
  </outline>
</glyph>
<glyph name="ampersand" format="1">
  <advance width="703"/>
  <unicode hex="0026"/>
  <outline>
    <contour>
      <point x="332" y="755" type="curve" smooth="yes"/>
      <point x="209" y="755" smooth="yes"/>
      <point x="110" y="714" smooth="yes"/>
      <point x="110" y="597" type="curve" smooth="yes"/>
      <point x="110" y="504" type="line" smooth="yes"/>
      <point x="110" y="431"/>
      <point x="139" y="397"/>
      <point x="188" y="382" type="curve"/>
      <point x="133" y="369" smooth="yes"/>
      <point x="100" y="335" smooth="yes"/>
      <point x="100" y="258" type="curve" smooth="yes"/>
      <point x="100" y="143" type="line" smooth="yes"/>
      <point x="100" y="26" smooth="yes"/>
      <point x="200" y="-15" smooth="yes"/>
      <point x="323" y="-15" type="curve" smooth="yes"/>
      <point x="387" y="-15"/>
      <point x="433" y="-4"/>
      <point x="463" y="23" type="curve"/>
      <point x="463" y="-93" type="line" smooth="yes"/>
      <point x="463" y="-152" smooth="yes"/>
      <point x="494" y="-210" smooth="yes"/>
      <point x="522" y="-210" type="curve" smooth="yes"/>
      <point x="539" y="-210" smooth="yes"/>
      <point x="573" y="-187" smooth="yes"/>
      <point x="573" y="-171" type="curve" smooth="yes"/>
      <point x="573" y="-159" smooth="yes"/>
      <point x="543" y="-137" smooth="yes"/>
      <point x="543" y="-83" type="curve" smooth="yes"/>
      <point x="543" y="346" type="line"/>
      <point x="683" y="346" type="line" smooth="yes"/>
      <point x="698" y="346" smooth="yes"/>
      <point x="703" y="362" smooth="yes"/>
      <point x="703" y="381" type="curve" smooth="yes"/>
      <point x="703" y="400" smooth="yes"/>
      <point x="698" y="416" smooth="yes"/>
      <point x="683" y="416" type="curve" smooth="yes"/>
      <point x="298" y="416" type="line" smooth="yes"/>
      <point x="229" y="416" smooth="yes"/>
      <point x="190" y="446" smooth="yes"/>
      <point x="190" y="504" type="curve" smooth="yes"/>
      <point x="190" y="607" type="line" smooth="yes"/>
      <point x="190" y="665" smooth="yes"/>
      <point x="251" y="685" smooth="yes"/>
      <point x="327" y="685" type="curve" smooth="yes"/>
      <point x="399" y="685" smooth="yes"/>
      <point x="451" y="665" smooth="yes"/>
      <point x="451" y="607" type="curve" smooth="yes" name="hr01"/>
      <point x="451" y="582" type="line" smooth="yes"/>
      <point x="451" y="565" smooth="yes"/>
      <point x="469" y="559" smooth="yes"/>
      <point x="491" y="559" type="curve" smooth="yes"/>
      <point x="514" y="559" smooth="yes"/>
      <point x="531" y="565" smooth="yes"/>
      <point x="531" y="582" type="curve" smooth="yes"/>
      <point x="531" y="597" type="line" smooth="yes"/>
      <point x="531" y="714" smooth="yes"/>
      <point x="440" y="755" smooth="yes"/>
    </contour>
    <contour>
      <point x="180" y="258" type="line" smooth="yes"/>
      <point x="180" y="316" smooth="yes"/>
      <point x="219" y="346" smooth="yes"/>
      <point x="288" y="346" type="curve" smooth="yes"/>
      <point x="463" y="346" type="line" name="hr02"/>
      <point x="463" y="133" type="line" smooth="yes"/>
      <point x="463" y="75" smooth="yes"/>
      <point x="405" y="55" smooth="yes"/>
      <point x="325" y="55" type="curve" smooth="yes"/>
      <point x="244" y="55" smooth="yes"/>
      <point x="180" y="75" smooth="yes"/>
      <point x="180" y="133" type="curve" smooth="yes"/>
    </contour>
  </outline>
</glyph>
<glyph name="quotesingle" format="1">
  <advance width="184"/>
  <unicode hex="0027"/>
  <outline>
    <contour>
      <point x="134" y="757" type="line" smooth="yes" name="hr00"/>
      <point x="134" y="773" smooth="yes"/>
      <point x="119" y="781" smooth="yes"/>
      <point x="92" y="781" type="curve" smooth="yes"/>
      <point x="65" y="781" smooth="yes"/>
      <point x="50" y="773" smooth="yes"/>
      <point x="50" y="758" type="curve" smooth="yes"/>
      <point x="50" y="758"/>
      <point x="50" y="757"/>
      <point x="58" y="543" type="curve"/>
      <point x="58" y="532" smooth="yes"/>
      <point x="71" y="525" smooth="yes"/>
      <point x="92" y="525" type="curve" smooth="yes"/>
      <point x="113" y="525" smooth="yes"/>
      <point x="126" y="532" smooth="yes"/>
      <point x="126" y="543" type="curve" smooth="yes"/>
    </contour>
  </outline>
</glyph>
<glyph name="parenleft" format="1">
  <advance width="360"/>
  <unicode hex="0028"/>
  <outline>
    <contour>
      <point x="200" y="370" type="curve" smooth="yes" name="hr00"/>
      <point x="200" y="519" smooth="yes"/>
      <point x="247" y="676" smooth="yes"/>
      <point x="328" y="800" type="curve" smooth="yes"/>
      <point x="329" y="802" smooth="yes"/>
      <point x="330" y="805" smooth="yes"/>
      <point x="330" y="807" type="curve" smooth="yes"/>
      <point x="330" y="816" smooth="yes"/>
      <point x="320" y="825" smooth="yes"/>
      <point x="301" y="834" type="curve" smooth="yes"/>
      <point x="288" y="838" smooth="yes"/>
      <point x="280" y="840" smooth="yes"/>
      <point x="274" y="840" type="curve" smooth="yes"/>
      <point x="265" y="840" smooth="yes"/>
      <point x="259" y="837" smooth="yes"/>
      <point x="255" y="830" type="curve" smooth="yes"/>
      <point x="178" y="725" smooth="yes"/>
      <point x="120" y="527" smooth="yes"/>
      <point x="120" y="370" type="curve" smooth="yes"/>
      <point x="120" y="213" smooth="yes"/>
      <point x="178" y="15" smooth="yes"/>
      <point x="255" y="-90" type="curve" smooth="yes"/>
      <point x="259" y="-97" smooth="yes"/>
      <point x="265" y="-100" smooth="yes"/>
      <point x="274" y="-100" type="curve" smooth="yes"/>
      <point x="280" y="-100" smooth="yes"/>
      <point x="288" y="-98" smooth="yes"/>
      <point x="301" y="-94" type="curve" smooth="yes"/>
      <point x="320" y="-86" smooth="yes"/>
      <point x="330" y="-77" smooth="yes"/>
      <point x="330" y="-67" type="curve" smooth="yes"/>
      <point x="330" y="-65" smooth="yes"/>
      <point x="329" y="-62" smooth="yes"/>
      <point x="328" y="-60" type="curve" smooth="yes"/>
      <point x="247" y="64" smooth="yes"/>
      <point x="200" y="222" smooth="yes"/>
    </contour>
  </outline>
</glyph>
<glyph name="parenright" format="1">
  <advance width="360"/>
  <unicode hex="0029"/>
  <outline>
    <contour>
      <point x="160" y="370" type="curve" smooth="yes" name="hr00"/>
      <point x="160" y="222" smooth="yes"/>
      <point x="113" y="64" smooth="yes"/>
      <point x="32" y="-60" type="curve" smooth="yes"/>
      <point x="31" y="-62" smooth="yes"/>
      <point x="30" y="-65" smooth="yes"/>
      <point x="30" y="-67" type="curve" smooth="yes"/>
      <point x="30" y="-77" smooth="yes"/>
      <point x="40" y="-86" smooth="yes"/>
      <point x="59" y="-94" type="curve" smooth="yes"/>
      <point x="71" y="-98" smooth="yes"/>
      <point x="80" y="-100" smooth="yes"/>
      <point x="86" y="-100" type="curve" smooth="yes"/>
      <point x="94" y="-100" smooth="yes"/>
      <point x="100" y="-97" smooth="yes"/>
      <point x="105" y="-90" type="curve" smooth="yes"/>
      <point x="182" y="15" smooth="yes"/>
      <point x="240" y="213" smooth="yes"/>
      <point x="240" y="370" type="curve" smooth="yes"/>
      <point x="240" y="527" smooth="yes"/>
      <point x="182" y="725" smooth="yes"/>
      <point x="105" y="830" type="curve" smooth="yes"/>
      <point x="100" y="837" smooth="yes"/>
      <point x="94" y="840" smooth="yes"/>
      <point x="86" y="840" type="curve" smooth="yes"/>
      <point x="80" y="840" smooth="yes"/>
      <point x="71" y="838" smooth="yes"/>
      <point x="59" y="834" type="curve" smooth="yes"/>
      <point x="40" y="825" smooth="yes"/>
      <point x="30" y="816" smooth="yes"/>
      <point x="30" y="807" type="curve" smooth="yes"/>
      <point x="30" y="805" smooth="yes"/>
      <point x="31" y="802" smooth="yes"/>
      <point x="32" y="800" type="curve" smooth="yes"/>
      <point x="113" y="676" smooth="yes"/>
      <point x="160" y="519" smooth="yes"/>
    </contour>
  </outline>
</glyph>
<glyph name="asterisk" format="1">
  <advance width="618"/>
  <unicode hex="002A"/>
  <outline>
    <contour>
      <point x="154" y="709" type="line" smooth="yes" name="hr00"/>
      <point x="149" y="713" smooth="yes"/>
      <point x="145" y="713" smooth="yes"/>
      <point x="142" y="713" type="curve" smooth="yes"/>
      <point x="124" y="713" smooth="yes"/>
      <point x="100" y="680" smooth="yes"/>
      <point x="100" y="657" type="curve" smooth="yes"/>
      <point x="100" y="649" smooth="yes"/>
      <point x="103" y="642" smooth="yes"/>
      <point x="111" y="638" type="curve" smooth="yes"/>
      <point x="220" y="587" type="line" smooth="yes"/>
      <point x="229" y="583" smooth="yes"/>
      <point x="232" y="582" smooth="yes"/>
      <point x="236" y="582" type="curve" smooth="yes"/>
      <point x="251" y="582" smooth="yes"/>
      <point x="265" y="606" smooth="yes"/>
      <point x="265" y="623" type="curve" smooth="yes"/>
      <point x="265" y="629" smooth="yes"/>
      <point x="265" y="632" smooth="yes"/>
      <point x="257" y="638" type="curve" smooth="yes"/>
    </contour>
    <contour>
      <point x="309" y="802" type="curve" smooth="yes"/>
      <point x="288" y="802" smooth="yes"/>
      <point x="267" y="795" smooth="yes"/>
      <point x="267" y="778" type="curve" smooth="yes"/>
      <point x="267" y="778" smooth="yes"/>
      <point x="267" y="777" smooth="yes"/>
      <point x="278" y="650" type="curve" smooth="yes"/>
      <point x="279" y="637" smooth="yes"/>
      <point x="292" y="630" smooth="yes"/>
      <point x="309" y="630" type="curve" smooth="yes"/>
      <point x="325" y="630" smooth="yes"/>
      <point x="339" y="637" smooth="yes"/>
      <point x="340" y="650" type="curve" smooth="yes"/>
      <point x="351" y="777" smooth="yes"/>
      <point x="351" y="778" smooth="yes"/>
      <point x="351" y="778" type="curve" smooth="yes"/>
      <point x="351" y="795" smooth="yes"/>
      <point x="330" y="802" smooth="yes"/>
    </contour>
    <contour>
      <point x="361" y="638" type="line"/>
      <point x="353" y="632" smooth="yes"/>
      <point x="353" y="629" smooth="yes"/>
      <point x="353" y="623" type="curve" smooth="yes"/>
      <point x="353" y="606" smooth="yes"/>
      <point x="367" y="582" smooth="yes"/>
      <point x="382" y="582" type="curve" smooth="yes"/>
      <point x="386" y="582" smooth="yes"/>
      <point x="389" y="583" smooth="yes"/>
      <point x="398" y="587" type="curve" smooth="yes"/>
      <point x="507" y="638" type="line" smooth="yes"/>
      <point x="515" y="642" smooth="yes"/>
      <point x="518" y="649" smooth="yes"/>
      <point x="518" y="657" type="curve" smooth="yes"/>
      <point x="518" y="680" smooth="yes"/>
      <point x="494" y="713" smooth="yes"/>
      <point x="476" y="713" type="curve" smooth="yes"/>
      <point x="473" y="713" smooth="yes"/>
      <point x="468" y="713" smooth="yes"/>
      <point x="464" y="709" type="curve" smooth="yes"/>
    </contour>
    <contour>
      <point x="257" y="506" type="line"/>
      <point x="265" y="511" smooth="yes"/>
      <point x="265" y="515" smooth="yes"/>
      <point x="265" y="521" type="curve" smooth="yes"/>
      <point x="265" y="538" smooth="yes"/>
      <point x="251" y="562" smooth="yes"/>
      <point x="236" y="562" type="curve" smooth="yes"/>
      <point x="232" y="562" smooth="yes"/>
      <point x="229" y="561" smooth="yes"/>
      <point x="220" y="557" type="curve" smooth="yes"/>
      <point x="111" y="506" type="line" smooth="yes"/>
      <point x="103" y="502" smooth="yes"/>
      <point x="100" y="495" smooth="yes"/>
      <point x="100" y="487" type="curve" smooth="yes"/>
      <point x="100" y="464" smooth="yes"/>
      <point x="124" y="431" smooth="yes"/>
      <point x="142" y="431" type="curve" smooth="yes"/>
      <point x="145" y="431" smooth="yes"/>
      <point x="149" y="431" smooth="yes"/>
      <point x="154" y="434" type="curve" smooth="yes"/>
    </contour>
    <contour>
      <point x="309" y="342" type="curve"/>
      <point x="330" y="342"/>
      <point x="351" y="349"/>
      <point x="351" y="366" type="curve"/>
      <point x="351" y="366" smooth="yes"/>
      <point x="351" y="367" smooth="yes"/>
      <point x="340" y="494" type="curve" smooth="yes"/>
      <point x="339" y="507" smooth="yes"/>
      <point x="325" y="514" smooth="yes"/>
      <point x="309" y="514" type="curve" smooth="yes"/>
      <point x="292" y="514" smooth="yes"/>
      <point x="279" y="507" smooth="yes"/>
      <point x="278" y="494" type="curve" smooth="yes"/>
      <point x="267" y="367" smooth="yes"/>
      <point x="267" y="366" smooth="yes"/>
      <point x="267" y="366" type="curve" smooth="yes"/>
      <point x="267" y="349" smooth="yes"/>
      <point x="288" y="342" smooth="yes"/>
    </contour>
    <contour>
      <point x="464" y="434" type="line"/>
      <point x="468" y="431" smooth="yes"/>
      <point x="473" y="431" smooth="yes"/>
      <point x="476" y="431" type="curve" smooth="yes"/>
      <point x="494" y="431" smooth="yes"/>
      <point x="518" y="464" smooth="yes"/>
      <point x="518" y="487" type="curve" smooth="yes"/>
      <point x="518" y="495" smooth="yes"/>
      <point x="515" y="502" smooth="yes"/>
      <point x="507" y="506" type="curve" smooth="yes"/>
      <point x="398" y="557" type="line" smooth="yes"/>
      <point x="389" y="561" smooth="yes"/>
      <point x="386" y="562" smooth="yes"/>
      <point x="382" y="562" type="curve" smooth="yes"/>
      <point x="367" y="562" smooth="yes"/>
      <point x="353" y="538" smooth="yes"/>
      <point x="353" y="521" type="curve" smooth="yes"/>
      <point x="353" y="515" smooth="yes"/>
      <point x="353" y="511" smooth="yes"/>
      <point x="361" y="506" type="curve" smooth="yes"/>
    </contour>
  </outline>
</glyph>
<glyph name="plus" format="1">
  <advance width="600"/>
  <unicode hex="002B"/>
  <outline>
    <contour>
      <point x="265" y="166" type="line" smooth="yes" name="hr00"/>
      <point x="265" y="153" smooth="yes"/>
      <point x="277" y="146" smooth="yes"/>
      <point x="300" y="146" type="curve" smooth="yes"/>
      <point x="323" y="146" smooth="yes"/>
      <point x="335" y="153" smooth="yes"/>
      <point x="335" y="166" type="curve" smooth="yes"/>
      <point x="335" y="336" type="line"/>
      <point x="505" y="336" type="line" smooth="yes"/>
      <point x="518" y="336" smooth="yes"/>
      <point x="525" y="348" smooth="yes"/>
      <point x="525" y="371" type="curve" smooth="yes"/>
      <point x="525" y="394" smooth="yes"/>
      <point x="518" y="406" smooth="yes"/>
      <point x="505" y="406" type="curve" smooth="yes"/>
      <point x="335" y="406" type="line"/>
      <point x="335" y="576" type="line" smooth="yes"/>
      <point x="335" y="589" smooth="yes"/>
      <point x="323" y="596" smooth="yes"/>
      <point x="300" y="596" type="curve" smooth="yes"/>
      <point x="277" y="596" smooth="yes"/>
      <point x="265" y="589" smooth="yes"/>
      <point x="265" y="576" type="curve" smooth="yes"/>
      <point x="265" y="406" type="line"/>
      <point x="95" y="406" type="line" smooth="yes"/>
      <point x="82" y="406" smooth="yes"/>
      <point x="75" y="394" smooth="yes"/>
      <point x="75" y="371" type="curve" smooth="yes"/>
      <point x="75" y="348" smooth="yes"/>
      <point x="82" y="336" smooth="yes"/>
      <point x="95" y="336" type="curve" smooth="yes"/>
      <point x="265" y="336" type="line"/>
    </contour>
  </outline>
</glyph>
<glyph name="comma" format="1">
  <advance width="201"/>
  <unicode hex="002C"/>
  <outline>
    <contour>
      <point x="143" y="94" type="line" smooth="yes"/>
      <point x="143" y="110" smooth="yes"/>
      <point x="129" y="118" smooth="yes"/>
      <point x="100" y="118" type="curve" smooth="yes"/>
      <point x="72" y="118" smooth="yes"/>
      <point x="58" y="110" smooth="yes"/>
      <point x="58" y="94" type="curve" smooth="yes"/>
      <point x="58" y="22" type="line" smooth="yes"/>
      <point x="58" y="-2" smooth="yes"/>
      <point x="82" y="-14" smooth="yes"/>
      <point x="82" y="-36" type="curve" smooth="yes" name="hr01"/>
      <point x="82" y="-42" smooth="yes"/>
      <point x="81" y="-46" smooth="yes"/>
      <point x="76" y="-61" type="curve" smooth="yes"/>
      <point x="61" y="-101" type="line" smooth="yes"/>
      <point x="59" y="-105" smooth="yes"/>
      <point x="59" y="-107" smooth="yes"/>
      <point x="59" y="-110" type="curve" smooth="yes"/>
      <point x="59" y="-119" smooth="yes"/>
      <point x="84" y="-133" smooth="yes"/>
      <point x="101" y="-133" type="curve" smooth="yes"/>
      <point x="108" y="-133" smooth="yes"/>
      <point x="114" y="-130" smooth="yes"/>
      <point x="116" y="-124" type="curve" smooth="yes"/>
      <point x="125" y="-100" type="line" smooth="yes"/>
      <point x="137" y="-65" smooth="yes"/>
      <point x="143" y="-39" smooth="yes"/>
      <point x="143" y="-17" type="curve" smooth="yes"/>
    </contour>
  </outline>
</glyph>
<glyph name="hyphen" format="1">
  <advance width="465"/>
  <unicode hex="002D"/>
  <outline>
    <contour>
      <point x="70" y="359" type="line" smooth="yes" name="hr00"/>
      <point x="57" y="359" smooth="yes"/>
      <point x="50" y="347" smooth="yes"/>
      <point x="50" y="324" type="curve" smooth="yes"/>
      <point x="50" y="301" smooth="yes"/>
      <point x="57" y="289" smooth="yes"/>
      <point x="70" y="289" type="curve" smooth="yes"/>
      <point x="395" y="289" type="line" smooth="yes"/>
      <point x="408" y="289" smooth="yes"/>
      <point x="415" y="301" smooth="yes"/>
      <point x="415" y="324" type="curve" smooth="yes"/>
      <point x="415" y="347" smooth="yes"/>
      <point x="408" y="359" smooth="yes"/>
      <point x="395" y="359" type="curve" smooth="yes"/>
    </contour>
  </outline>
</glyph>
<glyph name="period" format="1">
  <advance width="201"/>
  <unicode hex="002E"/>
  <outline>
    <contour>
      <point x="143" y="94" type="line" name="hr00"/>
      <point x="143" y="110" smooth="yes"/>
      <point x="129" y="118" smooth="yes"/>
      <point x="100" y="118" type="curve" smooth="yes"/>
      <point x="72" y="118" smooth="yes"/>
      <point x="58" y="110" smooth="yes"/>
      <point x="58" y="94" type="curve" smooth="yes"/>
      <point x="58" y="9" type="line" smooth="yes"/>
      <point x="58" y="-7" smooth="yes"/>
      <point x="72" y="-15" smooth="yes"/>
      <point x="101" y="-15" type="curve" smooth="yes"/>
      <point x="129" y="-15" smooth="yes"/>
      <point x="143" y="-7" smooth="yes"/>
      <point x="143" y="9" type="curve" smooth="yes"/>
    </contour>
  </outline>
</glyph>
<glyph name="slash" format="1">
  <advance width="377"/>
  <unicode hex="002F"/>
  <outline>
    <contour>
      <point x="343" y="811" type="line" smooth="yes" name="hr00"/>
      <point x="346" y="821" smooth="yes"/>
      <point x="347" y="826" smooth="yes"/>
      <point x="347" y="828" type="curve" smooth="yes"/>
      <point x="347" y="839" smooth="yes"/>
      <point x="336" y="845" smooth="yes"/>
      <point x="316" y="845" type="curve" smooth="yes"/>
      <point x="292" y="845" smooth="yes"/>
      <point x="278" y="837" smooth="yes"/>
      <point x="274" y="822" type="curve" smooth="yes"/>
      <point x="34" y="-71" type="line" smooth="yes"/>
      <point x="31" y="-84" smooth="yes"/>
      <point x="30" y="-86" smooth="yes"/>
      <point x="30" y="-88" type="curve" smooth="yes"/>
      <point x="30" y="-99" smooth="yes"/>
      <point x="41" y="-105" smooth="yes"/>
      <point x="61" y="-105" type="curve" smooth="yes"/>
      <point x="84" y="-105" smooth="yes"/>
      <point x="98" y="-97" smooth="yes"/>
      <point x="103" y="-82" type="curve" smooth="yes"/>
    </contour>
  </outline>
</glyph>
<glyph name="zero" format="1">
  <advance width="600"/>
  <unicode hex="0030"/>
  <outline>
    <contour>
      <point x="533" y="597" type="line" smooth="yes" name="hr00"/>
      <point x="533" y="701" smooth="yes"/>
      <point x="454" y="755" smooth="yes"/>
      <point x="305" y="755" type="curve" smooth="yes"/>
      <point x="153" y="755" smooth="yes"/>
      <point x="70" y="699" smooth="yes"/>
      <point x="70" y="597" type="curve" smooth="yes"/>
      <point x="70" y="143" type="line" smooth="yes"/>
      <point x="70" y="39" smooth="yes"/>
      <point x="149" y="-15" smooth="yes"/>
      <point x="298" y="-15" type="curve" smooth="yes"/>
      <point x="450" y="-15" smooth="yes"/>
      <point x="533" y="41" smooth="yes"/>
      <point x="533" y="143" type="curve" smooth="yes"/>
    </contour>
    <contour>
      <point x="453" y="133" type="line"/>
      <point x="453" y="82" smooth="yes"/>
      <point x="399" y="55" smooth="yes"/>
      <point x="298" y="55" type="curve" smooth="yes"/>
      <point x="281" y="55"/>
      <point x="266" y="55"/>
      <point x="252" y="57" type="curve"/>
      <point x="413" y="667" type="line"/>
      <point x="439" y="654" smooth="yes"/>
      <point x="453" y="634" smooth="yes"/>
      <point x="453" y="607" type="curve" smooth="yes"/>
    </contour>
    <contour>
      <point x="150" y="607" type="line" smooth="yes"/>
      <point x="150" y="658" smooth="yes"/>
      <point x="204" y="685" smooth="yes"/>
      <point x="305" y="685" type="curve" smooth="yes"/>
      <point x="321" y="685"/>
      <point x="335" y="684"/>
      <point x="348" y="683" type="curve"/>
      <point x="188" y="74" type="line"/>
      <point x="162" y="87" smooth="yes"/>
      <point x="150" y="106" smooth="yes"/>
      <point x="150" y="133" type="curve" smooth="yes"/>
    </contour>
  </outline>
</glyph>
<glyph name="one" format="1">
  <advance width="600"/>
  <unicode hex="0031"/>
  <outline>
    <contour>
      <point x="150" y="0" type="curve" name="hr00"/>
      <point x="490" y="0" type="line" smooth="yes"/>
      <point x="503" y="0" smooth="yes"/>
      <point x="510" y="12" smooth="yes"/>
      <point x="510" y="35" type="curve" smooth="yes"/>
      <point x="510" y="58" smooth="yes"/>
      <point x="503" y="70" smooth="yes"/>
      <point x="490" y="70" type="curve" smooth="yes"/>
      <point x="360" y="70" type="line"/>
      <point x="360" y="668" type="line" smooth="yes"/>
      <point x="360" y="726" smooth="yes"/>
      <point x="348" y="740" smooth="yes"/>
      <point x="300" y="740" type="curve" smooth="yes"/>
      <point x="150" y="740" type="line" smooth="yes"/>
      <point x="137" y="740" smooth="yes"/>
      <point x="130" y="728" smooth="yes"/>
      <point x="130" y="705" type="curve" smooth="yes"/>
      <point x="130" y="682" smooth="yes"/>
      <point x="137" y="670" smooth="yes"/>
      <point x="150" y="670" type="curve" smooth="yes"/>
      <point x="280" y="670" type="line"/>
      <point x="280" y="70" type="line"/>
      <point x="150" y="70" type="line" smooth="yes"/>
      <point x="137" y="70" smooth="yes"/>
      <point x="130" y="58" smooth="yes"/>
      <point x="130" y="35" type="curve" smooth="yes"/>
      <point x="130" y="12" smooth="yes"/>
      <point x="137" y="0" smooth="yes"/>
    </contour>
  </outline>
</glyph>
<glyph name="two" format="1">
  <advance width="600"/>
  <unicode hex="0032"/>
  <outline>
    <contour>
      <point x="80" y="0" type="curve" name="hr00"/>
      <point x="503" y="0" type="line" smooth="yes"/>
      <point x="516" y="0" smooth="yes"/>
      <point x="523" y="12" smooth="yes"/>
      <point x="523" y="35" type="curve" smooth="yes"/>
      <point x="523" y="58" smooth="yes"/>
      <point x="516" y="70" smooth="yes"/>
      <point x="503" y="70" type="curve" smooth="yes"/>
      <point x="169" y="70" type="line"/>
      <point x="459" y="421" type="line" smooth="yes"/>
      <point x="497" y="467" smooth="yes"/>
      <point x="523" y="522" smooth="yes"/>
      <point x="523" y="557" type="curve" smooth="yes"/>
      <point x="523" y="574" type="line" smooth="yes"/>
      <point x="523" y="691" smooth="yes"/>
      <point x="476" y="740" smooth="yes"/>
      <point x="365" y="740" type="curve" smooth="yes"/>
      <point x="123" y="740" type="line" smooth="yes"/>
      <point x="110" y="740" smooth="yes"/>
      <point x="103" y="728" smooth="yes"/>
      <point x="103" y="705" type="curve" smooth="yes"/>
      <point x="103" y="682" smooth="yes"/>
      <point x="110" y="670" smooth="yes"/>
      <point x="123" y="670" type="curve" smooth="yes"/>
      <point x="365" y="670" type="line" smooth="yes"/>
      <point x="421" y="670" smooth="yes"/>
      <point x="443" y="643" smooth="yes"/>
      <point x="443" y="574" type="curve" smooth="yes"/>
      <point x="443" y="562" type="line" smooth="yes"/>
      <point x="443" y="529" smooth="yes"/>
      <point x="429" y="503" smooth="yes"/>
      <point x="387" y="452" type="curve" smooth="yes"/>
      <point x="69" y="67" type="line" smooth="yes"/>
      <point x="63" y="60" smooth="yes"/>
      <point x="60" y="48" smooth="yes"/>
      <point x="60" y="35" type="curve" smooth="yes"/>
      <point x="60" y="12" smooth="yes"/>
      <point x="67" y="0" smooth="yes"/>
    </contour>
  </outline>
</glyph>
<glyph name="three" format="1">
  <advance width="600"/>
  <unicode hex="0033"/>
  <outline>
    <contour>
      <point x="296" y="-15" type="curve"/>
      <point x="442" y="-15" smooth="yes"/>
      <point x="527" y="43" smooth="yes"/>
      <point x="527" y="143" type="curve" smooth="yes"/>
      <point x="527" y="256" type="line" smooth="yes"/>
      <point x="527" y="344"/>
      <point x="499" y="385"/>
      <point x="427" y="399" type="curve"/>
      <point x="449" y="421" type="line" smooth="yes"/>
      <point x="486" y="458" smooth="yes"/>
      <point x="513" y="516" smooth="yes"/>
      <point x="513" y="557" type="curve" smooth="yes" name="hr01"/>
      <point x="513" y="574" type="line" smooth="yes"/>
      <point x="513" y="691" smooth="yes"/>
      <point x="466" y="740" smooth="yes"/>
      <point x="355" y="740" type="curve" smooth="yes"/>
      <point x="123" y="740" type="line" smooth="yes"/>
      <point x="110" y="740" smooth="yes"/>
      <point x="103" y="728" smooth="yes"/>
      <point x="103" y="705" type="curve" smooth="yes"/>
      <point x="103" y="682" smooth="yes"/>
      <point x="110" y="670" smooth="yes"/>
      <point x="123" y="670" type="curve" smooth="yes"/>
      <point x="355" y="670" type="line" smooth="yes"/>
      <point x="411" y="670" smooth="yes"/>
      <point x="433" y="643" smooth="yes"/>
      <point x="433" y="574" type="curve" smooth="yes"/>
      <point x="433" y="562" type="line" smooth="yes"/>
      <point x="433" y="524" smooth="yes"/>
      <point x="416" y="491" smooth="yes"/>
      <point x="377" y="452" type="curve" smooth="yes"/>
      <point x="330" y="404" type="line"/>
      <point x="189" y="404" type="line" smooth="yes"/>
      <point x="176" y="404" smooth="yes"/>
      <point x="169" y="392" smooth="yes"/>
      <point x="169" y="369" type="curve" smooth="yes"/>
      <point x="169" y="346" smooth="yes"/>
      <point x="176" y="334" smooth="yes"/>
      <point x="189" y="334" type="curve" smooth="yes"/>
      <point x="361" y="334" type="line" smooth="yes"/>
      <point x="431" y="334" smooth="yes"/>
      <point x="447" y="319" smooth="yes"/>
      <point x="447" y="256" type="curve" smooth="yes" name="hr02"/>
      <point x="447" y="133" type="line" smooth="yes"/>
      <point x="447" y="84" smooth="yes"/>
      <point x="390" y="55" smooth="yes"/>
      <point x="296" y="55" type="curve" smooth="yes"/>
      <point x="204" y="55" smooth="yes"/>
      <point x="150" y="84" smooth="yes"/>
      <point x="150" y="133" type="curve" smooth="yes"/>
      <point x="150" y="187" type="line" smooth="yes"/>
      <point x="150" y="202" smooth="yes"/>
      <point x="136" y="210" smooth="yes"/>
      <point x="110" y="210" type="curve" smooth="yes"/>
      <point x="84" y="210" smooth="yes"/>
      <point x="70" y="202" smooth="yes"/>
      <point x="70" y="187" type="curve" smooth="yes"/>
      <point x="70" y="143" type="line" smooth="yes"/>
      <point x="70" y="43" smooth="yes"/>
      <point x="152" y="-15" smooth="yes"/>
    </contour>
  </outline>
</glyph>
<glyph name="four" format="1">
  <advance width="600"/>
  <unicode hex="0034"/>
  <outline>
    <contour>
      <point x="109" y="489" type="line" smooth="yes" name="hr00"/>
      <point x="64" y="388" smooth="yes"/>
      <point x="45" y="331" smooth="yes"/>
      <point x="45" y="299" type="curve" smooth="yes"/>
      <point x="45" y="286" type="line" smooth="yes"/>
      <point x="45" y="197" smooth="yes"/>
      <point x="94" y="160" smooth="yes"/>
      <point x="211" y="160" type="curve" smooth="yes"/>
      <point x="390" y="160" type="line"/>
      <point x="390" y="18" type="line" smooth="yes"/>
      <point x="390" y="3" smooth="yes"/>
      <point x="404" y="-5" smooth="yes"/>
      <point x="430" y="-5" type="curve" smooth="yes"/>
      <point x="456" y="-5" smooth="yes"/>
      <point x="470" y="3" smooth="yes"/>
      <point x="470" y="18" type="curve" smooth="yes"/>
      <point x="470" y="160" type="line"/>
      <point x="523" y="160" type="line" smooth="yes"/>
      <point x="536" y="160" smooth="yes"/>
      <point x="543" y="172" smooth="yes"/>
      <point x="543" y="195" type="curve" smooth="yes"/>
      <point x="543" y="218" smooth="yes"/>
      <point x="536" y="230" smooth="yes"/>
      <point x="523" y="230" type="curve" smooth="yes"/>
      <point x="470" y="230" type="line"/>
      <point x="470" y="508" type="line" smooth="yes"/>
      <point x="470" y="523" smooth="yes"/>
      <point x="456" y="531" smooth="yes"/>
      <point x="430" y="531" type="curve" smooth="yes"/>
      <point x="404" y="531" smooth="yes"/>
      <point x="390" y="523" smooth="yes"/>
      <point x="390" y="508" type="curve" smooth="yes"/>
      <point x="390" y="230" type="line"/>
      <point x="211" y="230" type="line" smooth="yes"/>
      <point x="145" y="230" smooth="yes"/>
      <point x="125" y="243" smooth="yes"/>
      <point x="125" y="288" type="curve" smooth="yes"/>
      <point x="125" y="293" type="line" smooth="yes"/>
      <point x="125" y="326" smooth="yes"/>
      <point x="137" y="360" smooth="yes"/>
      <point x="181" y="458" type="curve" smooth="yes"/>
      <point x="295" y="710" type="line" smooth="yes"/>
      <point x="296" y="712" smooth="yes"/>
      <point x="297" y="715" smooth="yes"/>
      <point x="297" y="717" type="curve" smooth="yes"/>
      <point x="297" y="726"/>
      <point x="287" y="735"/>
      <point x="268" y="744" type="curve"/>
      <point x="255" y="748" smooth="yes"/>
      <point x="247" y="750" smooth="yes"/>
      <point x="241" y="750" type="curve" smooth="yes"/>
      <point x="231" y="750" smooth="yes"/>
      <point x="225" y="747" smooth="yes"/>
      <point x="222" y="740" type="curve" smooth="yes"/>
    </contour>
  </outline>
</glyph>
<glyph name="five" format="1">
  <advance width="600"/>
  <unicode hex="0035"/>
  <outline>
    <contour>
      <point x="341" y="334" type="line" smooth="yes"/>
      <point x="431" y="314" smooth="yes"/>
      <point x="457" y="297" smooth="yes"/>
      <point x="457" y="256" type="curve" smooth="yes"/>
      <point x="457" y="133" type="line" smooth="yes"/>
      <point x="457" y="84" smooth="yes"/>
      <point x="400" y="55" smooth="yes"/>
      <point x="306" y="55" type="curve" smooth="yes"/>
      <point x="214" y="55" smooth="yes"/>
      <point x="160" y="84" smooth="yes"/>
      <point x="160" y="133" type="curve" smooth="yes"/>
      <point x="160" y="187" type="line" smooth="yes"/>
      <point x="160" y="202" smooth="yes"/>
      <point x="146" y="210" smooth="yes"/>
      <point x="120" y="210" type="curve" smooth="yes"/>
      <point x="94" y="210" smooth="yes"/>
      <point x="80" y="202" smooth="yes"/>
      <point x="80" y="187" type="curve" smooth="yes"/>
      <point x="80" y="143" type="line" smooth="yes"/>
      <point x="80" y="43" smooth="yes"/>
      <point x="162" y="-15" smooth="yes"/>
      <point x="306" y="-15" type="curve" smooth="yes"/>
      <point x="452" y="-15" smooth="yes"/>
      <point x="537" y="43" smooth="yes"/>
      <point x="537" y="143" type="curve" smooth="yes"/>
      <point x="537" y="248" type="line" smooth="yes"/>
      <point x="537" y="341" smooth="yes"/>
      <point x="497" y="373" smooth="yes"/>
      <point x="341" y="407" type="curve" smooth="yes"/>
      <point x="180" y="442" type="line" name="hr01"/>
      <point x="180" y="564" type="line" smooth="yes"/>
      <point x="180" y="641" smooth="yes"/>
      <point x="201" y="670" smooth="yes"/>
      <point x="258" y="670" type="curve" smooth="yes"/>
      <point x="490" y="670" type="line" smooth="yes"/>
      <point x="503" y="670" smooth="yes"/>
      <point x="510" y="682" smooth="yes"/>
      <point x="510" y="705" type="curve" smooth="yes"/>
      <point x="510" y="728" smooth="yes"/>
      <point x="503" y="740" smooth="yes"/>
      <point x="490" y="740" type="curve" smooth="yes"/>
      <point x="258" y="740" type="line" smooth="yes"/>
      <point x="145" y="740" smooth="yes"/>
      <point x="100" y="690" smooth="yes"/>
      <point x="100" y="564" type="curve" smooth="yes"/>
      <point x="100" y="447" type="line" smooth="yes"/>
      <point x="100" y="399" smooth="yes"/>
      <point x="110" y="384" smooth="yes"/>
      <point x="148" y="376" type="curve" smooth="yes"/>
    </contour>
  </outline>
</glyph>
<glyph name="six" format="1">
  <advance width="600"/>
  <unicode hex="0036"/>
  <outline>
    <contour>
      <point x="306" y="-15" type="curve" smooth="yes" name="hr00"/>
      <point x="452" y="-15" smooth="yes"/>
      <point x="537" y="43" smooth="yes"/>
      <point x="537" y="143" type="curve" smooth="yes"/>
      <point x="537" y="258" type="line" smooth="yes"/>
      <point x="537" y="355" smooth="yes"/>
      <point x="490" y="394" smooth="yes"/>
      <point x="341" y="416" type="curve" smooth="yes"/>
      <point x="160" y="443" type="line"/>
      <point x="160" y="564" type="line" smooth="yes"/>
      <point x="160" y="641" smooth="yes"/>
      <point x="181" y="670" smooth="yes"/>
      <point x="238" y="670" type="curve" smooth="yes"/>
      <point x="490" y="670" type="line" smooth="yes"/>
      <point x="503" y="670" smooth="yes"/>
      <point x="510" y="682" smooth="yes"/>
      <point x="510" y="705" type="curve" smooth="yes"/>
      <point x="510" y="728" smooth="yes"/>
      <point x="503" y="740" smooth="yes"/>
      <point x="490" y="740" type="curve" smooth="yes"/>
      <point x="238" y="740" type="line" smooth="yes"/>
      <point x="125" y="740" smooth="yes"/>
      <point x="80" y="690" smooth="yes"/>
      <point x="80" y="564" type="curve" smooth="yes"/>
      <point x="80" y="143" type="line" smooth="yes"/>
      <point x="80" y="43" smooth="yes"/>
      <point x="162" y="-15" smooth="yes"/>
    </contour>
    <contour>
      <point x="306" y="55" type="curve"/>
      <point x="214" y="55" smooth="yes"/>
      <point x="160" y="84" smooth="yes"/>
      <point x="160" y="133" type="curve" smooth="yes"/>
      <point x="160" y="371" type="line"/>
      <point x="341" y="344" type="line" smooth="yes"/>
      <point x="425" y="331" smooth="yes"/>
      <point x="457" y="309" smooth="yes"/>
      <point x="457" y="266" type="curve" smooth="yes"/>
      <point x="457" y="133" type="line" smooth="yes"/>
      <point x="457" y="84" smooth="yes"/>
      <point x="400" y="55" smooth="yes"/>
    </contour>
  </outline>
</glyph>
<glyph name="seven" format="1">
  <advance width="600"/>
  <unicode hex="0037"/>
  <outline>
    <contour>
      <point x="439" y="411" type="line" smooth="yes" name="hr00"/>
      <point x="484" y="512" smooth="yes"/>
      <point x="503" y="569" smooth="yes"/>
      <point x="503" y="601" type="curve" smooth="yes"/>
      <point x="503" y="614" type="line" smooth="yes"/>
      <point x="503" y="703" smooth="yes"/>
      <point x="454" y="740" smooth="yes"/>
      <point x="337" y="740" type="curve" smooth="yes"/>
      <point x="100" y="740" type="line" smooth="yes"/>
      <point x="87" y="740" smooth="yes"/>
      <point x="80" y="728" smooth="yes"/>
      <point x="80" y="705" type="curve" smooth="yes"/>
      <point x="80" y="682" smooth="yes"/>
      <point x="87" y="670" smooth="yes"/>
      <point x="100" y="670" type="curve" smooth="yes"/>
      <point x="337" y="670" type="line" smooth="yes"/>
      <point x="403" y="670" smooth="yes"/>
      <point x="423" y="657" smooth="yes"/>
      <point x="423" y="612" type="curve" smooth="yes"/>
      <point x="423" y="607" type="line" smooth="yes"/>
      <point x="423" y="573" smooth="yes"/>
      <point x="411" y="538" smooth="yes"/>
      <point x="367" y="442" type="curve" smooth="yes"/>
      <point x="182" y="30" type="line" smooth="yes"/>
      <point x="181" y="28" smooth="yes"/>
      <point x="180" y="25" smooth="yes"/>
      <point x="180" y="23" type="curve" smooth="yes"/>
      <point x="180" y="13" smooth="yes"/>
      <point x="190" y="4" smooth="yes"/>
      <point x="209" y="-4" type="curve" smooth="yes"/>
      <point x="221" y="-8" smooth="yes"/>
      <point x="230" y="-10" smooth="yes"/>
      <point x="236" y="-10" type="curve" smooth="yes"/>
      <point x="245" y="-10" smooth="yes"/>
      <point x="252" y="-7" smooth="yes"/>
      <point x="255" y="0" type="curve" smooth="yes"/>
    </contour>
  </outline>
</glyph>
<glyph name="eight" format="1">
  <advance width="600"/>
  <unicode hex="0038"/>
  <outline>
    <contour>
      <point x="467" y="441" type="line" smooth="yes" name="hr00"/>
      <point x="506" y="481" smooth="yes"/>
      <point x="531" y="529" smooth="yes"/>
      <point x="531" y="567" type="curve" smooth="yes"/>
      <point x="531" y="597" type="line" smooth="yes"/>
      <point x="531" y="700" smooth="yes"/>
      <point x="451" y="755" smooth="yes"/>
      <point x="303" y="755" type="curve" smooth="yes"/>
      <point x="151" y="755" smooth="yes"/>
      <point x="68" y="699" smooth="yes"/>
      <point x="68" y="597" type="curve" smooth="yes"/>
      <point x="68" y="567" type="line" smooth="yes"/>
      <point x="68" y="513" smooth="yes"/>
      <point x="102" y="455" smooth="yes"/>
      <point x="153" y="422" type="curve" smooth="yes"/>
      <point x="211" y="384" type="line"/>
      <point x="127" y="299" type="line" smooth="yes"/>
      <point x="87" y="258" smooth="yes"/>
      <point x="63" y="210" smooth="yes"/>
      <point x="63" y="173" type="curve" smooth="yes"/>
      <point x="63" y="143" type="line" smooth="yes"/>
      <point x="63" y="41" smooth="yes"/>
      <point x="146" y="-15" smooth="yes"/>
      <point x="296" y="-15" type="curve" smooth="yes"/>
      <point x="449" y="-15" smooth="yes"/>
      <point x="536" y="42" smooth="yes"/>
      <point x="536" y="143" type="curve" smooth="yes"/>
      <point x="536" y="173" type="line" smooth="yes"/>
      <point x="536" y="226" smooth="yes"/>
      <point x="502" y="285" smooth="yes"/>
      <point x="451" y="318" type="curve" smooth="yes"/>
      <point x="387" y="359" type="line"/>
    </contour>
    <contour>
      <point x="400" y="263" type="line"/>
      <point x="439" y="237" smooth="yes"/>
      <point x="456" y="209" smooth="yes"/>
      <point x="456" y="168" type="curve" smooth="yes"/>
      <point x="456" y="133" type="line" smooth="yes"/>
      <point x="456" y="84" smooth="yes"/>
      <point x="396" y="55" smooth="yes"/>
      <point x="297" y="55" type="curve" smooth="yes"/>
      <point x="200" y="55" smooth="yes"/>
      <point x="143" y="84" smooth="yes"/>
      <point x="143" y="133" type="curve" smooth="yes"/>
      <point x="143" y="168" type="line" smooth="yes"/>
      <point x="143" y="201" smooth="yes"/>
      <point x="155" y="222" smooth="yes"/>
      <point x="199" y="268" type="curve" smooth="yes"/>
      <point x="273" y="344" type="line"/>
    </contour>
    <contour>
      <point x="204" y="477" type="line" smooth="yes"/>
      <point x="165" y="502" smooth="yes"/>
      <point x="148" y="531" smooth="yes"/>
      <point x="148" y="572" type="curve" smooth="yes"/>
      <point x="148" y="607" type="line" smooth="yes"/>
      <point x="148" y="656" smooth="yes"/>
      <point x="205" y="685" smooth="yes"/>
      <point x="302" y="685" type="curve" smooth="yes"/>
      <point x="397" y="685" smooth="yes"/>
      <point x="451" y="657" smooth="yes"/>
      <point x="451" y="607" type="curve" smooth="yes"/>
      <point x="451" y="572" type="line" smooth="yes"/>
      <point x="451" y="538" smooth="yes"/>
      <point x="439" y="517" smooth="yes"/>
      <point x="395" y="472" type="curve" smooth="yes"/>
      <point x="324" y="399" type="line"/>
    </contour>
  </outline>
</glyph>
<glyph name="nine" format="1">
  <advance width="600"/>
  <unicode hex="0039"/>
  <outline>
    <contour>
      <point x="520" y="597" type="line" smooth="yes" name="hr00"/>
      <point x="520" y="697" smooth="yes"/>
      <point x="438" y="755" smooth="yes"/>
      <point x="294" y="755" type="curve" smooth="yes"/>
      <point x="148" y="755" smooth="yes"/>
      <point x="63" y="697" smooth="yes"/>
      <point x="63" y="597" type="curve" smooth="yes"/>
      <point x="63" y="482" type="line" smooth="yes"/>
      <point x="63" y="384" smooth="yes"/>
      <point x="111" y="346" smooth="yes"/>
      <point x="259" y="324" type="curve" smooth="yes"/>
      <point x="440" y="297" type="line"/>
      <point x="440" y="133" type="line" smooth="yes"/>
      <point x="440" y="84" smooth="yes"/>
      <point x="383" y="55" smooth="yes"/>
      <point x="289" y="55" type="curve" smooth="yes"/>
      <point x="197" y="55" smooth="yes"/>
      <point x="143" y="84" smooth="yes"/>
      <point x="143" y="133" type="curve" smooth="yes"/>
      <point x="143" y="187" type="line" smooth="yes"/>
      <point x="143" y="202" smooth="yes"/>
      <point x="129" y="210" smooth="yes"/>
      <point x="103" y="210" type="curve" smooth="yes"/>
      <point x="77" y="210" smooth="yes"/>
      <point x="63" y="202" smooth="yes"/>
      <point x="63" y="187" type="curve" smooth="yes"/>
      <point x="63" y="143" type="line" smooth="yes"/>
      <point x="63" y="43" smooth="yes"/>
      <point x="145" y="-15" smooth="yes"/>
      <point x="289" y="-15" type="curve" smooth="yes"/>
      <point x="435" y="-15" smooth="yes"/>
      <point x="520" y="43" smooth="yes"/>
      <point x="520" y="143" type="curve" smooth="yes"/>
    </contour>
    <contour>
      <point x="143" y="607" type="line"/>
      <point x="143" y="656" smooth="yes"/>
      <point x="200" y="685" smooth="yes"/>
      <point x="294" y="685" type="curve" smooth="yes"/>
      <point x="386" y="685" smooth="yes"/>
      <point x="440" y="656" smooth="yes"/>
      <point x="440" y="607" type="curve" smooth="yes"/>
      <point x="440" y="369" type="line"/>
      <point x="259" y="396" type="line" smooth="yes"/>
      <point x="176" y="408" smooth="yes"/>
      <point x="143" y="430" smooth="yes"/>
      <point x="143" y="474" type="curve" smooth="yes"/>
    </contour>
  </outline>
</glyph>
<glyph name="less" format="1">
  <advance width="600"/>
  <unicode hex="003C"/>
  <outline>
    <contour>
      <point x="80" y="370" type="curve" smooth="yes" name="hr00"/>
      <point x="80" y="273" smooth="yes"/>
      <point x="128" y="257" smooth="yes"/>
      <point x="217" y="233" type="curve" smooth="yes"/>
      <point x="500" y="156" type="line"/>
      <point x="519" y="156" smooth="yes"/>
      <point x="520" y="182" smooth="yes"/>
      <point x="520" y="194" type="curve" smooth="yes"/>
      <point x="520" y="217"/>
      <point x="514" y="233"/>
      <point x="497" y="236" type="curve"/>
      <point x="228" y="311" type="line" smooth="yes"/>
      <point x="159" y="330" smooth="yes"/>
      <point x="150" y="337" smooth="yes"/>
      <point x="150" y="370" type="curve" smooth="yes"/>
      <point x="150" y="403" smooth="yes"/>
      <point x="159" y="410" smooth="yes"/>
      <point x="228" y="429" type="curve" smooth="yes"/>
      <point x="497" y="504" type="line"/>
      <point x="514" y="507" smooth="yes"/>
      <point x="520" y="523" smooth="yes"/>
      <point x="520" y="546" type="curve" smooth="yes"/>
      <point x="520" y="562"/>
      <point x="517" y="584"/>
      <point x="500" y="584" type="curve"/>
      <point x="217" y="507" type="line" smooth="yes"/>
      <point x="128" y="483" smooth="yes"/>
      <point x="80" y="467" smooth="yes"/>
    </contour>
  </outline>
</glyph>
<glyph name="equal" format="1">
  <advance width="600"/>
  <unicode hex="003D"/>
  <outline>
    <contour>
      <point x="95" y="296" type="line" smooth="yes" name="hr00"/>
      <point x="82" y="296" smooth="yes"/>
      <point x="75" y="284" smooth="yes"/>
      <point x="75" y="261" type="curve" smooth="yes"/>
      <point x="75" y="238" smooth="yes"/>
      <point x="82" y="226" smooth="yes"/>
      <point x="95" y="226" type="curve" smooth="yes"/>
      <point x="505" y="226" type="line" smooth="yes"/>
      <point x="518" y="226" smooth="yes"/>
      <point x="525" y="238" smooth="yes"/>
      <point x="525" y="261" type="curve" smooth="yes"/>
      <point x="525" y="284" smooth="yes"/>
      <point x="518" y="296" smooth="yes"/>
      <point x="505" y="296" type="curve" smooth="yes"/>
    </contour>
    <contour>
      <point x="95" y="516" type="line" smooth="yes"/>
      <point x="82" y="516" smooth="yes"/>
      <point x="75" y="504" smooth="yes"/>
      <point x="75" y="481" type="curve" smooth="yes"/>
      <point x="75" y="458" smooth="yes"/>
      <point x="82" y="446" smooth="yes"/>
      <point x="95" y="446" type="curve" smooth="yes"/>
      <point x="505" y="446" type="line" smooth="yes"/>
      <point x="518" y="446" smooth="yes"/>
      <point x="525" y="458" smooth="yes"/>
      <point x="525" y="481" type="curve" smooth="yes"/>
      <point x="525" y="504" smooth="yes"/>
      <point x="518" y="516" smooth="yes"/>
      <point x="505" y="516" type="curve" smooth="yes"/>
    </contour>
  </outline>
</glyph>
<glyph name="greater" format="1">
  <advance width="600"/>
  <unicode hex="003E"/>
  <outline>
    <contour>
      <point x="520" y="370" type="curve" name="hr00"/>
      <point x="520" y="467" smooth="yes"/>
      <point x="472" y="483" smooth="yes"/>
      <point x="383" y="507" type="curve" smooth="yes"/>
      <point x="100" y="584" type="line"/>
      <point x="83" y="584" smooth="yes"/>
      <point x="80" y="562" smooth="yes"/>
      <point x="80" y="546" type="curve" smooth="yes"/>
      <point x="80" y="523"/>
      <point x="86" y="507"/>
      <point x="103" y="504" type="curve"/>
      <point x="372" y="429" type="line" smooth="yes"/>
      <point x="441" y="410" smooth="yes"/>
      <point x="450" y="403" smooth="yes"/>
      <point x="450" y="370" type="curve" smooth="yes"/>
      <point x="450" y="337" smooth="yes"/>
      <point x="441" y="330" smooth="yes"/>
      <point x="372" y="311" type="curve" smooth="yes"/>
      <point x="103" y="236" type="line"/>
      <point x="86" y="233" smooth="yes"/>
      <point x="80" y="217" smooth="yes"/>
      <point x="80" y="194" type="curve" smooth="yes"/>
      <point x="80" y="182"/>
      <point x="81" y="156"/>
      <point x="100" y="156" type="curve"/>
      <point x="383" y="233" type="line" smooth="yes"/>
      <point x="472" y="257" smooth="yes"/>
      <point x="520" y="273" smooth="yes"/>
    </contour>
  </outline>
</glyph>
<glyph name="question" format="1">
  <advance width="467"/>
  <unicode hex="003F"/>
  <outline>
    <contour>
      <point x="259" y="94" type="line" smooth="yes" name="hr00"/>
      <point x="259" y="112" smooth="yes"/>
      <point x="241" y="118" smooth="yes"/>
      <point x="216" y="118" type="curve" smooth="yes"/>
      <point x="192" y="118" smooth="yes"/>
      <point x="174" y="112" smooth="yes"/>
      <point x="174" y="94" type="curve" smooth="yes"/>
      <point x="174" y="9" type="line" smooth="yes"/>
      <point x="174" y="-9" smooth="yes"/>
      <point x="192" y="-15" smooth="yes"/>
      <point x="217" y="-15" type="curve" smooth="yes"/>
      <point x="241" y="-15" smooth="yes"/>
      <point x="259" y="-9" smooth="yes"/>
      <point x="259" y="9" type="curve" smooth="yes"/>
    </contour>
    <contour>
      <point x="252" y="395" type="line"/>
      <point x="342" y="419" smooth="yes"/>
      <point x="417" y="438" smooth="yes"/>
      <point x="417" y="552" type="curve" smooth="yes"/>
      <point x="417" y="657" type="line" smooth="yes"/>
      <point x="417" y="774" smooth="yes"/>
      <point x="312" y="815" smooth="yes"/>
      <point x="217" y="815" type="curve" smooth="yes"/>
      <point x="121" y="815" smooth="yes"/>
      <point x="20" y="774" smooth="yes"/>
      <point x="20" y="657" type="curve" smooth="yes"/>
      <point x="20" y="613" type="line" smooth="yes"/>
      <point x="20" y="596" smooth="yes"/>
      <point x="38" y="590" smooth="yes"/>
      <point x="60" y="590" type="curve" smooth="yes"/>
      <point x="83" y="590" smooth="yes"/>
      <point x="100" y="596" smooth="yes"/>
      <point x="100" y="613" type="curve" smooth="yes"/>
      <point x="100" y="667" type="line" smooth="yes"/>
      <point x="100" y="725" smooth="yes"/>
      <point x="156" y="745" smooth="yes"/>
      <point x="217" y="745" type="curve" smooth="yes"/>
      <point x="277" y="745" smooth="yes"/>
      <point x="337" y="725" smooth="yes"/>
      <point x="337" y="667" type="curve" smooth="yes"/>
      <point x="337" y="544" type="line" smooth="yes"/>
      <point x="337" y="496" smooth="yes"/>
      <point x="303" y="482" smooth="yes"/>
      <point x="244" y="466" type="curve" smooth="yes"/>
      <point x="177" y="448" type="line"/>
      <point x="183" y="269" type="line" smooth="yes"/>
      <point x="183" y="255" smooth="yes"/>
      <point x="197" y="247" smooth="yes"/>
      <point x="216" y="247" type="curve" smooth="yes"/>
      <point x="236" y="247" smooth="yes"/>
      <point x="249" y="255" smooth="yes"/>
      <point x="249" y="269" type="curve" smooth="yes"/>
    </contour>
  </outline>
</glyph>
<glyph name="at" format="1">
  <advance width="1081"/>
  <unicode hex="0040"/>
  <outline>
    <contour>
      <point x="911" y="69" type="line" smooth="yes" name="hr00"/>
      <point x="964" y="69" smooth="yes"/>
      <point x="971" y="87" smooth="yes"/>
      <point x="971" y="138" type="curve" smooth="yes"/>
      <point x="971" y="529" type="line" smooth="yes"/>
      <point x="971" y="729" smooth="yes"/>
      <point x="792" y="800" smooth="yes"/>
      <point x="549" y="800" type="curve" smooth="yes"/>
      <point x="308" y="800" smooth="yes"/>
      <point x="110" y="729" smooth="yes"/>
      <point x="110" y="529" type="curve" smooth="yes"/>
      <point x="110" y="130" type="line" smooth="yes"/>
      <point x="110" y="-70" smooth="yes"/>
      <point x="289" y="-141" smooth="yes"/>
      <point x="532" y="-141" type="curve" smooth="yes"/>
      <point x="949" y="-141" type="line" smooth="yes"/>
      <point x="965" y="-141" smooth="yes"/>
      <point x="971" y="-124" smooth="yes"/>
      <point x="971" y="-104" type="curve" smooth="yes"/>
      <point x="971" y="-83" smooth="yes"/>
      <point x="965" y="-66" smooth="yes"/>
      <point x="949" y="-66" type="curve" smooth="yes"/>
      <point x="532" y="-66" type="line" smooth="yes"/>
      <point x="335" y="-66" smooth="yes"/>
      <point x="190" y="-15" smooth="yes"/>
      <point x="190" y="130" type="curve" smooth="yes"/>
      <point x="190" y="529" type="line" smooth="yes"/>
      <point x="190" y="674" smooth="yes"/>
      <point x="352" y="725" smooth="yes"/>
      <point x="549" y="725" type="curve" smooth="yes"/>
      <point x="746" y="725" smooth="yes"/>
      <point x="891" y="674" smooth="yes"/>
      <point x="891" y="529" type="curve" smooth="yes"/>
      <point x="891" y="137" type="line"/>
      <point x="784" y="137" type="line" smooth="yes"/>
      <point x="726" y="137" smooth="yes"/>
      <point x="715" y="153" smooth="yes"/>
      <point x="712" y="276" type="curve" smooth="yes"/>
      <point x="707" y="464" type="line" smooth="yes"/>
      <point x="704" y="565" smooth="yes"/>
      <point x="625" y="600" smooth="yes"/>
      <point x="521" y="600" type="curve" smooth="yes"/>
      <point x="407" y="600" type="line" smooth="yes"/>
      <point x="390" y="600" smooth="yes"/>
      <point x="386" y="586" smooth="yes"/>
      <point x="386" y="566" type="curve" smooth="yes"/>
      <point x="386" y="547" smooth="yes"/>
      <point x="390" y="532" smooth="yes"/>
      <point x="407" y="532" type="curve" smooth="yes"/>
      <point x="521" y="532" type="line" smooth="yes"/>
      <point x="582" y="532" smooth="yes"/>
      <point x="629" y="516" smooth="yes"/>
      <point x="630" y="472" type="curve" smooth="yes"/>
      <point x="632" y="363" type="line"/>
      <point x="490" y="349" type="line" smooth="yes"/>
      <point x="389" y="339" smooth="yes"/>
      <point x="352" y="315" smooth="yes"/>
      <point x="352" y="213" type="curve" smooth="yes"/>
      <point x="352" y="206" type="line" smooth="yes"/>
      <point x="352" y="104" smooth="yes"/>
      <point x="394" y="69" smooth="yes"/>
      <point x="496" y="69" type="curve" smooth="yes"/>
      <point x="594" y="69" type="line" smooth="yes"/>
      <point x="610" y="69" smooth="yes"/>
      <point x="616" y="84" smooth="yes"/>
      <point x="616" y="103" type="curve" smooth="yes"/>
      <point x="616" y="122" smooth="yes"/>
      <point x="610" y="137" smooth="yes"/>
      <point x="594" y="137" type="curve" smooth="yes"/>
      <point x="496" y="137" type="line" smooth="yes"/>
      <point x="436" y="137" smooth="yes"/>
      <point x="429" y="160" smooth="yes"/>
      <point x="429" y="206" type="curve" smooth="yes"/>
      <point x="429" y="213" type="line" smooth="yes"/>
      <point x="429" y="258" smooth="yes"/>
      <point x="437" y="275" smooth="yes"/>
      <point x="497" y="281" type="curve" smooth="yes"/>
      <point x="634" y="295" type="line"/>
      <point x="635" y="267" type="line" smooth="yes"/>
      <point x="639" y="105" smooth="yes"/>
      <point x="673" y="69" smooth="yes"/>
      <point x="784" y="69" type="curve" smooth="yes"/>
    </contour>
  </outline>
</glyph>
<glyph name="A" format="1">
  <advance width="683"/>
  <unicode hex="0041"/>
  <outline>
    <contour>
      <point x="150" y="-5" type="curve" smooth="yes" name="hr00"/>
      <point x="176" y="-5" smooth="yes"/>
      <point x="190" y="3" smooth="yes"/>
      <point x="190" y="18" type="curve" smooth="yes"/>
      <point x="190" y="289" type="line"/>
      <point x="493" y="289" type="line"/>
      <point x="493" y="18" type="line" smooth="yes"/>
      <point x="493" y="3" smooth="yes"/>
      <point x="507" y="-5" smooth="yes"/>
      <point x="533" y="-5" type="curve" smooth="yes"/>
      <point x="559" y="-5" smooth="yes"/>
      <point x="573" y="3" smooth="yes"/>
      <point x="573" y="18" type="curve" smooth="yes"/>
      <point x="573" y="597" type="line" smooth="yes"/>
      <point x="573" y="701" smooth="yes"/>
      <point x="495" y="755" smooth="yes"/>
      <point x="347" y="755" type="curve" smooth="yes"/>
      <point x="194" y="755" smooth="yes"/>
      <point x="110" y="699" smooth="yes"/>
      <point x="110" y="597" type="curve" smooth="yes"/>
      <point x="110" y="18" type="line" smooth="yes"/>
      <point x="110" y="3" smooth="yes"/>
      <point x="124" y="-5" smooth="yes"/>
    </contour>
    <contour>
      <point x="190" y="607" type="line" smooth="yes"/>
      <point x="190" y="658" smooth="yes"/>
      <point x="243" y="685" smooth="yes"/>
      <point x="342" y="685" type="curve" smooth="yes"/>
      <point x="440" y="685" smooth="yes"/>
      <point x="493" y="658" smooth="yes"/>
      <point x="493" y="607" type="curve" smooth="yes"/>
      <point x="493" y="359" type="line"/>
      <point x="190" y="359" type="line"/>
    </contour>
  </outline>
</glyph>
<glyph name="B" format="1">
  <advance width="628"/>
  <unicode hex="0042"/>
  <outline>
    <contour>
      <point x="325" y="-5" type="line" smooth="yes" name="hr00"/>
      <point x="469" y="-5" smooth="yes"/>
      <point x="548" y="51" smooth="yes"/>
      <point x="548" y="153" type="curve" smooth="yes"/>
      <point x="548" y="258" type="line" smooth="yes"/>
      <point x="548" y="328"/>
      <point x="522" y="367"/>
      <point x="456" y="382" type="curve"/>
      <point x="514" y="399" smooth="yes"/>
      <point x="538" y="437" smooth="yes"/>
      <point x="538" y="504" type="curve" smooth="yes"/>
      <point x="538" y="597" type="line" smooth="yes"/>
      <point x="538" y="700" smooth="yes"/>
      <point x="462" y="755" smooth="yes"/>
      <point x="320" y="755" type="curve" smooth="yes"/>
      <point x="177" y="755" smooth="yes"/>
      <point x="100" y="700" smooth="yes"/>
      <point x="100" y="597" type="curve" smooth="yes"/>
      <point x="100" y="171" type="line" smooth="yes"/>
      <point x="100" y="45" smooth="yes"/>
      <point x="145" y="-5" smooth="yes"/>
      <point x="258" y="-5" type="curve" smooth="yes"/>
    </contour>
    <contour>
      <point x="360" y="346" type="line"/>
      <point x="430" y="346" smooth="yes"/>
      <point x="468" y="315" smooth="yes"/>
      <point x="468" y="258" type="curve" smooth="yes"/>
      <point x="468" y="143" type="line" smooth="yes"/>
      <point x="468" y="92" smooth="yes"/>
      <point x="417" y="65" smooth="yes"/>
      <point x="323" y="65" type="curve" smooth="yes"/>
      <point x="258" y="65" type="line" smooth="yes"/>
      <point x="201" y="65" smooth="yes"/>
      <point x="180" y="94" smooth="yes"/>
      <point x="180" y="171" type="curve" smooth="yes"/>
      <point x="180" y="607" type="line" smooth="yes"/>
      <point x="180" y="658" smooth="yes"/>
      <point x="227" y="685" smooth="yes"/>
      <point x="319" y="685" type="curve" smooth="yes"/>
      <point x="409" y="685" smooth="yes"/>
      <point x="458" y="657" smooth="yes"/>
      <point x="458" y="607" type="curve" smooth="yes"/>
      <point x="458" y="504" type="line" smooth="yes"/>
      <point x="458" y="447" smooth="yes"/>
      <point x="420" y="416" smooth="yes"/>
      <point x="350" y="416" type="curve" smooth="yes"/>
      <point x="235" y="416" type="line" smooth="yes"/>
      <point x="222" y="416" smooth="yes"/>
      <point x="215" y="404" smooth="yes"/>
      <point x="215" y="381" type="curve" smooth="yes"/>
      <point x="215" y="358" smooth="yes"/>
      <point x="222" y="346" smooth="yes"/>
      <point x="235" y="346" type="curve" smooth="yes"/>
    </contour>
  </outline>
</glyph>
<glyph name="C" format="1">
  <advance width="633"/>
  <unicode hex="0043"/>
  <outline>
    <contour>
      <point x="180" y="607" type="line" smooth="yes" name="hr00"/>
      <point x="180" y="658" smooth="yes"/>
      <point x="233" y="685" smooth="yes"/>
      <point x="330" y="685" type="curve" smooth="yes"/>
      <point x="425" y="685" smooth="yes"/>
      <point x="473" y="659" smooth="yes"/>
      <point x="473" y="607" type="curve" smooth="yes"/>
      <point x="473" y="535" type="line" smooth="yes"/>
      <point x="473" y="520" smooth="yes"/>
      <point x="487" y="512" smooth="yes"/>
      <point x="513" y="512" type="curve" smooth="yes"/>
      <point x="539" y="512" smooth="yes"/>
      <point x="553" y="520" smooth="yes"/>
      <point x="553" y="535" type="curve" smooth="yes"/>
      <point x="553" y="597" type="line" smooth="yes"/>
      <point x="553" y="700" smooth="yes"/>
      <point x="476" y="755" smooth="yes"/>
      <point x="330" y="755" type="curve" smooth="yes"/>
      <point x="181" y="755" smooth="yes"/>
      <point x="100" y="699" smooth="yes"/>
      <point x="100" y="597" type="curve" smooth="yes"/>
      <point x="100" y="143" type="line" smooth="yes"/>
      <point x="100" y="41" smooth="yes"/>
      <point x="181" y="-15" smooth="yes"/>
      <point x="330" y="-15" type="curve" smooth="yes"/>
      <point x="476" y="-15" smooth="yes"/>
      <point x="553" y="40" smooth="yes"/>
      <point x="553" y="143" type="curve" smooth="yes"/>
      <point x="553" y="205" type="line" smooth="yes"/>
      <point x="553" y="220" smooth="yes"/>
      <point x="539" y="228" smooth="yes"/>
      <point x="513" y="228" type="curve" smooth="yes"/>
      <point x="487" y="228" smooth="yes"/>
      <point x="473" y="220" smooth="yes"/>
      <point x="473" y="205" type="curve" smooth="yes"/>
      <point x="473" y="133" type="line" smooth="yes"/>
      <point x="473" y="81" smooth="yes"/>
      <point x="425" y="55" smooth="yes"/>
      <point x="330" y="55" type="curve" smooth="yes"/>
      <point x="233" y="55" smooth="yes"/>
      <point x="180" y="82" smooth="yes"/>
      <point x="180" y="133" type="curve" smooth="yes"/>
    </contour>
  </outline>
</glyph>
<glyph name="D" format="1">
  <advance width="683"/>
  <unicode hex="0044"/>
  <outline>
    <contour>
      <point x="190" y="70" type="line" name="hr00"/>
      <point x="190" y="670" type="line"/>
      <point x="378" y="670" type="line" smooth="yes"/>
      <point x="464" y="670" smooth="yes"/>
      <point x="493" y="650" smooth="yes"/>
      <point x="493" y="592" type="curve" smooth="yes"/>
      <point x="493" y="148" type="line" smooth="yes"/>
      <point x="493" y="90" smooth="yes"/>
      <point x="464" y="70" smooth="yes"/>
      <point x="378" y="70" type="curve" smooth="yes"/>
    </contour>
    <contour>
      <point x="110" y="75" type="line" smooth="yes"/>
      <point x="110" y="14" smooth="yes"/>
      <point x="121" y="0" smooth="yes"/>
      <point x="170" y="0" type="curve" smooth="yes"/>
      <point x="378" y="0" type="line" smooth="yes"/>
      <point x="515" y="0" smooth="yes"/>
      <point x="573" y="47" smooth="yes"/>
      <point x="573" y="158" type="curve" smooth="yes"/>
      <point x="573" y="582" type="line" smooth="yes"/>
      <point x="573" y="693" smooth="yes"/>
      <point x="515" y="740" smooth="yes"/>
      <point x="378" y="740" type="curve" smooth="yes"/>
      <point x="170" y="740" type="line" smooth="yes"/>
      <point x="121" y="740" smooth="yes"/>
      <point x="110" y="726" smooth="yes"/>
      <point x="110" y="665" type="curve" smooth="yes"/>
    </contour>
  </outline>
</glyph>
<glyph name="E" format="1">
  <advance width="603"/>
  <unicode hex="0045"/>
  <outline>
    <contour>
      <point x="332" y="755" type="curve" smooth="yes"/>
      <point x="188" y="755" smooth="yes"/>
      <point x="110" y="699" smooth="yes"/>
      <point x="110" y="597" type="curve" smooth="yes"/>
      <point x="110" y="504" type="line" smooth="yes"/>
      <point x="110" y="437"/>
      <point x="133" y="399"/>
      <point x="192" y="382" type="curve"/>
      <point x="126" y="367" smooth="yes"/>
      <point x="100" y="328" smooth="yes"/>
      <point x="100" y="258" type="curve" smooth="yes"/>
      <point x="100" y="143" type="line" smooth="yes"/>
      <point x="100" y="41" smooth="yes"/>
      <point x="179" y="-15" smooth="yes"/>
      <point x="323" y="-15" type="curve" smooth="yes"/>
      <point x="466" y="-15" smooth="yes"/>
      <point x="543" y="40" smooth="yes"/>
      <point x="543" y="143" type="curve" smooth="yes"/>
      <point x="543" y="205" type="line" smooth="yes"/>
      <point x="543" y="220" smooth="yes"/>
      <point x="529" y="228" smooth="yes"/>
      <point x="503" y="228" type="curve" smooth="yes"/>
      <point x="477" y="228" smooth="yes"/>
      <point x="463" y="220" smooth="yes"/>
      <point x="463" y="205" type="curve" smooth="yes"/>
      <point x="463" y="133" type="line" smooth="yes"/>
      <point x="463" y="81" smooth="yes"/>
      <point x="416" y="55" smooth="yes"/>
      <point x="325" y="55" type="curve" smooth="yes"/>
      <point x="231" y="55" smooth="yes"/>
      <point x="180" y="82" smooth="yes"/>
      <point x="180" y="133" type="curve" smooth="yes"/>
      <point x="180" y="258" type="line" smooth="yes"/>
      <point x="180" y="315" smooth="yes"/>
      <point x="218" y="346" smooth="yes"/>
      <point x="288" y="346" type="curve" smooth="yes"/>
      <point x="373" y="346" type="line" smooth="yes"/>
      <point x="386" y="346" smooth="yes"/>
      <point x="393" y="358" smooth="yes"/>
      <point x="393" y="381" type="curve" smooth="yes"/>
      <point x="393" y="404" smooth="yes"/>
      <point x="386" y="416" smooth="yes"/>
      <point x="373" y="416" type="curve" smooth="yes"/>
      <point x="298" y="416" type="line" smooth="yes"/>
      <point x="228" y="416" smooth="yes"/>
      <point x="190" y="447" smooth="yes"/>
      <point x="190" y="504" type="curve" smooth="yes"/>
      <point x="190" y="607" type="line" smooth="yes"/>
      <point x="190" y="658" smooth="yes"/>
      <point x="238" y="685" smooth="yes"/>
      <point x="327" y="685" type="curve" smooth="yes"/>
      <point x="409" y="685" smooth="yes"/>
      <point x="451" y="659" smooth="yes"/>
      <point x="451" y="607" type="curve" smooth="yes" name="hr01"/>
      <point x="451" y="582" type="line" smooth="yes"/>
      <point x="451" y="567" smooth="yes"/>
      <point x="465" y="559" smooth="yes"/>
      <point x="491" y="559" type="curve" smooth="yes"/>
      <point x="517" y="559" smooth="yes"/>
      <point x="531" y="567" smooth="yes"/>
      <point x="531" y="582" type="curve" smooth="yes"/>
      <point x="531" y="597" type="line" smooth="yes"/>
      <point x="531" y="698" smooth="yes"/>
      <point x="460" y="755" smooth="yes"/>
    </contour>
  </outline>
</glyph>
<glyph name="F" format="1">
  <advance width="490"/>
  <unicode hex="0046"/>
  <outline>
    <contour>
      <point x="420" y="346" type="line" smooth="yes" name="hr00"/>
      <point x="433" y="346" smooth="yes"/>
      <point x="440" y="358" smooth="yes"/>
      <point x="440" y="381" type="curve" smooth="yes"/>
      <point x="440" y="404" smooth="yes"/>
      <point x="433" y="416" smooth="yes"/>
      <point x="420" y="416" type="curve" smooth="yes"/>
      <point x="190" y="416" type="line"/>
      <point x="190" y="564" type="line" smooth="yes"/>
      <point x="190" y="641" smooth="yes"/>
      <point x="211" y="670" smooth="yes"/>
      <point x="268" y="670" type="curve" smooth="yes"/>
      <point x="460" y="670" type="line" smooth="yes"/>
      <point x="473" y="670" smooth="yes"/>
      <point x="480" y="682" smooth="yes"/>
      <point x="480" y="705" type="curve" smooth="yes"/>
      <point x="480" y="728" smooth="yes"/>
      <point x="473" y="740" smooth="yes"/>
      <point x="460" y="740" type="curve" smooth="yes"/>
      <point x="268" y="740" type="line" smooth="yes"/>
      <point x="155" y="740" smooth="yes"/>
      <point x="110" y="690" smooth="yes"/>
      <point x="110" y="564" type="curve" smooth="yes"/>
      <point x="110" y="18" type="line" smooth="yes"/>
      <point x="110" y="3" smooth="yes"/>
      <point x="124" y="-5" smooth="yes"/>
      <point x="150" y="-5" type="curve" smooth="yes"/>
      <point x="176" y="-5" smooth="yes"/>
      <point x="190" y="3" smooth="yes"/>
      <point x="190" y="18" type="curve" smooth="yes"/>
      <point x="190" y="346" type="line"/>
    </contour>
  </outline>
</glyph>
<glyph name="G" format="1">
  <advance width="643"/>
  <unicode hex="0047"/>
  <outline>
    <contour>
      <point x="483" y="133" type="line" smooth="yes"/>
      <point x="483" y="82" smooth="yes"/>
      <point x="429" y="55" smooth="yes"/>
      <point x="328" y="55" type="curve" smooth="yes"/>
      <point x="230" y="55" smooth="yes"/>
      <point x="180" y="81" smooth="yes"/>
      <point x="180" y="133" type="curve" smooth="yes"/>
      <point x="180" y="607" type="line" smooth="yes"/>
      <point x="180" y="657" smooth="yes"/>
      <point x="232" y="685" smooth="yes"/>
      <point x="327" y="685" type="curve" smooth="yes"/>
      <point x="420" y="685" smooth="yes"/>
      <point x="468" y="659" smooth="yes"/>
      <point x="468" y="607" type="curve" smooth="yes" name="hr01"/>
      <point x="468" y="542" type="line" smooth="yes"/>
      <point x="468" y="527" smooth="yes"/>
      <point x="482" y="519" smooth="yes"/>
      <point x="508" y="519" type="curve" smooth="yes"/>
      <point x="534" y="519" smooth="yes"/>
      <point x="548" y="527" smooth="yes"/>
      <point x="548" y="542" type="curve" smooth="yes"/>
      <point x="548" y="597" type="line" smooth="yes"/>
      <point x="548" y="701" smooth="yes"/>
      <point x="472" y="755" smooth="yes"/>
      <point x="327" y="755" type="curve" smooth="yes"/>
      <point x="180" y="755" smooth="yes"/>
      <point x="100" y="699" smooth="yes"/>
      <point x="100" y="597" type="curve" smooth="yes"/>
      <point x="100" y="143" type="line" smooth="yes"/>
      <point x="100" y="39" smooth="yes"/>
      <point x="179" y="-15" smooth="yes"/>
      <point x="328" y="-15" type="curve" smooth="yes"/>
      <point x="480" y="-15" smooth="yes"/>
      <point x="563" y="41" smooth="yes"/>
      <point x="563" y="143" type="curve" smooth="yes" name="hr02"/>
      <point x="563" y="231" type="line" smooth="yes"/>
      <point x="563" y="345" smooth="yes"/>
      <point x="516" y="389" smooth="yes"/>
      <point x="397" y="389" type="curve" smooth="yes"/>
      <point x="320" y="389" type="line" smooth="yes"/>
      <point x="307" y="389" smooth="yes"/>
      <point x="300" y="377" smooth="yes"/>
      <point x="300" y="354" type="curve" smooth="yes"/>
      <point x="300" y="331" smooth="yes"/>
      <point x="307" y="319" smooth="yes"/>
      <point x="320" y="319" type="curve" smooth="yes"/>
      <point x="397" y="319" type="line" smooth="yes"/>
      <point x="463" y="319" smooth="yes"/>
      <point x="483" y="299" smooth="yes"/>
      <point x="483" y="231" type="curve" smooth="yes"/>
    </contour>
  </outline>
</glyph>
<glyph name="H" format="1">
  <advance width="683"/>
  <unicode hex="0048"/>
  <outline>
    <contour>
      <point x="573" y="722" type="line" smooth="yes" name="hr00"/>
      <point x="573" y="737" smooth="yes"/>
      <point x="559" y="745" smooth="yes"/>
      <point x="533" y="745" type="curve" smooth="yes"/>
      <point x="507" y="745" smooth="yes"/>
      <point x="493" y="737" smooth="yes"/>
      <point x="493" y="722" type="curve" smooth="yes"/>
      <point x="493" y="399" type="line"/>
      <point x="190" y="399" type="line"/>
      <point x="190" y="722" type="line" smooth="yes"/>
      <point x="190" y="737" smooth="yes"/>
      <point x="176" y="745" smooth="yes"/>
      <point x="150" y="745" type="curve" smooth="yes"/>
      <point x="124" y="745" smooth="yes"/>
      <point x="110" y="737" smooth="yes"/>
      <point x="110" y="722" type="curve" smooth="yes"/>
      <point x="110" y="18" type="line" smooth="yes"/>
      <point x="110" y="3" smooth="yes"/>
      <point x="124" y="-5" smooth="yes"/>
      <point x="150" y="-5" type="curve" smooth="yes"/>
      <point x="176" y="-5" smooth="yes"/>
      <point x="190" y="3" smooth="yes"/>
      <point x="190" y="18" type="curve" smooth="yes"/>
      <point x="190" y="329" type="line"/>
      <point x="493" y="329" type="line"/>
      <point x="493" y="18" type="line" smooth="yes"/>
      <point x="493" y="3" smooth="yes"/>
      <point x="507" y="-5" smooth="yes"/>
      <point x="533" y="-5" type="curve" smooth="yes"/>
      <point x="559" y="-5" smooth="yes"/>
      <point x="573" y="3" smooth="yes"/>
      <point x="573" y="18" type="curve" smooth="yes"/>
    </contour>
  </outline>
</glyph>
<glyph name="I" format="1">
  <advance width="320"/>
  <unicode hex="0049"/>
  <outline>
    <contour>
      <point x="260" y="677" type="line" smooth="yes" name="hr00"/>
      <point x="273" y="677" smooth="yes"/>
      <point x="280" y="688" smooth="yes"/>
      <point x="280" y="709" type="curve" smooth="yes"/>
      <point x="280" y="730" smooth="yes"/>
      <point x="273" y="740" smooth="yes"/>
      <point x="260" y="740" type="curve" smooth="yes"/>
      <point x="60" y="740" type="line" smooth="yes"/>
      <point x="47" y="740" smooth="yes"/>
      <point x="40" y="730" smooth="yes"/>
      <point x="40" y="709" type="curve" smooth="yes"/>
      <point x="40" y="688" smooth="yes"/>
      <point x="47" y="677" smooth="yes"/>
      <point x="60" y="677" type="curve" smooth="yes"/>
      <point x="120" y="677" type="line"/>
      <point x="120" y="63" type="line"/>
      <point x="60" y="63" type="line" smooth="yes"/>
      <point x="47" y="63" smooth="yes"/>
      <point x="40" y="53" smooth="yes"/>
      <point x="40" y="32" type="curve" smooth="yes"/>
      <point x="40" y="11" smooth="yes"/>
      <point x="47" y="0" smooth="yes"/>
      <point x="60" y="0" type="curve" smooth="yes"/>
      <point x="260" y="0" type="line" smooth="yes"/>
      <point x="273" y="0" smooth="yes"/>
      <point x="280" y="11" smooth="yes"/>
      <point x="280" y="32" type="curve" smooth="yes"/>
      <point x="280" y="53" smooth="yes"/>
      <point x="273" y="63" smooth="yes"/>
      <point x="260" y="63" type="curve" smooth="yes"/>
      <point x="200" y="63" type="line"/>
      <point x="200" y="677" type="line"/>
    </contour>
  </outline>
</glyph>
<glyph name="J" format="1">
  <advance width="503"/>
  <unicode hex="004A"/>
  <outline>
    <contour>
      <point x="313" y="133" type="line" smooth="yes" name="hr00"/>
      <point x="313" y="82" smooth="yes"/>
      <point x="274" y="55" smooth="yes"/>
      <point x="201" y="55" type="curve" smooth="yes"/>
      <point x="129" y="55" smooth="yes"/>
      <point x="90" y="82" smooth="yes"/>
      <point x="90" y="133" type="curve" smooth="yes"/>
      <point x="90" y="265" type="line" smooth="yes"/>
      <point x="90" y="280" smooth="yes"/>
      <point x="76" y="288" smooth="yes"/>
      <point x="50" y="288" type="curve" smooth="yes"/>
      <point x="24" y="288" smooth="yes"/>
      <point x="10" y="280" smooth="yes"/>
      <point x="10" y="265" type="curve" smooth="yes"/>
      <point x="10" y="143" type="line" smooth="yes"/>
      <point x="10" y="44" smooth="yes"/>
      <point x="81" y="-15" smooth="yes"/>
      <point x="201" y="-15" type="curve" smooth="yes"/>
      <point x="321" y="-15" smooth="yes"/>
      <point x="393" y="44" smooth="yes"/>
      <point x="393" y="143" type="curve" smooth="yes"/>
      <point x="393" y="722" type="line" smooth="yes"/>
      <point x="393" y="737" smooth="yes"/>
      <point x="379" y="745" smooth="yes"/>
      <point x="353" y="745" type="curve" smooth="yes"/>
      <point x="327" y="745" smooth="yes"/>
      <point x="313" y="737" smooth="yes"/>
      <point x="313" y="722" type="curve" smooth="yes"/>
    </contour>
  </outline>
</glyph>
<glyph name="K" format="1">
  <advance width="614"/>
  <unicode hex="004B"/>
  <outline>
    <contour>
      <point x="515" y="-5" type="curve" smooth="yes" name="hr00"/>
      <point x="539" y="-5" smooth="yes"/>
      <point x="553" y="1" smooth="yes"/>
      <point x="553" y="12" type="curve" smooth="yes"/>
      <point x="553" y="15" smooth="yes"/>
      <point x="549" y="29" smooth="yes"/>
      <point x="547" y="37" type="curve" smooth="yes"/>
      <point x="474" y="304" type="line" smooth="yes"/>
      <point x="462" y="346"/>
      <point x="448" y="371"/>
      <point x="420" y="384" type="curve"/>
      <point x="441" y="399" smooth="yes"/>
      <point x="452" y="421" smooth="yes"/>
      <point x="461" y="454" type="curve" smooth="yes"/>
      <point x="525" y="695" type="line" smooth="yes"/>
      <point x="529" y="709" smooth="yes"/>
      <point x="533" y="725" smooth="yes"/>
      <point x="533" y="727" type="curve" smooth="yes"/>
      <point x="533" y="739" smooth="yes"/>
      <point x="520" y="745" smooth="yes"/>
      <point x="495" y="745" type="curve" smooth="yes"/>
      <point x="470" y="745" smooth="yes"/>
      <point x="460" y="739" smooth="yes"/>
      <point x="456" y="722" type="curve" smooth="yes"/>
      <point x="384" y="454" type="line" smooth="yes"/>
      <point x="372" y="411" smooth="yes"/>
      <point x="360" y="401" smooth="yes"/>
      <point x="293" y="400" type="curve" smooth="yes"/>
      <point x="244" y="400" type="line" smooth="yes"/>
      <point x="231" y="400" smooth="yes"/>
      <point x="224" y="388" smooth="yes"/>
      <point x="224" y="365" type="curve" smooth="yes"/>
      <point x="224" y="342" smooth="yes"/>
      <point x="231" y="330" smooth="yes"/>
      <point x="244" y="330" type="curve" smooth="yes"/>
      <point x="310" y="330" type="line" smooth="yes"/>
      <point x="381" y="330" smooth="yes"/>
      <point x="392" y="324" smooth="yes"/>
      <point x="405" y="276" type="curve" smooth="yes"/>
      <point x="476" y="18" type="line" smooth="yes"/>
      <point x="481" y="1" smooth="yes"/>
      <point x="491" y="-5" smooth="yes"/>
    </contour>
    <contour>
      <point x="150" y="-5" type="curve" smooth="yes"/>
      <point x="176" y="-5" smooth="yes"/>
      <point x="190" y="3" smooth="yes"/>
      <point x="190" y="18" type="curve" smooth="yes"/>
      <point x="190" y="722" type="line" smooth="yes"/>
      <point x="190" y="737" smooth="yes"/>
      <point x="176" y="745" smooth="yes"/>
      <point x="150" y="745" type="curve" smooth="yes"/>
      <point x="124" y="745" smooth="yes"/>
      <point x="110" y="737" smooth="yes"/>
      <point x="110" y="722" type="curve" smooth="yes"/>
      <point x="110" y="18" type="line" smooth="yes"/>
      <point x="110" y="3" smooth="yes"/>
      <point x="124" y="-5" smooth="yes"/>
    </contour>
  </outline>
</glyph>
<glyph name="L" format="1">
  <advance width="460"/>
  <unicode hex="004C"/>
  <outline>
    <contour>
      <point x="268" y="70" type="line" name="hr00"/>
      <point x="211" y="70" smooth="yes"/>
      <point x="190" y="99" smooth="yes"/>
      <point x="190" y="176" type="curve" smooth="yes"/>
      <point x="190" y="722" type="line" smooth="yes"/>
      <point x="190" y="737" smooth="yes"/>
      <point x="176" y="745" smooth="yes"/>
      <point x="150" y="745" type="curve" smooth="yes"/>
      <point x="124" y="745" smooth="yes"/>
      <point x="110" y="737" smooth="yes"/>
      <point x="110" y="722" type="curve" smooth="yes"/>
      <point x="110" y="176" type="line" smooth="yes"/>
      <point x="110" y="50" smooth="yes"/>
      <point x="155" y="0" smooth="yes"/>
      <point x="268" y="0" type="curve" smooth="yes"/>
      <point x="430" y="0" type="line" smooth="yes"/>
      <point x="443" y="0" smooth="yes"/>
      <point x="450" y="12" smooth="yes"/>
      <point x="450" y="35" type="curve" smooth="yes"/>
      <point x="450" y="58" smooth="yes"/>
      <point x="443" y="70" smooth="yes"/>
      <point x="430" y="70" type="curve" smooth="yes"/>
    </contour>
  </outline>
</glyph>
<glyph name="M" format="1">
  <advance width="854"/>
  <unicode hex="004D"/>
  <outline>
    <contour>
      <point x="664" y="18" type="line" smooth="yes" name="hr00"/>
      <point x="664" y="3" smooth="yes"/>
      <point x="678" y="-5" smooth="yes"/>
      <point x="704" y="-5" type="curve" smooth="yes"/>
      <point x="730" y="-5" smooth="yes"/>
      <point x="744" y="3" smooth="yes"/>
      <point x="744" y="18" type="curve" smooth="yes"/>
      <point x="744" y="665" type="line" smooth="yes"/>
      <point x="744" y="726" smooth="yes"/>
      <point x="733" y="740" smooth="yes"/>
      <point x="684" y="740" type="curve" smooth="yes"/>
      <point x="662" y="740" type="line" smooth="yes"/>
      <point x="566" y="740" smooth="yes"/>
      <point x="548" y="727" smooth="yes"/>
      <point x="528" y="644" type="curve" smooth="yes"/>
      <point x="427" y="229" type="line"/>
      <point x="326" y="644" type="line" smooth="yes"/>
      <point x="306" y="727" smooth="yes"/>
      <point x="288" y="740" smooth="yes"/>
      <point x="192" y="740" type="curve" smooth="yes"/>
      <point x="170" y="740" type="line" smooth="yes"/>
      <point x="122" y="740" smooth="yes"/>
      <point x="110" y="726" smooth="yes"/>
      <point x="110" y="668" type="curve" smooth="yes"/>
      <point x="110" y="18" type="line" smooth="yes"/>
      <point x="110" y="3" smooth="yes"/>
      <point x="124" y="-5" smooth="yes"/>
      <point x="150" y="-5" type="curve" smooth="yes"/>
      <point x="176" y="-5" smooth="yes"/>
      <point x="190" y="3" smooth="yes"/>
      <point x="190" y="18" type="curve" smooth="yes"/>
      <point x="190" y="670" type="line"/>
      <point x="241" y="670" smooth="yes"/>
      <point x="245" y="666" smooth="yes"/>
      <point x="257" y="616" type="curve" smooth="yes"/>
      <point x="388" y="97" type="line" smooth="yes"/>
      <point x="392" y="81" smooth="yes"/>
      <point x="403" y="74" smooth="yes"/>
      <point x="427" y="74" type="curve" smooth="yes"/>
      <point x="451" y="74" smooth="yes"/>
      <point x="462" y="81" smooth="yes"/>
      <point x="466" y="97" type="curve" smooth="yes"/>
      <point x="597" y="616" type="line" smooth="yes"/>
      <point x="609" y="665"/>
      <point x="613" y="670"/>
      <point x="664" y="670" type="curve"/>
    </contour>
  </outline>
</glyph>
<glyph name="N" format="1">
  <advance width="713"/>
  <unicode hex="004E"/>
  <outline>
    <contour>
      <point x="387" y="91" type="line" smooth="yes" name="hr00"/>
      <point x="408" y="8" smooth="yes"/>
      <point x="426" y="-5" smooth="yes"/>
      <point x="521" y="-5" type="curve" smooth="yes"/>
      <point x="543" y="-5" type="line" smooth="yes"/>
      <point x="592" y="-5" smooth="yes"/>
      <point x="603" y="9" smooth="yes"/>
      <point x="603" y="70" type="curve" smooth="yes"/>
      <point x="603" y="717" type="line" smooth="yes"/>
      <point x="603" y="732" smooth="yes"/>
      <point x="589" y="740" smooth="yes"/>
      <point x="563" y="740" type="curve" smooth="yes"/>
      <point x="537" y="740" smooth="yes"/>
      <point x="523" y="732" smooth="yes"/>
      <point x="523" y="717" type="curve" smooth="yes"/>
      <point x="523" y="65" type="line"/>
      <point x="472" y="65" smooth="yes"/>
      <point x="468" y="70" smooth="yes"/>
      <point x="456" y="119" type="curve" smooth="yes"/>
      <point x="326" y="644" type="line" smooth="yes"/>
      <point x="305" y="727" smooth="yes"/>
      <point x="287" y="740" smooth="yes"/>
      <point x="192" y="740" type="curve" smooth="yes"/>
      <point x="170" y="740" type="line" smooth="yes"/>
      <point x="122" y="740" smooth="yes"/>
      <point x="110" y="726" smooth="yes"/>
      <point x="110" y="668" type="curve" smooth="yes"/>
      <point x="110" y="18" type="line" smooth="yes"/>
      <point x="110" y="3" smooth="yes"/>
      <point x="124" y="-5" smooth="yes"/>
      <point x="150" y="-5" type="curve" smooth="yes"/>
      <point x="176" y="-5" smooth="yes"/>
      <point x="190" y="3" smooth="yes"/>
      <point x="190" y="18" type="curve" smooth="yes"/>
      <point x="190" y="670" type="line"/>
      <point x="241" y="670" smooth="yes"/>
      <point x="245" y="666" smooth="yes"/>
      <point x="257" y="616" type="curve" smooth="yes"/>
    </contour>
  </outline>
</glyph>
<glyph name="O" format="1">
  <advance width="663"/>
  <unicode hex="004F"/>
  <outline>
    <contour>
      <point x="563" y="597" type="line" smooth="yes" name="hr00"/>
      <point x="563" y="701" smooth="yes"/>
      <point x="484" y="755" smooth="yes"/>
      <point x="335" y="755" type="curve" smooth="yes"/>
      <point x="183" y="755" smooth="yes"/>
      <point x="100" y="699" smooth="yes"/>
      <point x="100" y="597" type="curve" smooth="yes"/>
      <point x="100" y="143" type="line" smooth="yes"/>
      <point x="100" y="39" smooth="yes"/>
      <point x="179" y="-15" smooth="yes"/>
      <point x="328" y="-15" type="curve" smooth="yes"/>
      <point x="480" y="-15" smooth="yes"/>
      <point x="563" y="41" smooth="yes"/>
      <point x="563" y="143" type="curve" smooth="yes"/>
    </contour>
    <contour>
      <point x="180" y="607" type="line" smooth="yes"/>
      <point x="180" y="658" smooth="yes"/>
      <point x="234" y="685" smooth="yes"/>
      <point x="335" y="685" type="curve" smooth="yes"/>
      <point x="433" y="685" smooth="yes"/>
      <point x="483" y="659" smooth="yes"/>
      <point x="483" y="607" type="curve" smooth="yes"/>
      <point x="483" y="133" type="line" smooth="yes"/>
      <point x="483" y="82" smooth="yes"/>
      <point x="429" y="55" smooth="yes"/>
      <point x="328" y="55" type="curve" smooth="yes"/>
      <point x="230" y="55" smooth="yes"/>
      <point x="180" y="81" smooth="yes"/>
      <point x="180" y="133" type="curve" smooth="yes"/>
    </contour>
  </outline>
</glyph>
<glyph name="P" format="1">
  <advance width="613"/>
  <unicode hex="0050"/>
  <outline>
    <contour>
      <point x="240" y="350" type="line" smooth="yes" name="hr00"/>
      <point x="227" y="350" smooth="yes"/>
      <point x="220" y="338" smooth="yes"/>
      <point x="220" y="315" type="curve" smooth="yes"/>
      <point x="220" y="292" smooth="yes"/>
      <point x="227" y="280" smooth="yes"/>
      <point x="240" y="280" type="curve" smooth="yes"/>
      <point x="327" y="280" type="line" smooth="yes"/>
      <point x="467" y="280" smooth="yes"/>
      <point x="543" y="336" smooth="yes"/>
      <point x="543" y="438" type="curve" smooth="yes"/>
      <point x="543" y="597" type="line" smooth="yes"/>
      <point x="543" y="699" smooth="yes"/>
      <point x="466" y="755" smooth="yes"/>
      <point x="326" y="755" type="curve" smooth="yes"/>
      <point x="186" y="755" smooth="yes"/>
      <point x="110" y="699" smooth="yes"/>
      <point x="110" y="597" type="curve" smooth="yes"/>
      <point x="110" y="18" type="line" smooth="yes"/>
      <point x="110" y="3" smooth="yes"/>
      <point x="124" y="-5" smooth="yes"/>
      <point x="150" y="-5" type="curve" smooth="yes"/>
      <point x="176" y="-5" smooth="yes"/>
      <point x="190" y="3" smooth="yes"/>
      <point x="190" y="18" type="curve" smooth="yes"/>
      <point x="190" y="607" type="line" smooth="yes"/>
      <point x="190" y="658" smooth="yes"/>
      <point x="237" y="685" smooth="yes"/>
      <point x="326" y="685" type="curve" smooth="yes"/>
      <point x="415" y="685" smooth="yes"/>
      <point x="463" y="658" smooth="yes"/>
      <point x="463" y="607" type="curve" smooth="yes"/>
      <point x="463" y="428" type="line" smooth="yes"/>
      <point x="463" y="377" smooth="yes"/>
      <point x="416" y="350" smooth="yes"/>
      <point x="327" y="350" type="curve" smooth="yes"/>
    </contour>
  </outline>
</glyph>
<glyph name="Q" format="1">
  <advance width="663"/>
  <unicode hex="0051"/>
  <outline>
    <contour>
      <point x="328" y="55" type="curve" smooth="yes" name="hr00"/>
      <point x="230" y="55" smooth="yes"/>
      <point x="180" y="81" smooth="yes"/>
      <point x="180" y="133" type="curve" smooth="yes"/>
      <point x="180" y="607" type="line" smooth="yes"/>
      <point x="180" y="658" smooth="yes"/>
      <point x="234" y="685" smooth="yes"/>
      <point x="335" y="685" type="curve" smooth="yes"/>
      <point x="433" y="685" smooth="yes"/>
      <point x="483" y="659" smooth="yes"/>
      <point x="483" y="607" type="curve" smooth="yes"/>
      <point x="483" y="133" type="line" smooth="yes"/>
      <point x="483" y="109"/>
      <point x="472" y="90"/>
      <point x="450" y="78" type="curve"/>
      <point x="409" y="169" type="line" smooth="yes"/>
      <point x="401" y="186" smooth="yes"/>
      <point x="392" y="191" smooth="yes"/>
      <point x="372" y="191" type="curve" smooth="yes"/>
      <point x="346" y="191"/>
      <point x="329" y="183"/>
      <point x="331" y="172" type="curve"/>
      <point x="451" y="-95" type="line"/>
      <point x="454" y="-110" smooth="yes"/>
      <point x="468" y="-117" smooth="yes"/>
      <point x="493" y="-117" type="curve" smooth="yes"/>
      <point x="517" y="-117"/>
      <point x="530" y="-110"/>
      <point x="529" y="-98" type="curve"/>
      <point x="479" y="12" type="line"/>
      <point x="534" y="37" smooth="yes"/>
      <point x="563" y="82" smooth="yes"/>
      <point x="563" y="143" type="curve" smooth="yes"/>
      <point x="563" y="597" type="line" smooth="yes"/>
      <point x="563" y="701" smooth="yes"/>
      <point x="484" y="755" smooth="yes"/>
      <point x="335" y="755" type="curve" smooth="yes"/>
      <point x="183" y="755" smooth="yes"/>
      <point x="100" y="699" smooth="yes"/>
      <point x="100" y="597" type="curve" smooth="yes"/>
      <point x="100" y="143" type="line" smooth="yes"/>
      <point x="100" y="39" smooth="yes"/>
      <point x="179" y="-15" smooth="yes"/>
      <point x="328" y="-15" type="curve" smooth="yes"/>
      <point x="341" y="-15" smooth="yes"/>
      <point x="348" y="-3" smooth="yes"/>
      <point x="348" y="20" type="curve" smooth="yes"/>
      <point x="348" y="43" smooth="yes"/>
      <point x="341" y="55" smooth="yes"/>
    </contour>
  </outline>
</glyph>
<glyph name="R" format="1">
  <advance width="644"/>
  <unicode hex="0052"/>
  <outline>
    <contour>
      <point x="240" y="370" type="line" smooth="yes" name="hr00"/>
      <point x="227" y="370" smooth="yes"/>
      <point x="220" y="358" smooth="yes"/>
      <point x="220" y="335" type="curve" smooth="yes"/>
      <point x="220" y="312" smooth="yes"/>
      <point x="227" y="300" smooth="yes"/>
      <point x="240" y="300" type="curve" smooth="yes"/>
      <point x="328" y="300" type="line" smooth="yes"/>
      <point x="399" y="300" smooth="yes"/>
      <point x="410" y="294" smooth="yes"/>
      <point x="423" y="246" type="curve" smooth="yes"/>
      <point x="486" y="18" type="line"/>
      <point x="490" y="1" smooth="yes"/>
      <point x="501" y="-5" smooth="yes"/>
      <point x="525" y="-5" type="curve" smooth="yes"/>
      <point x="551" y="-5"/>
      <point x="564" y="2"/>
      <point x="563" y="15" type="curve"/>
      <point x="492" y="274" type="line" smooth="yes"/>
      <point x="483" y="306"/>
      <point x="473" y="328"/>
      <point x="455" y="342" type="curve"/>
      <point x="518" y="359" smooth="yes"/>
      <point x="543" y="396" smooth="yes"/>
      <point x="543" y="458" type="curve" smooth="yes"/>
      <point x="543" y="597" type="line" smooth="yes"/>
      <point x="543" y="699" smooth="yes"/>
      <point x="466" y="755" smooth="yes"/>
      <point x="326" y="755" type="curve" smooth="yes"/>
      <point x="186" y="755" smooth="yes"/>
      <point x="110" y="699" smooth="yes"/>
      <point x="110" y="597" type="curve" smooth="yes"/>
      <point x="110" y="18" type="line" smooth="yes"/>
      <point x="110" y="3" smooth="yes"/>
      <point x="124" y="-5" smooth="yes"/>
      <point x="150" y="-5" type="curve" smooth="yes"/>
      <point x="176" y="-5" smooth="yes"/>
      <point x="190" y="3" smooth="yes"/>
      <point x="190" y="18" type="curve" smooth="yes"/>
      <point x="190" y="607" type="line" smooth="yes"/>
      <point x="190" y="658" smooth="yes"/>
      <point x="237" y="685" smooth="yes"/>
      <point x="326" y="685" type="curve" smooth="yes"/>
      <point x="415" y="685" smooth="yes"/>
      <point x="463" y="658" smooth="yes"/>
      <point x="463" y="607" type="curve" smooth="yes"/>
      <point x="463" y="448" type="line" smooth="yes"/>
      <point x="463" y="397" smooth="yes"/>
      <point x="416" y="370" smooth="yes"/>
      <point x="327" y="370" type="curve" smooth="yes"/>
    </contour>
  </outline>
</glyph>
<glyph name="S" format="1">
  <advance width="617"/>
  <unicode hex="0053"/>
  <outline>
    <contour>
      <point x="306" y="-15" type="curve"/>
      <point x="452" y="-15" smooth="yes"/>
      <point x="537" y="43" smooth="yes"/>
      <point x="537" y="143" type="curve" smooth="yes"/>
      <point x="537" y="238" type="line" smooth="yes"/>
      <point x="537" y="324" smooth="yes"/>
      <point x="501" y="360" smooth="yes"/>
      <point x="382" y="387" type="curve" smooth="yes"/>
      <point x="252" y="416" type="line" smooth="yes"/>
      <point x="190" y="429" smooth="yes"/>
      <point x="174" y="451" smooth="yes"/>
      <point x="174" y="522" type="curve" smooth="yes"/>
      <point x="174" y="607" type="line" smooth="yes"/>
      <point x="174" y="658" smooth="yes"/>
      <point x="222" y="685" smooth="yes"/>
      <point x="311" y="685" type="curve" smooth="yes"/>
      <point x="400" y="685" smooth="yes"/>
      <point x="447" y="658" smooth="yes"/>
      <point x="447" y="607" type="curve" smooth="yes"/>
      <point x="447" y="553" type="line" smooth="yes"/>
      <point x="447" y="538" smooth="yes"/>
      <point x="461" y="530" smooth="yes"/>
      <point x="487" y="530" type="curve" smooth="yes"/>
      <point x="513" y="530" smooth="yes"/>
      <point x="527" y="538" smooth="yes"/>
      <point x="527" y="553" type="curve" smooth="yes"/>
      <point x="527" y="597" type="line" smooth="yes"/>
      <point x="527" y="699" smooth="yes"/>
      <point x="451" y="755" smooth="yes"/>
      <point x="311" y="755" type="curve" smooth="yes"/>
      <point x="171" y="755" smooth="yes"/>
      <point x="94" y="699" smooth="yes"/>
      <point x="94" y="597" type="curve" smooth="yes"/>
      <point x="94" y="520" type="line" smooth="yes"/>
      <point x="94" y="409" smooth="yes"/>
      <point x="127" y="373" smooth="yes"/>
      <point x="252" y="344" type="curve" smooth="yes"/>
      <point x="341" y="324" type="line" smooth="yes"/>
      <point x="432" y="303" smooth="yes"/>
      <point x="457" y="286" smooth="yes"/>
      <point x="457" y="246" type="curve" smooth="yes"/>
      <point x="457" y="133" type="line" smooth="yes"/>
      <point x="457" y="84" smooth="yes"/>
      <point x="400" y="55" smooth="yes"/>
      <point x="306" y="55" type="curve" smooth="yes"/>
      <point x="214" y="55" smooth="yes"/>
      <point x="160" y="84" smooth="yes"/>
      <point x="160" y="133" type="curve" smooth="yes" name="hr01"/>
      <point x="160" y="187" type="line" smooth="yes"/>
      <point x="160" y="202" smooth="yes"/>
      <point x="146" y="210" smooth="yes"/>
      <point x="120" y="210" type="curve" smooth="yes"/>
      <point x="94" y="210" smooth="yes"/>
      <point x="80" y="202" smooth="yes"/>
      <point x="80" y="187" type="curve" smooth="yes"/>
      <point x="80" y="143" type="line" smooth="yes"/>
      <point x="80" y="43" smooth="yes"/>
      <point x="162" y="-15" smooth="yes"/>
    </contour>
  </outline>
</glyph>
<glyph name="T" format="1">
  <advance width="500"/>
  <unicode hex="0054"/>
  <outline>
    <contour>
      <point x="40" y="740" type="line" smooth="yes" name="hr00"/>
      <point x="27" y="740" smooth="yes"/>
      <point x="20" y="728" smooth="yes"/>
      <point x="20" y="705" type="curve" smooth="yes"/>
      <point x="20" y="682" smooth="yes"/>
      <point x="27" y="670" smooth="yes"/>
      <point x="40" y="670" type="curve" smooth="yes"/>
      <point x="210" y="670" type="line"/>
      <point x="210" y="18" type="line" smooth="yes"/>
      <point x="210" y="3" smooth="yes"/>
      <point x="224" y="-5" smooth="yes"/>
      <point x="250" y="-5" type="curve" smooth="yes"/>
      <point x="276" y="-5" smooth="yes"/>
      <point x="290" y="3" smooth="yes"/>
      <point x="290" y="18" type="curve" smooth="yes"/>
      <point x="290" y="670" type="line"/>
      <point x="460" y="670" type="line" smooth="yes"/>
      <point x="473" y="670" smooth="yes"/>
      <point x="480" y="682" smooth="yes"/>
      <point x="480" y="705" type="curve" smooth="yes"/>
      <point x="480" y="728" smooth="yes"/>
      <point x="473" y="740" smooth="yes"/>
      <point x="460" y="740" type="curve" smooth="yes"/>
    </contour>
  </outline>
</glyph>
<glyph name="U" format="1">
  <advance width="683"/>
  <unicode hex="0055"/>
  <outline>
    <contour>
      <point x="189" y="722" type="line" name="hr00"/>
      <point x="189" y="737" smooth="yes"/>
      <point x="175" y="745" smooth="yes"/>
      <point x="149" y="745" type="curve" smooth="yes"/>
      <point x="124" y="745" smooth="yes"/>
      <point x="110" y="737" smooth="yes"/>
      <point x="110" y="722" type="curve" smooth="yes"/>
      <point x="110" y="143" type="line" smooth="yes"/>
      <point x="110" y="39" smooth="yes"/>
      <point x="189" y="-15" smooth="yes"/>
      <point x="338" y="-15" type="curve" smooth="yes"/>
      <point x="490" y="-15" smooth="yes"/>
      <point x="573" y="41" smooth="yes"/>
      <point x="573" y="143" type="curve" smooth="yes"/>
      <point x="573" y="722" type="line" smooth="yes"/>
      <point x="573" y="737" smooth="yes"/>
      <point x="559" y="745" smooth="yes"/>
      <point x="533" y="745" type="curve" smooth="yes"/>
      <point x="507" y="745" smooth="yes"/>
      <point x="493" y="737" smooth="yes"/>
      <point x="493" y="722" type="curve" smooth="yes"/>
      <point x="493" y="133" type="line" smooth="yes"/>
      <point x="493" y="82" smooth="yes"/>
      <point x="439" y="55" smooth="yes"/>
      <point x="338" y="55" type="curve" smooth="yes"/>
      <point x="240" y="55" smooth="yes"/>
      <point x="190" y="81" smooth="yes"/>
      <point x="190" y="133" type="curve" smooth="yes"/>
    </contour>
  </outline>
</glyph>
<glyph name="V" format="1">
  <advance width="636"/>
  <unicode hex="0056"/>
  <outline>
    <contour>
      <point x="318" y="-15" type="curve" smooth="yes" name="hr00"/>
      <point x="417" y="-15" smooth="yes"/>
      <point x="456" y="18" smooth="yes"/>
      <point x="475" y="122" type="curve" smooth="yes"/>
      <point x="585" y="725" type="line" smooth="yes"/>
      <point x="586" y="738" smooth="yes"/>
      <point x="573" y="745" smooth="yes"/>
      <point x="547" y="745" type="curve" smooth="yes"/>
      <point x="521" y="745" smooth="yes"/>
      <point x="508" y="737" smooth="yes"/>
      <point x="505" y="722" type="curve" smooth="yes"/>
      <point x="397" y="133" type="line" smooth="yes"/>
      <point x="386" y="72" smooth="yes"/>
      <point x="369" y="55" smooth="yes"/>
      <point x="318" y="55" type="curve" smooth="yes"/>
      <point x="267" y="55" smooth="yes"/>
      <point x="250" y="73" smooth="yes"/>
      <point x="239" y="133" type="curve" smooth="yes"/>
      <point x="131" y="722" type="line" smooth="yes"/>
      <point x="128" y="738" smooth="yes"/>
      <point x="114" y="745" smooth="yes"/>
      <point x="89" y="745" type="curve" smooth="yes"/>
      <point x="63" y="745" smooth="yes"/>
      <point x="49" y="738" smooth="yes"/>
      <point x="51" y="725" type="curve" smooth="yes"/>
      <point x="161" y="122" type="line" smooth="yes"/>
      <point x="180" y="19" smooth="yes"/>
      <point x="219" y="-15" smooth="yes"/>
    </contour>
  </outline>
</glyph>
<glyph name="W" format="1">
  <advance width="984"/>
  <unicode hex="0057"/>
  <outline>
    <contour>
      <point x="532" y="631" type="line" smooth="yes" name="hr00"/>
      <point x="530" y="647" smooth="yes"/>
      <point x="517" y="654" smooth="yes"/>
      <point x="492" y="654" type="curve" smooth="yes"/>
      <point x="467" y="654" smooth="yes"/>
      <point x="453" y="646" smooth="yes"/>
      <point x="452" y="631" type="curve" smooth="yes"/>
      <point x="390" y="133" type="line" smooth="yes"/>
      <point x="382" y="76" smooth="yes"/>
      <point x="360" y="55" smooth="yes"/>
      <point x="307" y="55" type="curve" smooth="yes"/>
      <point x="254" y="55" smooth="yes"/>
      <point x="236" y="74" smooth="yes"/>
      <point x="228" y="133" type="curve" smooth="yes"/>
      <point x="150" y="722" type="line" smooth="yes"/>
      <point x="147" y="738" smooth="yes"/>
      <point x="133" y="745" smooth="yes"/>
      <point x="108" y="745" type="curve" smooth="yes"/>
      <point x="84" y="745" smooth="yes"/>
      <point x="70" y="738" smooth="yes"/>
      <point x="70" y="727" type="curve" smooth="yes"/>
      <point x="71" y="728"/>
      <point x="71" y="726"/>
      <point x="70" y="725" type="curve"/>
      <point x="150" y="122" type="line" smooth="yes"/>
      <point x="162" y="22" smooth="yes"/>
      <point x="204" y="-15" smooth="yes"/>
      <point x="307" y="-15" type="curve" smooth="yes"/>
      <point x="410" y="-15" smooth="yes"/>
      <point x="454" y="23" smooth="yes"/>
      <point x="464" y="122" type="curve" smooth="yes"/>
      <point x="487" y="368" type="line"/>
      <point x="497" y="368" type="line"/>
      <point x="520" y="122" type="line" smooth="yes"/>
      <point x="528" y="24" smooth="yes"/>
      <point x="572" y="-15" smooth="yes"/>
      <point x="677" y="-15" type="curve" smooth="yes"/>
      <point x="776" y="-15" smooth="yes"/>
      <point x="814" y="18" smooth="yes"/>
      <point x="834" y="122" type="curve" smooth="yes"/>
      <point x="914" y="725" type="line"/>
      <point x="915" y="726" smooth="yes"/>
      <point x="915" y="728" smooth="yes"/>
      <point x="914" y="727" type="curve" smooth="yes"/>
      <point x="914" y="738" smooth="yes"/>
      <point x="900" y="745" smooth="yes"/>
      <point x="876" y="745" type="curve" smooth="yes"/>
      <point x="850" y="745" smooth="yes"/>
      <point x="837" y="737" smooth="yes"/>
      <point x="834" y="722" type="curve" smooth="yes"/>
      <point x="756" y="133" type="line" smooth="yes"/>
      <point x="744" y="72" smooth="yes"/>
      <point x="727" y="55" smooth="yes"/>
      <point x="677" y="55" type="curve" smooth="yes"/>
      <point x="623" y="55" smooth="yes"/>
      <point x="601" y="76" smooth="yes"/>
      <point x="594" y="133" type="curve" smooth="yes"/>
    </contour>
  </outline>
</glyph>
<glyph name="X" format="1">
  <advance width="610"/>
  <unicode hex="0058"/>
  <outline>
    <contour>
      <point x="61" y="15" type="line" name="hr00"/>
      <point x="59" y="2" smooth="yes"/>
      <point x="73" y="-5" smooth="yes"/>
      <point x="99" y="-5" type="curve" smooth="yes"/>
      <point x="122" y="-5"/>
      <point x="133" y="1"/>
      <point x="137" y="18" type="curve"/>
      <point x="212" y="267" type="line" smooth="yes"/>
      <point x="229" y="324" smooth="yes"/>
      <point x="254" y="345" smooth="yes"/>
      <point x="305" y="345" type="curve" smooth="yes"/>
      <point x="356" y="345" smooth="yes"/>
      <point x="380" y="325" smooth="yes"/>
      <point x="398" y="267" type="curve" smooth="yes"/>
      <point x="473" y="18" type="line"/>
      <point x="477" y="1" smooth="yes"/>
      <point x="487" y="-5" smooth="yes"/>
      <point x="511" y="-5" type="curve" smooth="yes"/>
      <point x="537" y="-5"/>
      <point x="550" y="2"/>
      <point x="549" y="15" type="curve"/>
      <point x="472" y="278" type="line" smooth="yes"/>
      <point x="456" y="333"/>
      <point x="438" y="364"/>
      <point x="403" y="380" type="curve"/>
      <point x="436" y="396" smooth="yes"/>
      <point x="454" y="427" smooth="yes"/>
      <point x="472" y="482" type="curve" smooth="yes"/>
      <point x="549" y="725" type="line"/>
      <point x="550" y="738" smooth="yes"/>
      <point x="537" y="745" smooth="yes"/>
      <point x="511" y="745" type="curve" smooth="yes"/>
      <point x="487" y="745"/>
      <point x="477" y="739"/>
      <point x="473" y="722" type="curve"/>
      <point x="398" y="493" type="line" smooth="yes"/>
      <point x="379" y="435" smooth="yes"/>
      <point x="356" y="415" smooth="yes"/>
      <point x="305" y="415" type="curve" smooth="yes"/>
      <point x="254" y="415" smooth="yes"/>
      <point x="231" y="435" smooth="yes"/>
      <point x="212" y="493" type="curve" smooth="yes"/>
      <point x="137" y="722" type="line"/>
      <point x="133" y="739" smooth="yes"/>
      <point x="122" y="745" smooth="yes"/>
      <point x="99" y="745" type="curve" smooth="yes"/>
      <point x="73" y="745"/>
      <point x="59" y="738"/>
      <point x="61" y="725" type="curve"/>
      <point x="138" y="482" type="line" smooth="yes"/>
      <point x="155" y="427"/>
      <point x="173" y="396"/>
      <point x="206" y="380" type="curve"/>
      <point x="171" y="364" smooth="yes"/>
      <point x="154" y="333" smooth="yes"/>
      <point x="138" y="278" type="curve" smooth="yes"/>
    </contour>
  </outline>
</glyph>
<glyph name="Y" format="1">
  <advance width="580"/>
  <unicode hex="0059"/>
  <outline>
    <contour>
      <point x="534" y="725" type="line" name="hr00"/>
      <point x="535" y="738" smooth="yes"/>
      <point x="522" y="745" smooth="yes"/>
      <point x="496" y="745" type="curve" smooth="yes"/>
      <point x="471" y="745"/>
      <point x="457" y="738"/>
      <point x="454" y="722" type="curve"/>
      <point x="369" y="393" type="line" smooth="yes"/>
      <point x="354" y="333" smooth="yes"/>
      <point x="335" y="315" smooth="yes"/>
      <point x="290" y="315" type="curve" smooth="yes"/>
      <point x="244" y="315"/>
      <point x="225" y="334"/>
      <point x="211" y="393" type="curve"/>
      <point x="126" y="722" type="line" smooth="yes"/>
      <point x="122" y="738" smooth="yes"/>
      <point x="109" y="745" smooth="yes"/>
      <point x="84" y="745" type="curve" smooth="yes"/>
      <point x="58" y="745"/>
      <point x="44" y="738"/>
      <point x="46" y="725" type="curve"/>
      <point x="133" y="382" type="line" smooth="yes"/>
      <point x="155" y="295"/>
      <point x="186" y="258"/>
      <point x="250" y="248" type="curve"/>
      <point x="250" y="18" type="line" smooth="yes"/>
      <point x="250" y="3" smooth="yes"/>
      <point x="264" y="-5" smooth="yes"/>
      <point x="290" y="-5" type="curve" smooth="yes"/>
      <point x="316" y="-5" smooth="yes"/>
      <point x="330" y="3" smooth="yes"/>
      <point x="330" y="18" type="curve" smooth="yes"/>
      <point x="330" y="247" type="line"/>
      <point x="393" y="257" smooth="yes"/>
      <point x="424" y="294" smooth="yes"/>
      <point x="447" y="382" type="curve" smooth="yes"/>
    </contour>
  </outline>
</glyph>
<glyph name="Z" format="1">
  <advance width="595"/>
  <unicode hex="005A"/>
  <outline>
    <contour>
      <point x="439" y="464" type="line" smooth="yes" name="hr00"/>
      <point x="524" y="559" smooth="yes"/>
      <point x="535" y="577" smooth="yes"/>
      <point x="535" y="628" type="curve" smooth="yes"/>
      <point x="535" y="705" type="line" smooth="yes"/>
      <point x="535" y="728" smooth="yes"/>
      <point x="528" y="740" smooth="yes"/>
      <point x="515" y="740" type="curve" smooth="yes"/>
      <point x="119" y="740" type="line" smooth="yes"/>
      <point x="106" y="740" smooth="yes"/>
      <point x="99" y="728" smooth="yes"/>
      <point x="99" y="705" type="curve" smooth="yes"/>
      <point x="99" y="682" smooth="yes"/>
      <point x="106" y="670" smooth="yes"/>
      <point x="119" y="670" type="curve" smooth="yes"/>
      <point x="455" y="670" type="line"/>
      <point x="455" y="630" type="line" smooth="yes"/>
      <point x="455" y="600" smooth="yes"/>
      <point x="446" y="582" smooth="yes"/>
      <point x="411" y="543" type="curve" smooth="yes"/>
      <point x="156" y="256" type="line" smooth="yes"/>
      <point x="70" y="159" smooth="yes"/>
      <point x="60" y="142" smooth="yes"/>
      <point x="60" y="92" type="curve" smooth="yes"/>
      <point x="60" y="35" type="line" smooth="yes"/>
      <point x="60" y="12" smooth="yes"/>
      <point x="67" y="0" smooth="yes"/>
      <point x="80" y="0" type="curve" smooth="yes"/>
      <point x="516" y="0" type="line" smooth="yes"/>
      <point x="529" y="0" smooth="yes"/>
      <point x="536" y="12" smooth="yes"/>
      <point x="536" y="35" type="curve" smooth="yes"/>
      <point x="536" y="58" smooth="yes"/>
      <point x="529" y="70" smooth="yes"/>
      <point x="516" y="70" type="curve" smooth="yes"/>
      <point x="140" y="70" type="line"/>
      <point x="140" y="90" type="line" smooth="yes"/>
      <point x="140" y="120" smooth="yes"/>
      <point x="148" y="136" smooth="yes"/>
      <point x="184" y="177" type="curve" smooth="yes"/>
    </contour>
  </outline>
</glyph>
<glyph name="bracketleft" format="1">
  <advance width="360"/>
  <unicode hex="005B"/>
  <outline>
    <contour>
      <point x="200" y="-30" type="line" name="hr00"/>
      <point x="200" y="770" type="line"/>
      <point x="310" y="770" type="line" smooth="yes"/>
      <point x="323" y="770" smooth="yes"/>
      <point x="330" y="782" smooth="yes"/>
      <point x="330" y="805" type="curve" smooth="yes"/>
      <point x="330" y="828" smooth="yes"/>
      <point x="323" y="840" smooth="yes"/>
      <point x="310" y="840" type="curve" smooth="yes"/>
      <point x="180" y="840" type="line" smooth="yes"/>
      <point x="131" y="840" smooth="yes"/>
      <point x="120" y="826" smooth="yes"/>
      <point x="120" y="765" type="curve" smooth="yes"/>
      <point x="120" y="-25" type="line" smooth="yes"/>
      <point x="120" y="-86" smooth="yes"/>
      <point x="131" y="-100" smooth="yes"/>
      <point x="180" y="-100" type="curve" smooth="yes"/>
      <point x="310" y="-100" type="line" smooth="yes"/>
      <point x="323" y="-100" smooth="yes"/>
      <point x="330" y="-88" smooth="yes"/>
      <point x="330" y="-65" type="curve" smooth="yes"/>
      <point x="330" y="-42" smooth="yes"/>
      <point x="323" y="-30" smooth="yes"/>
      <point x="310" y="-30" type="curve" smooth="yes"/>
    </contour>
  </outline>
</glyph>
<glyph name="backslash" format="1">
  <advance width="377"/>
  <unicode hex="005C"/>
  <outline>
    <contour>
      <point x="274" y="-82" type="line" smooth="yes" name="hr00"/>
      <point x="279" y="-99" smooth="yes"/>
      <point x="295" y="-105" smooth="yes"/>
      <point x="316" y="-105" type="curve" smooth="yes"/>
      <point x="334" y="-105" smooth="yes"/>
      <point x="347" y="-100" smooth="yes"/>
      <point x="347" y="-88" type="curve" smooth="yes"/>
      <point x="347" y="-86" smooth="yes"/>
      <point x="346" y="-82" smooth="yes"/>
      <point x="343" y="-71" type="curve" smooth="yes"/>
      <point x="103" y="822" type="line" smooth="yes"/>
      <point x="98" y="839" smooth="yes"/>
      <point x="82" y="845" smooth="yes"/>
      <point x="61" y="845" type="curve" smooth="yes"/>
      <point x="43" y="845" smooth="yes"/>
      <point x="30" y="840" smooth="yes"/>
      <point x="30" y="828" type="curve" smooth="yes"/>
      <point x="30" y="826" smooth="yes"/>
      <point x="31" y="822" smooth="yes"/>
      <point x="34" y="811" type="curve" smooth="yes"/>
    </contour>
  </outline>
</glyph>
<glyph name="bracketright" format="1">
  <advance width="360"/>
  <unicode hex="005D"/>
  <outline>
    <contour>
      <point x="50" y="-30" type="line" smooth="yes" name="hr00"/>
      <point x="37" y="-30" smooth="yes"/>
      <point x="30" y="-42" smooth="yes"/>
      <point x="30" y="-65" type="curve" smooth="yes"/>
      <point x="30" y="-88" smooth="yes"/>
      <point x="37" y="-100" smooth="yes"/>
      <point x="50" y="-100" type="curve" smooth="yes"/>
      <point x="180" y="-100" type="line" smooth="yes"/>
      <point x="229" y="-100" smooth="yes"/>
      <point x="240" y="-86" smooth="yes"/>
      <point x="240" y="-25" type="curve" smooth="yes"/>
      <point x="240" y="765" type="line" smooth="yes"/>
      <point x="240" y="826" smooth="yes"/>
      <point x="229" y="840" smooth="yes"/>
      <point x="180" y="840" type="curve" smooth="yes"/>
      <point x="50" y="840" type="line" smooth="yes"/>
      <point x="37" y="840" smooth="yes"/>
      <point x="30" y="828" smooth="yes"/>
      <point x="30" y="805" type="curve" smooth="yes"/>
      <point x="30" y="782" smooth="yes"/>
      <point x="37" y="770" smooth="yes"/>
      <point x="50" y="770" type="curve" smooth="yes"/>
      <point x="160" y="770" type="line"/>
      <point x="160" y="-30" type="line"/>
    </contour>
  </outline>
</glyph>
<glyph name="asciicircum" format="1">
  <advance width="600"/>
  <unicode hex="005E"/>
  <outline>
    <contour>
      <point x="300" y="740" type="curve" smooth="yes" name="hr00"/>
      <point x="203" y="740" smooth="yes"/>
      <point x="187" y="692" smooth="yes"/>
      <point x="163" y="603" type="curve" smooth="yes"/>
      <point x="114" y="423" type="line"/>
      <point x="114" y="404" smooth="yes"/>
      <point x="140" y="403" smooth="yes"/>
      <point x="152" y="403" type="curve" smooth="yes"/>
      <point x="175" y="403" smooth="yes"/>
      <point x="189" y="409" smooth="yes"/>
      <point x="194" y="426" type="curve" smooth="yes"/>
      <point x="241" y="592" type="line" smooth="yes"/>
      <point x="260" y="661" smooth="yes"/>
      <point x="267" y="670" smooth="yes"/>
      <point x="300" y="670" type="curve" smooth="yes"/>
      <point x="333" y="670" smooth="yes"/>
      <point x="340" y="661" smooth="yes"/>
      <point x="359" y="592" type="curve" smooth="yes"/>
      <point x="406" y="426" type="line" smooth="yes"/>
      <point x="411" y="409" smooth="yes"/>
      <point x="425" y="403" smooth="yes"/>
      <point x="448" y="403" type="curve" smooth="yes"/>
      <point x="464" y="403"/>
      <point x="486" y="406"/>
      <point x="486" y="423" type="curve"/>
      <point x="437" y="603" type="line" smooth="yes"/>
      <point x="413" y="692" smooth="yes"/>
      <point x="397" y="740" smooth="yes"/>
    </contour>
  </outline>
</glyph>
<glyph name="underscore" format="1">
  <advance width="565"/>
  <unicode hex="005F"/>
  <outline>
    <contour>
      <point x="70" y="0" type="line" smooth="yes" name="hr00"/>
      <point x="55" y="0" smooth="yes"/>
      <point x="50" y="-15" smooth="yes"/>
      <point x="50" y="-35" type="curve" smooth="yes"/>
      <point x="50" y="-54" smooth="yes"/>
      <point x="55" y="-70" smooth="yes"/>
      <point x="70" y="-70" type="curve" smooth="yes"/>
      <point x="495" y="-70" type="line" smooth="yes"/>
      <point x="510" y="-70" smooth="yes"/>
      <point x="515" y="-55" smooth="yes"/>
      <point x="515" y="-35" type="curve" smooth="yes"/>
      <point x="515" y="-16" smooth="yes"/>
      <point x="510" y="0" smooth="yes"/>
      <point x="495" y="0" type="curve" smooth="yes"/>
    </contour>
  </outline>
</glyph>
<glyph name="grave" format="1">
  <advance width="305"/>
  <unicode hex="0060"/>
  <outline>
    <contour>
      <point x="255" y="667" type="curve" smooth="yes" name="hr00"/>
      <point x="265" y="667" smooth="yes"/>
      <point x="285" y="697" smooth="yes"/>
      <point x="285" y="713" type="curve" smooth="yes"/>
      <point x="285" y="719" smooth="yes"/>
      <point x="283" y="723" smooth="yes"/>
      <point x="275" y="728" type="curve" smooth="yes"/>
      <point x="109" y="842" type="line" smooth="yes"/>
      <point x="105" y="845" smooth="yes"/>
      <point x="102" y="846" smooth="yes"/>
      <point x="96" y="846" type="curve" smooth="yes"/>
      <point x="78" y="846" smooth="yes"/>
      <point x="50" y="804" smooth="yes"/>
      <point x="50" y="778" type="curve" smooth="yes"/>
      <point x="50" y="767" smooth="yes"/>
      <point x="53" y="762" smooth="yes"/>
      <point x="61" y="758" type="curve" smooth="yes"/>
      <point x="237" y="674" type="line" smooth="yes"/>
      <point x="251" y="668" smooth="yes"/>
      <point x="253" y="667" smooth="yes"/>
    </contour>
  </outline>
</glyph>
<glyph name="a" format="1">
  <advance width="603"/>
  <unicode hex="0061"/>
  <outline>
    <contour>
      <point x="363" y="0" type="line" smooth="yes"/>
      <point x="376" y="0" smooth="yes"/>
      <point x="383" y="12" smooth="yes"/>
      <point x="383" y="35" type="curve" smooth="yes"/>
      <point x="383" y="58" smooth="yes"/>
      <point x="376" y="70" smooth="yes"/>
      <point x="363" y="70" type="curve" smooth="yes"/>
      <point x="246" y="70" type="line" smooth="yes"/>
      <point x="180" y="70" smooth="yes"/>
      <point x="160" y="90" smooth="yes"/>
      <point x="160" y="158" type="curve" smooth="yes"/>
      <point x="160" y="166" type="line" smooth="yes"/>
      <point x="160" y="229" smooth="yes"/>
      <point x="176" y="247" smooth="yes"/>
      <point x="246" y="254" type="curve" smooth="yes"/>
      <point x="413" y="271" type="line"/>
      <point x="413" y="137" type="line" smooth="yes"/>
      <point x="413" y="58" smooth="yes"/>
      <point x="440" y="-10" smooth="yes"/>
      <point x="472" y="-10" type="curve" smooth="yes" name="hr01"/>
      <point x="491" y="-10" smooth="yes"/>
      <point x="523" y="14" smooth="yes"/>
      <point x="523" y="29" type="curve" smooth="yes"/>
      <point x="523" y="41" smooth="yes"/>
      <point x="493" y="63" smooth="yes"/>
      <point x="493" y="147" type="curve" smooth="yes"/>
      <point x="493" y="442" type="line" smooth="yes"/>
      <point x="493" y="544" smooth="yes"/>
      <point x="417" y="600" smooth="yes"/>
      <point x="277" y="600" type="curve" smooth="yes"/>
      <point x="140" y="600" type="line" smooth="yes"/>
      <point x="127" y="600" smooth="yes"/>
      <point x="120" y="588" smooth="yes"/>
      <point x="120" y="565" type="curve" smooth="yes"/>
      <point x="120" y="542" smooth="yes"/>
      <point x="127" y="530" smooth="yes"/>
      <point x="140" y="530" type="curve" smooth="yes"/>
      <point x="277" y="530" type="line" smooth="yes"/>
      <point x="366" y="530" smooth="yes"/>
      <point x="413" y="503" smooth="yes"/>
      <point x="413" y="452" type="curve" smooth="yes"/>
      <point x="413" y="341" type="line"/>
      <point x="240" y="324" type="line" smooth="yes"/>
      <point x="116" y="311" smooth="yes"/>
      <point x="80" y="276" smooth="yes"/>
      <point x="80" y="166" type="curve" smooth="yes"/>
      <point x="80" y="158" type="line" smooth="yes"/>
      <point x="80" y="44" smooth="yes"/>
      <point x="127" y="0" smooth="yes"/>
      <point x="246" y="0" type="curve" smooth="yes" name="hr02"/>
    </contour>
  </outline>
</glyph>
<glyph name="b" format="1">
  <advance width="643"/>
  <unicode hex="0062"/>
  <outline>
    <contour>
      <point x="327" y="530" type="line" smooth="yes" name="hr00"/>
      <point x="416" y="530" smooth="yes"/>
      <point x="463" y="503" smooth="yes"/>
      <point x="463" y="452" type="curve" smooth="yes"/>
      <point x="463" y="133" type="line" smooth="yes"/>
      <point x="463" y="82" smooth="yes"/>
      <point x="415" y="55" smooth="yes"/>
      <point x="326" y="55" type="curve" smooth="yes"/>
      <point x="237" y="55" smooth="yes"/>
      <point x="190" y="82" smooth="yes"/>
      <point x="190" y="133" type="curve" smooth="yes"/>
      <point x="190" y="777" type="line" smooth="yes"/>
      <point x="190" y="792" smooth="yes"/>
      <point x="176" y="800" smooth="yes"/>
      <point x="150" y="800" type="curve" smooth="yes"/>
      <point x="124" y="800" smooth="yes"/>
      <point x="110" y="792" smooth="yes"/>
      <point x="110" y="777" type="curve" smooth="yes"/>
      <point x="110" y="143" type="line" smooth="yes"/>
      <point x="110" y="41" smooth="yes"/>
      <point x="186" y="-15" smooth="yes"/>
      <point x="326" y="-15" type="curve" smooth="yes"/>
      <point x="466" y="-15" smooth="yes"/>
      <point x="543" y="41" smooth="yes"/>
      <point x="543" y="143" type="curve" smooth="yes"/>
      <point x="543" y="442" type="line" smooth="yes"/>
      <point x="543" y="544" smooth="yes"/>
      <point x="467" y="600" smooth="yes"/>
      <point x="327" y="600" type="curve" smooth="yes"/>
      <point x="240" y="600" type="line" smooth="yes"/>
      <point x="227" y="600" smooth="yes"/>
      <point x="220" y="588" smooth="yes"/>
      <point x="220" y="565" type="curve" smooth="yes"/>
      <point x="220" y="542" smooth="yes"/>
      <point x="227" y="530" smooth="yes"/>
      <point x="240" y="530" type="curve" smooth="yes"/>
    </contour>
  </outline>
</glyph>
<glyph name="c" format="1">
  <advance width="596"/>
  <unicode hex="0063"/>
  <outline>
    <contour>
      <point x="180" y="467" type="line" smooth="yes" name="hr00"/>
      <point x="180" y="518" smooth="yes"/>
      <point x="225" y="545" smooth="yes"/>
      <point x="308" y="545" type="curve" smooth="yes"/>
      <point x="392" y="545" smooth="yes"/>
      <point x="436" y="518" smooth="yes"/>
      <point x="436" y="467" type="curve" smooth="yes"/>
      <point x="436" y="425" type="line" smooth="yes"/>
      <point x="436" y="410" smooth="yes"/>
      <point x="450" y="402" smooth="yes"/>
      <point x="476" y="402" type="curve" smooth="yes"/>
      <point x="502" y="402" smooth="yes"/>
      <point x="516" y="410" smooth="yes"/>
      <point x="516" y="425" type="curve" smooth="yes"/>
      <point x="516" y="457" type="line" smooth="yes"/>
      <point x="516" y="560" smooth="yes"/>
      <point x="443" y="615" smooth="yes"/>
      <point x="308" y="615" type="curve" smooth="yes"/>
      <point x="173" y="615" smooth="yes"/>
      <point x="100" y="559" smooth="yes"/>
      <point x="100" y="457" type="curve" smooth="yes"/>
      <point x="100" y="143" type="line" smooth="yes"/>
      <point x="100" y="41" smooth="yes"/>
      <point x="173" y="-15" smooth="yes"/>
      <point x="308" y="-15" type="curve" smooth="yes"/>
      <point x="443" y="-15" smooth="yes"/>
      <point x="516" y="40" smooth="yes"/>
      <point x="516" y="143" type="curve" smooth="yes"/>
      <point x="516" y="175" type="line" smooth="yes"/>
      <point x="516" y="190" smooth="yes"/>
      <point x="502" y="198" smooth="yes"/>
      <point x="476" y="198" type="curve" smooth="yes"/>
      <point x="450" y="198" smooth="yes"/>
      <point x="436" y="190" smooth="yes"/>
      <point x="436" y="175" type="curve" smooth="yes"/>
      <point x="436" y="133" type="line" smooth="yes"/>
      <point x="436" y="82" smooth="yes"/>
      <point x="392" y="55" smooth="yes"/>
      <point x="308" y="55" type="curve" smooth="yes"/>
      <point x="225" y="55" smooth="yes"/>
      <point x="180" y="82" smooth="yes"/>
      <point x="180" y="133" type="curve" smooth="yes"/>
    </contour>
  </outline>
</glyph>
<glyph name="d" format="1">
  <advance width="643"/>
  <unicode hex="0064"/>
  <outline>
    <contour>
      <point x="533" y="777" type="line" smooth="yes" name="hr00"/>
      <point x="533" y="792" smooth="yes"/>
      <point x="519" y="800" smooth="yes"/>
      <point x="493" y="800" type="curve" smooth="yes"/>
      <point x="467" y="800" smooth="yes"/>
      <point x="453" y="792" smooth="yes"/>
      <point x="453" y="777" type="curve" smooth="yes"/>
      <point x="453" y="133" type="line" smooth="yes"/>
      <point x="453" y="82" smooth="yes"/>
      <point x="406" y="55" smooth="yes"/>
      <point x="317" y="55" type="curve" smooth="yes"/>
      <point x="228" y="55" smooth="yes"/>
      <point x="180" y="82" smooth="yes"/>
      <point x="180" y="133" type="curve" smooth="yes"/>
      <point x="180" y="452" type="line" smooth="yes"/>
      <point x="180" y="503" smooth="yes"/>
      <point x="227" y="530" smooth="yes"/>
      <point x="316" y="530" type="curve" smooth="yes"/>
      <point x="403" y="530" type="line" smooth="yes"/>
      <point x="416" y="530" smooth="yes"/>
      <point x="423" y="542" smooth="yes"/>
      <point x="423" y="565" type="curve" smooth="yes"/>
      <point x="423" y="588" smooth="yes"/>
      <point x="416" y="600" smooth="yes"/>
      <point x="403" y="600" type="curve" smooth="yes"/>
      <point x="316" y="600" type="line" smooth="yes"/>
      <point x="176" y="600" smooth="yes"/>
      <point x="100" y="544" smooth="yes"/>
      <point x="100" y="442" type="curve" smooth="yes"/>
      <point x="100" y="143" type="line" smooth="yes"/>
      <point x="100" y="41" smooth="yes"/>
      <point x="177" y="-15" smooth="yes"/>
      <point x="317" y="-15" type="curve" smooth="yes"/>
      <point x="457" y="-15" smooth="yes"/>
      <point x="533" y="41" smooth="yes"/>
      <point x="533" y="143" type="curve" smooth="yes"/>
    </contour>
  </outline>
</glyph>
<glyph name="e" format="1">
  <advance width="638"/>
  <unicode hex="0065"/>
  <outline>
    <contour>
      <point x="538" y="459" type="line" smooth="yes" name="hr00"/>
      <point x="538" y="566" smooth="yes"/>
      <point x="473" y="615" smooth="yes"/>
      <point x="333" y="615" type="curve" smooth="yes"/>
      <point x="183" y="615" smooth="yes"/>
      <point x="100" y="559" smooth="yes"/>
      <point x="100" y="457" type="curve" smooth="yes"/>
      <point x="100" y="143" type="line" smooth="yes"/>
      <point x="100" y="42" smooth="yes"/>
      <point x="178" y="-15" smooth="yes"/>
      <point x="318" y="-15" type="curve" smooth="yes"/>
      <point x="464" y="-15" smooth="yes"/>
      <point x="538" y="35" smooth="yes"/>
      <point x="538" y="133" type="curve" smooth="yes"/>
      <point x="538" y="161" type="line" smooth="yes"/>
      <point x="538" y="176" smooth="yes"/>
      <point x="524" y="184" smooth="yes"/>
      <point x="498" y="184" type="curve" smooth="yes"/>
      <point x="472" y="184" smooth="yes"/>
      <point x="458" y="176" smooth="yes"/>
      <point x="458" y="161" type="curve" smooth="yes"/>
      <point x="458" y="123" type="line" smooth="yes"/>
      <point x="458" y="77" smooth="yes"/>
      <point x="411" y="55" smooth="yes"/>
      <point x="310" y="55" type="curve" smooth="yes"/>
      <point x="224" y="55" smooth="yes"/>
      <point x="180" y="81" smooth="yes"/>
      <point x="180" y="133" type="curve" smooth="yes"/>
      <point x="180" y="252" type="line"/>
      <point x="375" y="271" type="line" smooth="yes"/>
      <point x="502" y="283" smooth="yes"/>
      <point x="538" y="319" smooth="yes"/>
      <point x="538" y="429" type="curve" smooth="yes"/>
    </contour>
    <contour>
      <point x="180" y="467" type="line" smooth="yes"/>
      <point x="180" y="517" smooth="yes"/>
      <point x="229" y="545" smooth="yes"/>
      <point x="318" y="545" type="curve" smooth="yes"/>
      <point x="409" y="545" smooth="yes"/>
      <point x="458" y="518" smooth="yes"/>
      <point x="458" y="467" type="curve" smooth="yes"/>
      <point x="458" y="429" type="line" smooth="yes"/>
      <point x="458" y="365" smooth="yes"/>
      <point x="441" y="348" smooth="yes"/>
      <point x="368" y="341" type="curve" smooth="yes"/>
      <point x="180" y="322" type="line"/>
    </contour>
  </outline>
</glyph>
<glyph name="f" format="1">
  <advance width="385"/>
  <unicode hex="0066"/>
  <outline>
    <contour>
      <point x="80" y="600" type="line" smooth="yes" name="hr00"/>
      <point x="67" y="600" smooth="yes"/>
      <point x="60" y="588" smooth="yes"/>
      <point x="60" y="565" type="curve" smooth="yes"/>
      <point x="60" y="542" smooth="yes"/>
      <point x="67" y="530" smooth="yes"/>
      <point x="80" y="530" type="curve" smooth="yes"/>
      <point x="150" y="530" type="line"/>
      <point x="150" y="-93" type="line" smooth="yes"/>
      <point x="150" y="-177" smooth="yes"/>
      <point x="120" y="-199" smooth="yes"/>
      <point x="120" y="-211" type="curve" smooth="yes"/>
      <point x="120" y="-226" smooth="yes"/>
      <point x="152" y="-250" smooth="yes"/>
      <point x="171" y="-250" type="curve" smooth="yes"/>
      <point x="203" y="-250" smooth="yes"/>
      <point x="230" y="-182" smooth="yes"/>
      <point x="230" y="-103" type="curve" smooth="yes"/>
      <point x="230" y="530" type="line"/>
      <point x="345" y="530" type="line" smooth="yes"/>
      <point x="358" y="530" smooth="yes"/>
      <point x="365" y="542" smooth="yes"/>
      <point x="365" y="565" type="curve" smooth="yes"/>
      <point x="365" y="588" smooth="yes"/>
      <point x="358" y="600" smooth="yes"/>
      <point x="345" y="600" type="curve" smooth="yes"/>
      <point x="230" y="600" type="line"/>
      <point x="230" y="667" type="line" smooth="yes"/>
      <point x="230" y="720" smooth="yes"/>
      <point x="271" y="745" smooth="yes"/>
      <point x="356" y="745" type="curve" smooth="yes"/>
      <point x="391" y="745" type="line" smooth="yes"/>
      <point x="404" y="745" smooth="yes"/>
      <point x="411" y="757" smooth="yes"/>
      <point x="411" y="780" type="curve" smooth="yes"/>
      <point x="411" y="803" smooth="yes"/>
      <point x="404" y="815" smooth="yes"/>
      <point x="391" y="815" type="curve" smooth="yes"/>
      <point x="356" y="815" type="line" smooth="yes"/>
      <point x="220" y="815" smooth="yes"/>
      <point x="150" y="762" smooth="yes"/>
      <point x="150" y="657" type="curve" smooth="yes"/>
      <point x="150" y="600" type="line"/>
    </contour>
  </outline>
</glyph>
<glyph name="g" format="1">
  <advance width="643"/>
  <unicode hex="0067"/>
  <outline>
    <contour>
      <point x="533" y="442" type="line" smooth="yes" name="hr00"/>
      <point x="533" y="477"/>
      <point x="524" y="507"/>
      <point x="506" y="531" type="curve"/>
      <point x="571" y="536" smooth="yes"/>
      <point x="614" y="554" smooth="yes"/>
      <point x="614" y="579" type="curve" smooth="yes"/>
      <point x="614" y="598" smooth="yes"/>
      <point x="589" y="630" smooth="yes"/>
      <point x="575" y="630" type="curve" smooth="yes"/>
      <point x="563" y="630" smooth="yes"/>
      <point x="541" y="600" smooth="yes"/>
      <point x="457" y="600" type="curve" smooth="yes"/>
      <point x="317" y="600" type="line" smooth="yes"/>
      <point x="177" y="600" smooth="yes"/>
      <point x="100" y="544" smooth="yes"/>
      <point x="100" y="442" type="curve" smooth="yes"/>
      <point x="100" y="176" type="line" smooth="yes"/>
      <point x="100" y="50" smooth="yes"/>
      <point x="145" y="0" smooth="yes"/>
      <point x="258" y="0" type="curve" smooth="yes"/>
      <point x="337" y="0" type="line" smooth="yes"/>
      <point x="418" y="0" smooth="yes"/>
      <point x="453" y="-23" smooth="yes"/>
      <point x="453" y="-78" type="curve" smooth="yes"/>
      <point x="453" y="-102" type="line" smooth="yes"/>
      <point x="453" y="-157" smooth="yes"/>
      <point x="418" y="-180" smooth="yes"/>
      <point x="337" y="-180" type="curve" smooth="yes"/>
      <point x="110" y="-180" type="line" smooth="yes"/>
      <point x="97" y="-180" smooth="yes"/>
      <point x="90" y="-192" smooth="yes"/>
      <point x="90" y="-215" type="curve" smooth="yes"/>
      <point x="90" y="-238" smooth="yes"/>
      <point x="97" y="-250" smooth="yes"/>
      <point x="110" y="-250" type="curve" smooth="yes"/>
      <point x="337" y="-250" type="line" smooth="yes"/>
      <point x="470" y="-250" smooth="yes"/>
      <point x="533" y="-199" smooth="yes"/>
      <point x="533" y="-92" type="curve" smooth="yes"/>
      <point x="533" y="-88" type="line" smooth="yes"/>
      <point x="533" y="19" smooth="yes"/>
      <point x="470" y="70" smooth="yes"/>
      <point x="337" y="70" type="curve" smooth="yes"/>
      <point x="258" y="70" type="line" smooth="yes"/>
      <point x="201" y="70" smooth="yes"/>
      <point x="180" y="99" smooth="yes"/>
      <point x="180" y="176" type="curve" smooth="yes"/>
      <point x="180" y="452" type="line" smooth="yes"/>
      <point x="180" y="503" smooth="yes"/>
      <point x="228" y="530" smooth="yes"/>
      <point x="317" y="530" type="curve" smooth="yes"/>
      <point x="410" y="530" smooth="yes"/>
      <point x="453" y="500" smooth="yes"/>
      <point x="453" y="452" type="curve" smooth="yes"/>
      <point x="453" y="120" type="line" smooth="yes"/>
      <point x="453" y="105" smooth="yes"/>
      <point x="467" y="97" smooth="yes"/>
      <point x="493" y="97" type="curve" smooth="yes"/>
      <point x="519" y="97" smooth="yes"/>
      <point x="533" y="105" smooth="yes"/>
      <point x="533" y="120" type="curve" smooth="yes"/>
    </contour>
  </outline>
</glyph>
<glyph name="h" format="1">
  <advance width="663"/>
  <unicode hex="0068"/>
  <outline>
    <contour>
      <point x="553" y="457" type="line" smooth="yes" name="hr00"/>
      <point x="553" y="559" smooth="yes"/>
      <point x="476" y="615" smooth="yes"/>
      <point x="336" y="615" type="curve" smooth="yes"/>
      <point x="281" y="615"/>
      <point x="235" y="600"/>
      <point x="200" y="574" type="curve"/>
      <point x="200" y="777" type="line" smooth="yes"/>
      <point x="200" y="792" smooth="yes"/>
      <point x="186" y="800" smooth="yes"/>
      <point x="160" y="800" type="curve" smooth="yes"/>
      <point x="134" y="800" smooth="yes"/>
      <point x="120" y="792" smooth="yes"/>
      <point x="120" y="777" type="curve" smooth="yes"/>
      <point x="120" y="18" type="line" smooth="yes"/>
      <point x="120" y="3" smooth="yes"/>
      <point x="134" y="-5" smooth="yes"/>
      <point x="160" y="-5" type="curve" smooth="yes"/>
      <point x="186" y="-5" smooth="yes"/>
      <point x="200" y="3" smooth="yes"/>
      <point x="200" y="18" type="curve" smooth="yes"/>
      <point x="200" y="471" type="line" smooth="yes"/>
      <point x="200" y="519" smooth="yes"/>
      <point x="249" y="545" smooth="yes"/>
      <point x="336" y="545" type="curve" smooth="yes"/>
      <point x="425" y="545" smooth="yes"/>
      <point x="473" y="518" smooth="yes"/>
      <point x="473" y="467" type="curve" smooth="yes"/>
      <point x="473" y="18" type="line" smooth="yes"/>
      <point x="473" y="3" smooth="yes"/>
      <point x="487" y="-5" smooth="yes"/>
      <point x="513" y="-5" type="curve" smooth="yes"/>
      <point x="539" y="-5" smooth="yes"/>
      <point x="553" y="3" smooth="yes"/>
      <point x="553" y="18" type="curve" smooth="yes"/>
    </contour>
  </outline>
</glyph>
<glyph name="i" format="1">
  <advance width="300"/>
  <unicode hex="0069"/>
  <outline>
    <contour>
      <point x="190" y="582" type="line" name="hr00"/>
      <point x="190" y="597" smooth="yes"/>
      <point x="176" y="605" smooth="yes"/>
      <point x="150" y="605" type="curve" smooth="yes"/>
      <point x="124" y="605" smooth="yes"/>
      <point x="110" y="597" smooth="yes"/>
      <point x="110" y="582" type="curve" smooth="yes"/>
      <point x="110" y="107" type="line" smooth="yes"/>
      <point x="110" y="50" smooth="yes"/>
      <point x="140" y="-10" smooth="yes"/>
      <point x="169" y="-10" type="curve" smooth="yes"/>
      <point x="188" y="-10" smooth="yes"/>
      <point x="220" y="14" smooth="yes"/>
      <point x="220" y="29" type="curve" smooth="yes"/>
      <point x="220" y="41" smooth="yes"/>
      <point x="190" y="63" smooth="yes"/>
      <point x="190" y="117" type="curve" smooth="yes"/>
    </contour>
    <contour>
      <point x="193" y="708" type="line" smooth="yes"/>
      <point x="193" y="692" smooth="yes"/>
      <point x="178" y="683" smooth="yes"/>
      <point x="150" y="683" type="curve" smooth="yes"/>
      <point x="121" y="683" smooth="yes"/>
      <point x="106" y="691" smooth="yes"/>
      <point x="106" y="708" type="curve" smooth="yes"/>
      <point x="106" y="795" type="line" smooth="yes"/>
      <point x="106" y="811" smooth="yes"/>
      <point x="121" y="820" smooth="yes"/>
      <point x="149" y="820" type="curve" smooth="yes"/>
      <point x="178" y="820" smooth="yes"/>
      <point x="193" y="812" smooth="yes"/>
      <point x="193" y="795" type="curve" smooth="yes"/>
    </contour>
  </outline>
</glyph>
<glyph name="l" format="1">
  <advance width="300"/>
  <unicode hex="006C"/>
  <outline>
    <contour>
      <point x="190" y="777" type="line" smooth="yes" name="hr00"/>
      <point x="190" y="792" smooth="yes"/>
      <point x="176" y="800" smooth="yes"/>
      <point x="150" y="800" type="curve" smooth="yes"/>
      <point x="124" y="800" smooth="yes"/>
      <point x="110" y="792" smooth="yes"/>
      <point x="110" y="777" type="curve" smooth="yes"/>
      <point x="110" y="107" type="line" smooth="yes"/>
      <point x="110" y="50" smooth="yes"/>
      <point x="140" y="-10" smooth="yes"/>
      <point x="169" y="-10" type="curve" smooth="yes"/>
      <point x="188" y="-10" smooth="yes"/>
      <point x="220" y="14" smooth="yes"/>
      <point x="220" y="29" type="curve" smooth="yes"/>
      <point x="220" y="41" smooth="yes"/>
      <point x="190" y="63" smooth="yes"/>
      <point x="190" y="117" type="curve" smooth="yes"/>
    </contour>
  </outline>
</glyph>
<glyph name="m" format="1">
  <advance width="966"/>
  <unicode hex="006D"/>
  <outline>
    <contour>
      <point x="110" y="18" type="line" smooth="yes" name="hr00"/>
      <point x="110" y="3" smooth="yes"/>
      <point x="124" y="-5" smooth="yes"/>
      <point x="150" y="-5" type="curve" smooth="yes"/>
      <point x="176" y="-5" smooth="yes"/>
      <point x="190" y="3" smooth="yes"/>
      <point x="190" y="18" type="curve" smooth="yes"/>
      <point x="190" y="467" type="line" smooth="yes"/>
      <point x="190" y="518" smooth="yes"/>
      <point x="234" y="545" smooth="yes"/>
      <point x="316" y="545" type="curve" smooth="yes"/>
      <point x="398" y="545" smooth="yes"/>
      <point x="443" y="517" smooth="yes"/>
      <point x="443" y="467" type="curve" smooth="yes"/>
      <point x="443" y="18" type="line" smooth="yes"/>
      <point x="443" y="3" smooth="yes"/>
      <point x="457" y="-5" smooth="yes"/>
      <point x="483" y="-5" type="curve" smooth="yes"/>
      <point x="509" y="-5" smooth="yes"/>
      <point x="523" y="3" smooth="yes"/>
      <point x="523" y="18" type="curve" smooth="yes"/>
      <point x="523" y="467" type="line" smooth="yes"/>
      <point x="523" y="518" smooth="yes"/>
      <point x="567" y="545" smooth="yes"/>
      <point x="649" y="545" type="curve" smooth="yes"/>
      <point x="731" y="545" smooth="yes"/>
      <point x="776" y="517" smooth="yes"/>
      <point x="776" y="467" type="curve" smooth="yes"/>
      <point x="776" y="18" type="line" smooth="yes"/>
      <point x="776" y="3" smooth="yes"/>
      <point x="790" y="-5" smooth="yes"/>
      <point x="816" y="-5" type="curve" smooth="yes"/>
      <point x="842" y="-5" smooth="yes"/>
      <point x="856" y="3" smooth="yes"/>
      <point x="856" y="18" type="curve" smooth="yes"/>
      <point x="856" y="457" type="line" smooth="yes"/>
      <point x="856" y="558" smooth="yes"/>
      <point x="781" y="615" smooth="yes"/>
      <point x="649" y="615" type="curve" smooth="yes"/>
      <point x="573" y="615"/>
      <point x="517" y="596"/>
      <point x="482" y="561" type="curve"/>
      <point x="447" y="596" smooth="yes"/>
      <point x="391" y="615" smooth="yes"/>
      <point x="316" y="615" type="curve" smooth="yes"/>
      <point x="184" y="615" smooth="yes"/>
      <point x="110" y="558" smooth="yes"/>
      <point x="110" y="457" type="curve" smooth="yes"/>
    </contour>
  </outline>
</glyph>
<glyph name="n" format="1">
  <advance width="653"/>
  <unicode hex="006E"/>
  <outline>
    <contour>
      <point x="543" y="457" type="line" smooth="yes" name="hr00"/>
      <point x="543" y="559" smooth="yes"/>
      <point x="466" y="615" smooth="yes"/>
      <point x="326" y="615" type="curve" smooth="yes"/>
      <point x="186" y="615" smooth="yes"/>
      <point x="110" y="559" smooth="yes"/>
      <point x="110" y="457" type="curve" smooth="yes"/>
      <point x="110" y="18" type="line" smooth="yes"/>
      <point x="110" y="3" smooth="yes"/>
      <point x="124" y="-5" smooth="yes"/>
      <point x="150" y="-5" type="curve" smooth="yes"/>
      <point x="176" y="-5" smooth="yes"/>
      <point x="190" y="3" smooth="yes"/>
      <point x="190" y="18" type="curve" smooth="yes"/>
      <point x="190" y="467" type="line" smooth="yes"/>
      <point x="190" y="518" smooth="yes"/>
      <point x="237" y="545" smooth="yes"/>
      <point x="326" y="545" type="curve" smooth="yes"/>
      <point x="415" y="545" smooth="yes"/>
      <point x="463" y="518" smooth="yes"/>
      <point x="463" y="467" type="curve" smooth="yes"/>
      <point x="463" y="18" type="line" smooth="yes"/>
      <point x="463" y="3" smooth="yes"/>
      <point x="477" y="-5" smooth="yes"/>
      <point x="503" y="-5" type="curve" smooth="yes"/>
      <point x="529" y="-5" smooth="yes"/>
      <point x="543" y="3" smooth="yes"/>
      <point x="543" y="18" type="curve" smooth="yes"/>
    </contour>
  </outline>
</glyph>
<glyph name="o" format="1">
  <advance width="633"/>
  <unicode hex="006F"/>
  <outline>
    <contour>
      <point x="453" y="133" type="line" smooth="yes" name="hr00"/>
      <point x="453" y="82" smooth="yes"/>
      <point x="406" y="55" smooth="yes"/>
      <point x="317" y="55" type="curve" smooth="yes"/>
      <point x="228" y="55" smooth="yes"/>
      <point x="180" y="82" smooth="yes"/>
      <point x="180" y="133" type="curve" smooth="yes"/>
      <point x="180" y="467" type="line" smooth="yes"/>
      <point x="180" y="518" smooth="yes"/>
      <point x="227" y="545" smooth="yes"/>
      <point x="316" y="545" type="curve" smooth="yes"/>
      <point x="405" y="545" smooth="yes"/>
      <point x="453" y="518" smooth="yes"/>
      <point x="453" y="467" type="curve" smooth="yes"/>
    </contour>
    <contour>
      <point x="533" y="457" type="line" smooth="yes"/>
      <point x="533" y="559" smooth="yes"/>
      <point x="456" y="615" smooth="yes"/>
      <point x="316" y="615" type="curve" smooth="yes"/>
      <point x="176" y="615" smooth="yes"/>
      <point x="100" y="559" smooth="yes"/>
      <point x="100" y="457" type="curve" smooth="yes"/>
      <point x="100" y="143" type="line" smooth="yes"/>
      <point x="100" y="41" smooth="yes"/>
      <point x="177" y="-15" smooth="yes"/>
      <point x="317" y="-15" type="curve" smooth="yes"/>
      <point x="457" y="-15" smooth="yes"/>
      <point x="533" y="41" smooth="yes"/>
      <point x="533" y="143" type="curve" smooth="yes"/>
    </contour>
  </outline>
</glyph>
<glyph name="p" format="1">
  <advance width="643"/>
  <unicode hex="0070"/>
  <outline>
    <contour>
      <point x="240" y="70" type="line" smooth="yes" name="hr00"/>
      <point x="227" y="70" smooth="yes"/>
      <point x="220" y="58" smooth="yes"/>
      <point x="220" y="35" type="curve" smooth="yes"/>
      <point x="220" y="12" smooth="yes"/>
      <point x="227" y="0" smooth="yes"/>
      <point x="240" y="0" type="curve" smooth="yes"/>
      <point x="327" y="0" type="line" smooth="yes"/>
      <point x="467" y="0" smooth="yes"/>
      <point x="543" y="56" smooth="yes"/>
      <point x="543" y="158" type="curve" smooth="yes"/>
      <point x="543" y="457" type="line" smooth="yes"/>
      <point x="543" y="559" smooth="yes"/>
      <point x="466" y="615" smooth="yes"/>
      <point x="326" y="615" type="curve" smooth="yes"/>
      <point x="186" y="615" smooth="yes"/>
      <point x="110" y="559" smooth="yes"/>
      <point x="110" y="457" type="curve" smooth="yes"/>
      <point x="110" y="-232" type="line" smooth="yes"/>
      <point x="110" y="-247" smooth="yes"/>
      <point x="124" y="-255" smooth="yes"/>
      <point x="150" y="-255" type="curve" smooth="yes"/>
      <point x="176" y="-255" smooth="yes"/>
      <point x="190" y="-247" smooth="yes"/>
      <point x="190" y="-232" type="curve" smooth="yes"/>
      <point x="190" y="467" type="line" smooth="yes"/>
      <point x="190" y="518" smooth="yes"/>
      <point x="237" y="545" smooth="yes"/>
      <point x="326" y="545" type="curve" smooth="yes"/>
      <point x="415" y="545" smooth="yes"/>
      <point x="463" y="518" smooth="yes"/>
      <point x="463" y="467" type="curve" smooth="yes"/>
      <point x="463" y="148" type="line" smooth="yes"/>
      <point x="463" y="97" smooth="yes"/>
      <point x="416" y="70" smooth="yes"/>
      <point x="327" y="70" type="curve" smooth="yes"/>
    </contour>
  </outline>
</glyph>
<glyph name="q" format="1">
  <advance width="643"/>
  <unicode hex="0071"/>
  <outline>
    <contour>
      <point x="316" y="70" type="line" smooth="yes" name="hr00"/>
      <point x="227" y="70" smooth="yes"/>
      <point x="180" y="97" smooth="yes"/>
      <point x="180" y="148" type="curve" smooth="yes"/>
      <point x="180" y="467" type="line" smooth="yes"/>
      <point x="180" y="518" smooth="yes"/>
      <point x="228" y="545" smooth="yes"/>
      <point x="317" y="545" type="curve" smooth="yes"/>
      <point x="406" y="545" smooth="yes"/>
      <point x="453" y="518" smooth="yes"/>
      <point x="453" y="467" type="curve" smooth="yes"/>
      <point x="453" y="-232" type="line" smooth="yes"/>
      <point x="453" y="-247" smooth="yes"/>
      <point x="467" y="-255" smooth="yes"/>
      <point x="493" y="-255" type="curve" smooth="yes"/>
      <point x="519" y="-255" smooth="yes"/>
      <point x="533" y="-247" smooth="yes"/>
      <point x="533" y="-232" type="curve" smooth="yes"/>
      <point x="533" y="457" type="line" smooth="yes"/>
      <point x="533" y="559" smooth="yes"/>
      <point x="457" y="615" smooth="yes"/>
      <point x="317" y="615" type="curve" smooth="yes"/>
      <point x="177" y="615" smooth="yes"/>
      <point x="100" y="559" smooth="yes"/>
      <point x="100" y="457" type="curve" smooth="yes"/>
      <point x="100" y="158" type="line" smooth="yes"/>
      <point x="100" y="56" smooth="yes"/>
      <point x="176" y="0" smooth="yes"/>
      <point x="316" y="0" type="curve" smooth="yes"/>
      <point x="403" y="0" type="line" smooth="yes"/>
      <point x="416" y="0" smooth="yes"/>
      <point x="423" y="12" smooth="yes"/>
      <point x="423" y="35" type="curve" smooth="yes"/>
      <point x="423" y="58" smooth="yes"/>
      <point x="416" y="70" smooth="yes"/>
      <point x="403" y="70" type="curve" smooth="yes"/>
    </contour>
  </outline>
</glyph>
<glyph name="r" format="1">
  <advance width="476"/>
  <unicode hex="0072"/>
  <outline>
    <contour>
      <point x="376" y="417" type="line" smooth="yes" name="hr00"/>
      <point x="376" y="402" smooth="yes"/>
      <point x="390" y="394" smooth="yes"/>
      <point x="416" y="394" type="curve" smooth="yes"/>
      <point x="442" y="394" smooth="yes"/>
      <point x="456" y="402" smooth="yes"/>
      <point x="456" y="417" type="curve" smooth="yes"/>
      <point x="456" y="459" type="line" smooth="yes"/>
      <point x="456" y="561" smooth="yes"/>
      <point x="396" y="615" smooth="yes"/>
      <point x="283" y="615" type="curve" smooth="yes"/>
      <point x="171" y="615" smooth="yes"/>
      <point x="110" y="559" smooth="yes"/>
      <point x="110" y="457" type="curve" smooth="yes"/>
      <point x="110" y="8" type="line" smooth="yes"/>
      <point x="110" y="-7" smooth="yes"/>
      <point x="124" y="-15" smooth="yes"/>
      <point x="150" y="-15" type="curve" smooth="yes"/>
      <point x="176" y="-15" smooth="yes"/>
      <point x="190" y="-7" smooth="yes"/>
      <point x="190" y="8" type="curve" smooth="yes"/>
      <point x="190" y="467" type="line" smooth="yes"/>
      <point x="190" y="517" smooth="yes"/>
      <point x="223" y="545" smooth="yes"/>
      <point x="283" y="545" type="curve" smooth="yes"/>
      <point x="344" y="545" smooth="yes"/>
      <point x="376" y="518" smooth="yes"/>
      <point x="376" y="467" type="curve" smooth="yes"/>
    </contour>
  </outline>
</glyph>
<glyph name="s" format="1">
  <advance width="612"/>
  <unicode hex="0073"/>
  <outline>
    <contour>
      <point x="440" y="427" type="line" smooth="yes"/>
      <point x="440" y="411" smooth="yes"/>
      <point x="454" y="403" smooth="yes"/>
      <point x="484" y="403" type="curve" smooth="yes"/>
      <point x="507" y="403" smooth="yes"/>
      <point x="519" y="410" smooth="yes"/>
      <point x="519" y="424" type="curve" smooth="yes"/>
      <point x="519" y="459" type="line" smooth="yes"/>
      <point x="519" y="562" smooth="yes"/>
      <point x="447" y="615" smooth="yes"/>
      <point x="309" y="615" type="curve" smooth="yes"/>
      <point x="180" y="615" smooth="yes"/>
      <point x="110" y="562" smooth="yes"/>
      <point x="107" y="463" type="curve" smooth="yes"/>
      <point x="107" y="451" type="line" smooth="yes"/>
      <point x="107" y="337" smooth="yes"/>
      <point x="130" y="309" smooth="yes"/>
      <point x="251" y="280" type="curve" smooth="yes"/>
      <point x="339" y="258" type="line" smooth="yes"/>
      <point x="417" y="238" smooth="yes"/>
      <point x="443" y="218" smooth="yes"/>
      <point x="443" y="178" type="curve" smooth="yes"/>
      <point x="443" y="125" type="line" smooth="yes"/>
      <point x="443" y="79" smooth="yes"/>
      <point x="396" y="55" smooth="yes"/>
      <point x="306" y="55" type="curve" smooth="yes"/>
      <point x="211" y="55" smooth="yes"/>
      <point x="169" y="77" smooth="yes"/>
      <point x="169" y="128" type="curve" smooth="yes" name="hr01"/>
      <point x="169" y="173" type="line" smooth="yes"/>
      <point x="169" y="188" smooth="yes"/>
      <point x="153" y="198" smooth="yes"/>
      <point x="130" y="198" type="curve" smooth="yes"/>
      <point x="100" y="198" smooth="yes"/>
      <point x="90" y="192" smooth="yes"/>
      <point x="90" y="176" type="curve" smooth="yes"/>
      <point x="90" y="144" type="line" smooth="yes"/>
      <point x="90" y="37" smooth="yes"/>
      <point x="160" y="-15" smooth="yes"/>
      <point x="305" y="-15" type="curve" smooth="yes"/>
      <point x="445" y="-15" smooth="yes"/>
      <point x="522" y="37" smooth="yes"/>
      <point x="522" y="132" type="curve" smooth="yes"/>
      <point x="522" y="168" type="line" smooth="yes"/>
      <point x="522" y="263" smooth="yes"/>
      <point x="491" y="291" smooth="yes"/>
      <point x="347" y="328" type="curve" smooth="yes"/>
      <point x="260" y="350" type="line" smooth="yes"/>
      <point x="196" y="366" smooth="yes"/>
      <point x="186" y="379" smooth="yes"/>
      <point x="186" y="448" type="curve" smooth="yes" name="hr02"/>
      <point x="186" y="470" type="line" smooth="yes"/>
      <point x="186" y="518" smooth="yes"/>
      <point x="232" y="545" smooth="yes"/>
      <point x="311" y="545" type="curve" smooth="yes"/>
      <point x="396" y="545" smooth="yes"/>
      <point x="440" y="518" smooth="yes"/>
      <point x="440" y="466" type="curve" smooth="yes"/>
    </contour>
  </outline>
</glyph>
<glyph name="t" format="1">
  <advance width="385"/>
  <unicode hex="0074"/>
  <outline>
    <contour>
      <point x="230" y="717" type="line" smooth="yes" name="hr00"/>
      <point x="230" y="732" smooth="yes"/>
      <point x="216" y="740" smooth="yes"/>
      <point x="190" y="740" type="curve" smooth="yes"/>
      <point x="164" y="740" smooth="yes"/>
      <point x="150" y="732" smooth="yes"/>
      <point x="150" y="717" type="curve" smooth="yes"/>
      <point x="150" y="600" type="line"/>
      <point x="70" y="600" type="line" smooth="yes"/>
      <point x="57" y="600" smooth="yes"/>
      <point x="50" y="588" smooth="yes"/>
      <point x="50" y="565" type="curve" smooth="yes"/>
      <point x="50" y="542" smooth="yes"/>
      <point x="57" y="530" smooth="yes"/>
      <point x="70" y="530" type="curve" smooth="yes"/>
      <point x="150" y="530" type="line"/>
      <point x="150" y="107" type="line" smooth="yes"/>
      <point x="150" y="50" smooth="yes"/>
      <point x="180" y="-10" smooth="yes"/>
      <point x="209" y="-10" type="curve" smooth="yes"/>
      <point x="228" y="-10" smooth="yes"/>
      <point x="260" y="14" smooth="yes"/>
      <point x="260" y="29" type="curve" smooth="yes"/>
      <point x="260" y="41" smooth="yes"/>
      <point x="230" y="63" smooth="yes"/>
      <point x="230" y="117" type="curve" smooth="yes"/>
      <point x="230" y="530" type="line"/>
      <point x="335" y="530" type="line" smooth="yes"/>
      <point x="348" y="530" smooth="yes"/>
      <point x="355" y="542" smooth="yes"/>
      <point x="355" y="565" type="curve" smooth="yes"/>
      <point x="355" y="588" smooth="yes"/>
      <point x="348" y="600" smooth="yes"/>
      <point x="335" y="600" type="curve" smooth="yes"/>
      <point x="230" y="600" type="line"/>
    </contour>
  </outline>
</glyph>
<glyph name="u" format="1">
  <advance width="653"/>
  <unicode hex="0075"/>
  <outline>
    <contour>
      <point x="543" y="582" type="line" smooth="yes" name="hr00"/>
      <point x="543" y="597" smooth="yes"/>
      <point x="529" y="605" smooth="yes"/>
      <point x="503" y="605" type="curve" smooth="yes"/>
      <point x="477" y="605" smooth="yes"/>
      <point x="463" y="597" smooth="yes"/>
      <point x="463" y="582" type="curve" smooth="yes"/>
      <point x="463" y="133" type="line" smooth="yes"/>
      <point x="463" y="82" smooth="yes"/>
      <point x="415" y="55" smooth="yes"/>
      <point x="326" y="55" type="curve" smooth="yes"/>
      <point x="237" y="55" smooth="yes"/>
      <point x="190" y="82" smooth="yes"/>
      <point x="190" y="133" type="curve" smooth="yes"/>
      <point x="190" y="582" type="line" smooth="yes"/>
      <point x="190" y="597" smooth="yes"/>
      <point x="176" y="605" smooth="yes"/>
      <point x="150" y="605" type="curve" smooth="yes"/>
      <point x="124" y="605" smooth="yes"/>
      <point x="110" y="597" smooth="yes"/>
      <point x="110" y="582" type="curve" smooth="yes"/>
      <point x="110" y="143" type="line" smooth="yes"/>
      <point x="110" y="41" smooth="yes"/>
      <point x="186" y="-15" smooth="yes"/>
      <point x="326" y="-15" type="curve" smooth="yes"/>
      <point x="466" y="-15" smooth="yes"/>
      <point x="543" y="41" smooth="yes"/>
      <point x="543" y="143" type="curve" smooth="yes"/>
    </contour>
  </outline>
</glyph>
<glyph name="v" format="1">
  <advance width="610"/>
  <unicode hex="0076"/>
  <outline>
    <contour>
      <point x="305" y="-15" type="curve" smooth="yes" name="hr00"/>
      <point x="405" y="-15" smooth="yes"/>
      <point x="445" y="20" smooth="yes"/>
      <point x="462" y="122" type="curve" smooth="yes"/>
      <point x="539" y="585" type="line" smooth="yes"/>
      <point x="540" y="598" smooth="yes"/>
      <point x="527" y="605" smooth="yes"/>
      <point x="501" y="605" type="curve" smooth="yes"/>
      <point x="475" y="605" smooth="yes"/>
      <point x="462" y="597" smooth="yes"/>
      <point x="459" y="582" type="curve" smooth="yes"/>
      <point x="384" y="133" type="line" smooth="yes"/>
      <point x="374" y="72" smooth="yes"/>
      <point x="356" y="55" smooth="yes"/>
      <point x="305" y="55" type="curve" smooth="yes"/>
      <point x="254" y="55" smooth="yes"/>
      <point x="236" y="73" smooth="yes"/>
      <point x="226" y="133" type="curve" smooth="yes"/>
      <point x="151" y="582" type="line" smooth="yes"/>
      <point x="148" y="598" smooth="yes"/>
      <point x="134" y="605" smooth="yes"/>
      <point x="109" y="605" type="curve" smooth="yes"/>
      <point x="83" y="605" smooth="yes"/>
      <point x="69" y="598" smooth="yes"/>
      <point x="71" y="585" type="curve" smooth="yes"/>
      <point x="148" y="122" type="line" smooth="yes"/>
      <point x="165" y="20" smooth="yes"/>
      <point x="205" y="-15" smooth="yes"/>
    </contour>
  </outline>
</glyph>
<glyph name="w" format="1">
  <advance width="941"/>
  <unicode hex="0077"/>
  <outline>
    <contour>
      <point x="367" y="133" type="line" smooth="yes" name="hr00"/>
      <point x="358" y="75" smooth="yes"/>
      <point x="339" y="55" smooth="yes"/>
      <point x="294" y="55" type="curve" smooth="yes"/>
      <point x="250" y="55" smooth="yes"/>
      <point x="235" y="71" smooth="yes"/>
      <point x="225" y="133" type="curve" smooth="yes"/>
      <point x="150" y="582" type="line" smooth="yes"/>
      <point x="147" y="598" smooth="yes"/>
      <point x="133" y="605" smooth="yes"/>
      <point x="108" y="605" type="curve" smooth="yes"/>
      <point x="84" y="605"/>
      <point x="70" y="598"/>
      <point x="70" y="587" type="curve"/>
      <point x="147" y="122" type="line" smooth="yes"/>
      <point x="164" y="19" smooth="yes"/>
      <point x="200" y="-15" smooth="yes"/>
      <point x="294" y="-15" type="curve" smooth="yes"/>
      <point x="390" y="-15" smooth="yes"/>
      <point x="429" y="21" smooth="yes"/>
      <point x="441" y="122" type="curve" smooth="yes"/>
      <point x="465" y="329" type="line"/>
      <point x="475" y="329" type="line"/>
      <point x="500" y="122" type="line" smooth="yes"/>
      <point x="512" y="21" smooth="yes"/>
      <point x="551" y="-15" smooth="yes"/>
      <point x="647" y="-15" type="curve" smooth="yes"/>
      <point x="740" y="-15" smooth="yes"/>
      <point x="777" y="19" smooth="yes"/>
      <point x="794" y="122" type="curve" smooth="yes"/>
      <point x="871" y="587" type="line"/>
      <point x="871" y="598" smooth="yes"/>
      <point x="857" y="605" smooth="yes"/>
      <point x="833" y="605" type="curve" smooth="yes"/>
      <point x="807" y="605" smooth="yes"/>
      <point x="794" y="597" smooth="yes"/>
      <point x="791" y="582" type="curve" smooth="yes"/>
      <point x="716" y="133" type="line" smooth="yes"/>
      <point x="705" y="71" smooth="yes"/>
      <point x="691" y="55" smooth="yes"/>
      <point x="647" y="55" type="curve" smooth="yes"/>
      <point x="601" y="55" smooth="yes"/>
      <point x="583" y="74" smooth="yes"/>
      <point x="574" y="133" type="curve" smooth="yes"/>
      <point x="508" y="541" type="line" smooth="yes"/>
      <point x="505" y="556" smooth="yes"/>
      <point x="493" y="563" smooth="yes"/>
      <point x="470" y="563" type="curve" smooth="yes"/>
      <point x="447" y="563" smooth="yes"/>
      <point x="433" y="555" smooth="yes"/>
      <point x="432" y="541" type="curve" smooth="yes"/>
    </contour>
  </outline>
</glyph>
<glyph name="x" format="1">
  <advance width="610"/>
  <unicode hex="0078"/>
  <outline>
    <contour>
      <point x="86" y="15" type="line" name="hr00"/>
      <point x="84" y="2" smooth="yes"/>
      <point x="98" y="-5" smooth="yes"/>
      <point x="124" y="-5" type="curve" smooth="yes"/>
      <point x="149" y="-5" smooth="yes"/>
      <point x="162" y="2" smooth="yes"/>
      <point x="166" y="18" type="curve" smooth="yes"/>
      <point x="211" y="197" type="line" smooth="yes"/>
      <point x="225" y="253" smooth="yes"/>
      <point x="251" y="275" smooth="yes"/>
      <point x="305" y="275" type="curve" smooth="yes"/>
      <point x="358" y="275" smooth="yes"/>
      <point x="385" y="253" smooth="yes"/>
      <point x="399" y="197" type="curve" smooth="yes"/>
      <point x="444" y="18" type="line" smooth="yes"/>
      <point x="448" y="2" smooth="yes"/>
      <point x="461" y="-5" smooth="yes"/>
      <point x="486" y="-5" type="curve" smooth="yes"/>
      <point x="512" y="-5"/>
      <point x="525" y="2"/>
      <point x="524" y="15" type="curve"/>
      <point x="477" y="208" type="line" smooth="yes"/>
      <point x="463" y="263"/>
      <point x="444" y="294"/>
      <point x="406" y="310" type="curve"/>
      <point x="442" y="327" smooth="yes"/>
      <point x="462" y="357" smooth="yes"/>
      <point x="477" y="412" type="curve" smooth="yes"/>
      <point x="524" y="585" type="line"/>
      <point x="525" y="598" smooth="yes"/>
      <point x="512" y="605" smooth="yes"/>
      <point x="486" y="605" type="curve" smooth="yes"/>
      <point x="461" y="605" smooth="yes"/>
      <point x="448" y="598" smooth="yes"/>
      <point x="444" y="582" type="curve" smooth="yes"/>
      <point x="399" y="423" type="line" smooth="yes"/>
      <point x="383" y="366" smooth="yes"/>
      <point x="357" y="345" smooth="yes"/>
      <point x="305" y="345" type="curve" smooth="yes"/>
      <point x="252" y="345" smooth="yes"/>
      <point x="227" y="366" smooth="yes"/>
      <point x="211" y="423" type="curve" smooth="yes"/>
      <point x="166" y="582" type="line" smooth="yes"/>
      <point x="161" y="598" smooth="yes"/>
      <point x="148" y="605" smooth="yes"/>
      <point x="124" y="605" type="curve" smooth="yes"/>
      <point x="98" y="605"/>
      <point x="84" y="598"/>
      <point x="86" y="585" type="curve"/>
      <point x="133" y="412" type="line" smooth="yes"/>
      <point x="147" y="358"/>
      <point x="166" y="327"/>
      <point x="203" y="310" type="curve"/>
      <point x="165" y="294" smooth="yes"/>
      <point x="146" y="263" smooth="yes"/>
      <point x="133" y="208" type="curve" smooth="yes"/>
    </contour>
  </outline>
</glyph>
<glyph name="y" format="1">
  <advance width="610"/>
  <unicode hex="0079"/>
  <outline>
    <contour>
      <point x="539" y="585" type="line" name="hr00"/>
      <point x="540" y="598" smooth="yes"/>
      <point x="527" y="605" smooth="yes"/>
      <point x="501" y="605" type="curve" smooth="yes"/>
      <point x="477" y="605" smooth="yes"/>
      <point x="466" y="598" smooth="yes"/>
      <point x="463" y="582" type="curve" smooth="yes"/>
      <point x="375" y="55" type="line"/>
      <point x="305" y="55" type="line" smooth="yes"/>
      <point x="254" y="55" smooth="yes"/>
      <point x="236" y="73" smooth="yes"/>
      <point x="226" y="133" type="curve" smooth="yes"/>
      <point x="151" y="582" type="line" smooth="yes"/>
      <point x="148" y="598" smooth="yes"/>
      <point x="134" y="605" smooth="yes"/>
      <point x="109" y="605" type="curve" smooth="yes"/>
      <point x="83" y="605" smooth="yes"/>
      <point x="69" y="598" smooth="yes"/>
      <point x="71" y="585" type="curve" smooth="yes"/>
      <point x="148" y="122" type="line" smooth="yes"/>
      <point x="165" y="20" smooth="yes"/>
      <point x="205" y="-15" smooth="yes"/>
      <point x="305" y="-15" type="curve" smooth="yes"/>
      <point x="363" y="-15" type="line"/>
      <point x="349" y="-102" type="line" smooth="yes"/>
      <point x="339" y="-163" smooth="yes"/>
      <point x="315" y="-180" smooth="yes"/>
      <point x="243" y="-180" type="curve" smooth="yes"/>
      <point x="171" y="-180" type="line" smooth="yes"/>
      <point x="158" y="-180" smooth="yes"/>
      <point x="151" y="-192" smooth="yes"/>
      <point x="151" y="-215" type="curve" smooth="yes"/>
      <point x="151" y="-238" smooth="yes"/>
      <point x="158" y="-250" smooth="yes"/>
      <point x="171" y="-250" type="curve" smooth="yes"/>
      <point x="243" y="-250" type="line" smooth="yes"/>
      <point x="369" y="-250" smooth="yes"/>
      <point x="403" y="-221" smooth="yes"/>
      <point x="425" y="-92" type="curve" smooth="yes"/>
    </contour>
  </outline>
</glyph>
<glyph name="z" format="1">
  <advance width="573"/>
  <unicode hex="007A"/>
  <outline>
    <contour>
      <point x="90" y="0" type="curve" name="hr00"/>
      <point x="473" y="0" type="line" smooth="yes"/>
      <point x="486" y="0" smooth="yes"/>
      <point x="493" y="12" smooth="yes"/>
      <point x="493" y="35" type="curve" smooth="yes"/>
      <point x="493" y="58" smooth="yes"/>
      <point x="486" y="70" smooth="yes"/>
      <point x="473" y="70" type="curve" smooth="yes"/>
      <point x="150" y="70" type="line"/>
      <point x="150" y="100" smooth="yes"/>
      <point x="155" y="109" smooth="yes"/>
      <point x="194" y="149" type="curve" smooth="yes"/>
      <point x="396" y="356" type="line" smooth="yes"/>
      <point x="482" y="444" smooth="yes"/>
      <point x="492" y="460" smooth="yes"/>
      <point x="492" y="510" type="curve" smooth="yes"/>
      <point x="492" y="565" type="line" smooth="yes"/>
      <point x="492" y="588" smooth="yes"/>
      <point x="485" y="600" smooth="yes"/>
      <point x="472" y="600" type="curve" smooth="yes"/>
      <point x="119" y="600" type="line" smooth="yes"/>
      <point x="106" y="600" smooth="yes"/>
      <point x="99" y="588" smooth="yes"/>
      <point x="99" y="565" type="curve" smooth="yes"/>
      <point x="99" y="542" smooth="yes"/>
      <point x="106" y="530" smooth="yes"/>
      <point x="119" y="530" type="curve" smooth="yes"/>
      <point x="412" y="530" type="line"/>
      <point x="412" y="508" type="line" smooth="yes"/>
      <point x="412" y="478" smooth="yes"/>
      <point x="409" y="473" smooth="yes"/>
      <point x="368" y="431" type="curve" smooth="yes"/>
      <point x="166" y="224" type="line" smooth="yes"/>
      <point x="77" y="132" smooth="yes"/>
      <point x="70" y="121" smooth="yes"/>
      <point x="70" y="70" type="curve" smooth="yes"/>
      <point x="70" y="35" type="line" smooth="yes"/>
      <point x="70" y="12" smooth="yes"/>
      <point x="77" y="0" smooth="yes"/>
    </contour>
  </outline>
</glyph>
<glyph name="braceleft" format="1">
  <advance width="360"/>
  <unicode hex="007B"/>
  <outline>
    <contour>
      <point x="214" y="504" type="line" smooth="yes" name="hr00"/>
      <point x="214" y="437"/>
      <point x="192" y="396"/>
      <point x="146" y="381" type="curve"/>
      <point x="192" y="363" smooth="yes"/>
      <point x="214" y="324" smooth="yes"/>
      <point x="214" y="258" type="curve" smooth="yes"/>
      <point x="214" y="58" type="line" smooth="yes"/>
      <point x="214" y="-6" smooth="yes"/>
      <point x="240" y="-30" smooth="yes"/>
      <point x="310" y="-30" type="curve" smooth="yes"/>
      <point x="323" y="-30" smooth="yes"/>
      <point x="330" y="-42" smooth="yes"/>
      <point x="330" y="-65" type="curve" smooth="yes"/>
      <point x="330" y="-88" smooth="yes"/>
      <point x="323" y="-100" smooth="yes"/>
      <point x="310" y="-100" type="curve" smooth="yes"/>
      <point x="187" y="-100" smooth="yes"/>
      <point x="134" y="-53" smooth="yes"/>
      <point x="134" y="58" type="curve" smooth="yes"/>
      <point x="134" y="258" type="line" smooth="yes"/>
      <point x="134" y="317" smooth="yes"/>
      <point x="124" y="336" smooth="yes"/>
      <point x="86" y="346" type="curve" smooth="yes"/>
      <point x="71" y="350" type="line" smooth="yes"/>
      <point x="57" y="353" smooth="yes"/>
      <point x="51" y="363" smooth="yes"/>
      <point x="51" y="381" type="curve" smooth="yes"/>
      <point x="51" y="398" smooth="yes"/>
      <point x="57" y="408" smooth="yes"/>
      <point x="71" y="412" type="curve" smooth="yes"/>
      <point x="86" y="416" type="line" smooth="yes"/>
      <point x="123" y="425" smooth="yes"/>
      <point x="134" y="445" smooth="yes"/>
      <point x="134" y="504" type="curve" smooth="yes"/>
      <point x="134" y="682" type="line" smooth="yes"/>
      <point x="134" y="793" smooth="yes"/>
      <point x="187" y="840" smooth="yes"/>
      <point x="310" y="840" type="curve" smooth="yes"/>
      <point x="323" y="840" smooth="yes"/>
      <point x="330" y="828" smooth="yes"/>
      <point x="330" y="805" type="curve" smooth="yes"/>
      <point x="330" y="782" smooth="yes"/>
      <point x="323" y="770" smooth="yes"/>
      <point x="310" y="770" type="curve" smooth="yes"/>
      <point x="240" y="770" smooth="yes"/>
      <point x="214" y="746" smooth="yes"/>
      <point x="214" y="682" type="curve" smooth="yes"/>
    </contour>
  </outline>
</glyph>
<glyph name="braceright" format="1">
  <advance width="360"/>
  <unicode hex="007D"/>
  <outline>
    <contour>
      <point x="146" y="504" type="line" smooth="yes" name="hr00"/>
      <point x="146" y="437"/>
      <point x="167" y="398"/>
      <point x="217" y="381" type="curve"/>
      <point x="167" y="364" smooth="yes"/>
      <point x="146" y="325" smooth="yes"/>
      <point x="146" y="258" type="curve" smooth="yes"/>
      <point x="146" y="58" type="line" smooth="yes"/>
      <point x="146" y="-6" smooth="yes"/>
      <point x="120" y="-30" smooth="yes"/>
      <point x="50" y="-30" type="curve" smooth="yes"/>
      <point x="37" y="-30" smooth="yes"/>
      <point x="30" y="-42" smooth="yes"/>
      <point x="30" y="-65" type="curve" smooth="yes"/>
      <point x="30" y="-88" smooth="yes"/>
      <point x="37" y="-100" smooth="yes"/>
      <point x="50" y="-100" type="curve" smooth="yes"/>
      <point x="173" y="-100" smooth="yes"/>
      <point x="226" y="-53" smooth="yes"/>
      <point x="226" y="58" type="curve" smooth="yes"/>
      <point x="226" y="258" type="line" smooth="yes"/>
      <point x="226" y="317" smooth="yes"/>
      <point x="236" y="336" smooth="yes"/>
      <point x="274" y="346" type="curve" smooth="yes"/>
      <point x="289" y="350" type="line" smooth="yes"/>
      <point x="303" y="353" smooth="yes"/>
      <point x="309" y="363" smooth="yes"/>
      <point x="309" y="381" type="curve" smooth="yes"/>
      <point x="309" y="398" smooth="yes"/>
      <point x="303" y="408" smooth="yes"/>
      <point x="289" y="412" type="curve" smooth="yes"/>
      <point x="274" y="416" type="line" smooth="yes"/>
      <point x="237" y="425" smooth="yes"/>
      <point x="226" y="445" smooth="yes"/>
      <point x="226" y="504" type="curve" smooth="yes"/>
      <point x="226" y="682" type="line" smooth="yes"/>
      <point x="226" y="793" smooth="yes"/>
      <point x="173" y="840" smooth="yes"/>
      <point x="50" y="840" type="curve" smooth="yes"/>
      <point x="37" y="840" smooth="yes"/>
      <point x="30" y="828" smooth="yes"/>
      <point x="30" y="805" type="curve" smooth="yes"/>
      <point x="30" y="782" smooth="yes"/>
      <point x="37" y="770" smooth="yes"/>
      <point x="50" y="770" type="curve" smooth="yes"/>
      <point x="120" y="770" smooth="yes"/>
      <point x="146" y="746" smooth="yes"/>
      <point x="146" y="682" type="curve" smooth="yes"/>
    </contour>
  </outline>
</glyph>
<glyph name="asciitilde" format="1">
  <advance width="600"/>
  <unicode hex="007E"/>
  <outline>
    <contour>
      <point x="525" y="418" type="curve" smooth="yes"/>
      <point x="525" y="430" smooth="yes"/>
      <point x="510" y="434" smooth="yes"/>
      <point x="490" y="434" type="curve" smooth="yes"/>
      <point x="471" y="434" smooth="yes"/>
      <point x="455" y="429" smooth="yes"/>
      <point x="455" y="414" type="curve" smooth="yes"/>
      <point x="455" y="387" smooth="yes"/>
      <point x="437" y="379" smooth="yes"/>
      <point x="419" y="379" type="curve" smooth="yes"/>
      <point x="369" y="379" smooth="yes"/>
      <point x="240" y="433" smooth="yes"/>
      <point x="180" y="433" type="curve" smooth="yes" name="hr01"/>
      <point x="133" y="433" smooth="yes"/>
      <point x="75" y="400" smooth="yes"/>
      <point x="75" y="324" type="curve" smooth="yes"/>
      <point x="75" y="312" smooth="yes"/>
      <point x="90" y="308" smooth="yes"/>
      <point x="110" y="308" type="curve" smooth="yes"/>
      <point x="129" y="308" smooth="yes"/>
      <point x="145" y="313" smooth="yes"/>
      <point x="145" y="328" type="curve" smooth="yes"/>
      <point x="145" y="355" smooth="yes"/>
      <point x="163" y="363" smooth="yes"/>
      <point x="181" y="363" type="curve" smooth="yes"/>
      <point x="231" y="363" smooth="yes"/>
      <point x="360" y="309" smooth="yes"/>
      <point x="420" y="309" type="curve" smooth="yes" name="hr02"/>
      <point x="467" y="309" smooth="yes"/>
      <point x="525" y="342" smooth="yes"/>
    </contour>
  </outline>
</glyph>
<glyph name="exclamdown" format="1">
  <advance width="301"/>
  <unicode hex="00A1"/>
  <outline>
    <contour>
      <point x="183" y="331" type="line" name="hr00"/>
      <point x="183" y="345" smooth="yes"/>
      <point x="170" y="353" smooth="yes"/>
      <point x="150" y="353" type="curve" smooth="yes"/>
      <point x="131" y="353"/>
      <point x="117" y="345"/>
      <point x="117" y="331" type="curve"/>
      <point x="109" y="74" smooth="yes"/>
      <point x="100" y="-187" smooth="yes"/>
      <point x="100" y="-187" type="curve" smooth="yes"/>
      <point x="100" y="-207" smooth="yes"/>
      <point x="124" y="-215" smooth="yes"/>
      <point x="150" y="-215" type="curve" smooth="yes"/>
      <point x="178" y="-215" smooth="yes"/>
      <point x="200" y="-207" smooth="yes"/>
      <point x="200" y="-186" type="curve" smooth="yes"/>
    </contour>
    <contour>
      <point x="193" y="591" type="line"/>
      <point x="193" y="609" smooth="yes"/>
      <point x="175" y="615" smooth="yes"/>
      <point x="151" y="615" type="curve" smooth="yes"/>
      <point x="126" y="615" smooth="yes"/>
      <point x="108" y="609" smooth="yes"/>
      <point x="108" y="591" type="curve" smooth="yes"/>
      <point x="108" y="506" type="line" smooth="yes"/>
      <point x="108" y="488" smooth="yes"/>
      <point x="126" y="482" smooth="yes"/>
      <point x="150" y="482" type="curve" smooth="yes"/>
      <point x="175" y="482"/>
      <point x="193" y="488"/>
      <point x="193" y="506" type="curve"/>
    </contour>
  </outline>
</glyph>
<glyph name="cent" format="1">
  <advance width="600"/>
  <unicode hex="00A2"/>
  <outline>
    <contour>
      <point x="334" y="-105" type="curve" name="hr00"/>
      <point x="358" y="-105" smooth="yes"/>
      <point x="370" y="-97" smooth="yes"/>
      <point x="370" y="-82" type="curve" smooth="yes"/>
      <point x="370" y="96" type="line"/>
      <point x="486" y="96" type="line" smooth="yes"/>
      <point x="499" y="96" smooth="yes"/>
      <point x="506" y="108" smooth="yes"/>
      <point x="506" y="131" type="curve" smooth="yes"/>
      <point x="506" y="154" smooth="yes"/>
      <point x="499" y="166" smooth="yes"/>
      <point x="486" y="166" type="curve" smooth="yes"/>
      <point x="370" y="166" type="line"/>
      <point x="370" y="576" type="line"/>
      <point x="486" y="576" type="line" smooth="yes"/>
      <point x="499" y="576" smooth="yes"/>
      <point x="506" y="588" smooth="yes"/>
      <point x="506" y="611" type="curve" smooth="yes"/>
      <point x="506" y="634" smooth="yes"/>
      <point x="499" y="646" smooth="yes"/>
      <point x="486" y="646" type="curve" smooth="yes"/>
      <point x="370" y="646" type="line"/>
      <point x="370" y="822" type="line" smooth="yes"/>
      <point x="370" y="837" smooth="yes"/>
      <point x="358" y="845" smooth="yes"/>
      <point x="334" y="845" type="curve" smooth="yes"/>
      <point x="311" y="845" smooth="yes"/>
      <point x="298" y="837" smooth="yes"/>
      <point x="298" y="822" type="curve" smooth="yes"/>
      <point x="298" y="645" type="line"/>
      <point x="176" y="640" smooth="yes"/>
      <point x="110" y="585" smooth="yes"/>
      <point x="110" y="488" type="curve" smooth="yes"/>
      <point x="110" y="254" type="line" smooth="yes"/>
      <point x="110" y="157"/>
      <point x="176" y="101"/>
      <point x="298" y="96" type="curve"/>
      <point x="298" y="-82" type="line" smooth="yes"/>
      <point x="298" y="-97" smooth="yes"/>
      <point x="311" y="-105" smooth="yes"/>
    </contour>
    <contour>
      <point x="190" y="498" type="line"/>
      <point x="190" y="544"/>
      <point x="227" y="571"/>
      <point x="298" y="575" type="curve"/>
      <point x="298" y="166" type="line"/>
      <point x="227" y="170" smooth="yes"/>
      <point x="190" y="197" smooth="yes"/>
      <point x="190" y="244" type="curve" smooth="yes"/>
    </contour>
  </outline>
</glyph>
<glyph name="sterling" format="1">
  <advance width="600"/>
  <unicode hex="00A3"/>
  <outline>
    <contour>
      <point x="39" y="410" type="line" smooth="yes" name="hr00"/>
      <point x="26" y="410" smooth="yes"/>
      <point x="21" y="397" smooth="yes"/>
      <point x="21" y="379" type="curve" smooth="yes"/>
      <point x="21" y="362" smooth="yes"/>
      <point x="26" y="347" smooth="yes"/>
      <point x="39" y="347" type="curve" smooth="yes"/>
      <point x="123" y="347" type="line"/>
      <point x="110" y="157" type="line" smooth="yes"/>
      <point x="104" y="73" smooth="yes"/>
      <point x="60" y="51" smooth="yes"/>
      <point x="60" y="39" type="curve" smooth="yes"/>
      <point x="60" y="19" smooth="yes"/>
      <point x="94" y="0" smooth="yes"/>
      <point x="111" y="0" type="curve" smooth="yes"/>
      <point x="523" y="0" type="line" smooth="yes"/>
      <point x="538" y="0" smooth="yes"/>
      <point x="543" y="15" smooth="yes"/>
      <point x="543" y="35" type="curve" smooth="yes"/>
      <point x="543" y="54" smooth="yes"/>
      <point x="538" y="70" smooth="yes"/>
      <point x="523" y="70" type="curve" smooth="yes"/>
      <point x="173" y="70" type="line"/>
      <point x="182" y="91" smooth="yes"/>
      <point x="188" y="117" smooth="yes"/>
      <point x="190" y="147" type="curve" smooth="yes"/>
      <point x="204" y="347" type="line"/>
      <point x="372" y="347" type="line" smooth="yes"/>
      <point x="385" y="347" smooth="yes"/>
      <point x="390" y="361" smooth="yes"/>
      <point x="390" y="379" type="curve" smooth="yes"/>
      <point x="390" y="396" smooth="yes"/>
      <point x="385" y="410" smooth="yes"/>
      <point x="372" y="410" type="curve" smooth="yes"/>
      <point x="208" y="410" type="line"/>
      <point x="220" y="574" type="line" smooth="yes"/>
      <point x="225" y="640" smooth="yes"/>
      <point x="240" y="670" smooth="yes"/>
      <point x="298" y="670" type="curve" smooth="yes"/>
      <point x="490" y="670" type="line" smooth="yes"/>
      <point x="505" y="670" smooth="yes"/>
      <point x="510" y="686" smooth="yes"/>
      <point x="510" y="705" type="curve" smooth="yes"/>
      <point x="510" y="725" smooth="yes"/>
      <point x="505" y="740" smooth="yes"/>
      <point x="490" y="740" type="curve" smooth="yes"/>
      <point x="298" y="740" type="line" smooth="yes"/>
      <point x="181" y="740" smooth="yes"/>
      <point x="148" y="684" smooth="yes"/>
      <point x="140" y="574" type="curve" smooth="yes"/>
      <point x="128" y="410" type="line"/>
    </contour>
  </outline>
</glyph>
<glyph name="currency" format="1">
  <advance width="600"/>
  <unicode hex="00A4"/>
  <outline>
    <contour>
      <point x="299" y="605" type="curve" smooth="yes" name="hr00"/>
      <point x="262" y="605"/>
      <point x="231" y="600"/>
      <point x="204" y="592" type="curve"/>
      <point x="134" y="712" type="line" smooth="yes"/>
      <point x="123" y="730" smooth="yes"/>
      <point x="114" y="735" smooth="yes"/>
      <point x="92" y="735" type="curve" smooth="yes"/>
      <point x="72" y="735" smooth="yes"/>
      <point x="60" y="729" smooth="yes"/>
      <point x="60" y="718" type="curve" smooth="yes"/>
      <point x="60" y="712" smooth="yes"/>
      <point x="62" y="705" smooth="yes"/>
      <point x="68" y="696" type="curve" smooth="yes"/>
      <point x="145" y="564" type="line"/>
      <point x="111" y="537" smooth="yes"/>
      <point x="94" y="497" smooth="yes"/>
      <point x="94" y="447" type="curve" smooth="yes"/>
      <point x="94" y="343" type="line" smooth="yes"/>
      <point x="94" y="292"/>
      <point x="111" y="253"/>
      <point x="146" y="226" type="curve"/>
      <point x="68" y="94" type="line" smooth="yes"/>
      <point x="62" y="85" smooth="yes"/>
      <point x="60" y="78" smooth="yes"/>
      <point x="60" y="72" type="curve" smooth="yes"/>
      <point x="60" y="61" smooth="yes"/>
      <point x="72" y="55" smooth="yes"/>
      <point x="92" y="55" type="curve" smooth="yes"/>
      <point x="114" y="55" smooth="yes"/>
      <point x="123" y="60" smooth="yes"/>
      <point x="134" y="78" type="curve" smooth="yes"/>
      <point x="204" y="197" type="line"/>
      <point x="231" y="189" smooth="yes"/>
      <point x="263" y="185" smooth="yes"/>
      <point x="300" y="185" type="curve" smooth="yes"/>
      <point x="336" y="185"/>
      <point x="369" y="189"/>
      <point x="396" y="197" type="curve"/>
      <point x="466" y="78" type="line" smooth="yes"/>
      <point x="477" y="60" smooth="yes"/>
      <point x="486" y="55" smooth="yes"/>
      <point x="508" y="55" type="curve" smooth="yes"/>
      <point x="528" y="55" smooth="yes"/>
      <point x="540" y="61" smooth="yes"/>
      <point x="540" y="72" type="curve" smooth="yes"/>
      <point x="540" y="78" smooth="yes"/>
      <point x="538" y="85" smooth="yes"/>
      <point x="532" y="94" type="curve" smooth="yes"/>
      <point x="454" y="226" type="line"/>
      <point x="488" y="253" smooth="yes"/>
      <point x="506" y="292" smooth="yes"/>
      <point x="506" y="343" type="curve" smooth="yes"/>
      <point x="506" y="447" type="line" smooth="yes"/>
      <point x="506" y="497"/>
      <point x="488" y="537"/>
      <point x="454" y="563" type="curve"/>
      <point x="532" y="696" type="line" smooth="yes"/>
      <point x="538" y="705" smooth="yes"/>
      <point x="540" y="712" smooth="yes"/>
      <point x="540" y="718" type="curve" smooth="yes"/>
      <point x="540" y="729" smooth="yes"/>
      <point x="528" y="735" smooth="yes"/>
      <point x="508" y="735" type="curve" smooth="yes"/>
      <point x="486" y="735" smooth="yes"/>
      <point x="477" y="730" smooth="yes"/>
      <point x="466" y="712" type="curve" smooth="yes"/>
      <point x="396" y="592" type="line"/>
      <point x="368" y="601" smooth="yes"/>
      <point x="336" y="605" smooth="yes"/>
    </contour>
    <contour>
      <point x="300" y="255" type="curve" smooth="yes"/>
      <point x="218" y="255" smooth="yes"/>
      <point x="174" y="282" smooth="yes"/>
      <point x="174" y="333" type="curve" smooth="yes"/>
      <point x="174" y="457" type="line" smooth="yes"/>
      <point x="174" y="508" smooth="yes"/>
      <point x="217" y="535" smooth="yes"/>
      <point x="299" y="535" type="curve" smooth="yes"/>
      <point x="383" y="535" smooth="yes"/>
      <point x="426" y="508" smooth="yes"/>
      <point x="426" y="457" type="curve" smooth="yes"/>
      <point x="426" y="333" type="line" smooth="yes"/>
      <point x="426" y="282" smooth="yes"/>
      <point x="382" y="255" smooth="yes"/>
    </contour>
  </outline>
</glyph>
<glyph name="yen" format="1">
  <advance width="600"/>
  <unicode hex="00A5"/>
  <outline>
    <contour>
      <point x="53" y="490" type="line" smooth="yes" name="hr00"/>
      <point x="40" y="490" smooth="yes"/>
      <point x="35" y="477" smooth="yes"/>
      <point x="35" y="459" type="curve" smooth="yes"/>
      <point x="35" y="442" smooth="yes"/>
      <point x="40" y="427" smooth="yes"/>
      <point x="53" y="427" type="curve" smooth="yes"/>
      <point x="148" y="427" type="line"/>
      <point x="153" y="412" type="line" smooth="yes"/>
      <point x="162" y="382"/>
      <point x="172" y="353"/>
      <point x="188" y="330" type="curve"/>
      <point x="53" y="330" type="line" smooth="yes"/>
      <point x="40" y="330" smooth="yes"/>
      <point x="35" y="317" smooth="yes"/>
      <point x="35" y="299" type="curve" smooth="yes"/>
      <point x="35" y="282" smooth="yes"/>
      <point x="40" y="267" smooth="yes"/>
      <point x="53" y="267" type="curve" smooth="yes"/>
      <point x="260" y="267" type="line"/>
      <point x="260" y="18" type="line" smooth="yes"/>
      <point x="260" y="1" smooth="yes"/>
      <point x="278" y="-5" smooth="yes"/>
      <point x="300" y="-5" type="curve" smooth="yes"/>
      <point x="323" y="-5" smooth="yes"/>
      <point x="340" y="1" smooth="yes"/>
      <point x="340" y="18" type="curve" smooth="yes"/>
      <point x="340" y="267" type="line"/>
      <point x="547" y="267" type="line" smooth="yes"/>
      <point x="560" y="267" smooth="yes"/>
      <point x="565" y="281" smooth="yes"/>
      <point x="565" y="299" type="curve" smooth="yes"/>
      <point x="565" y="316" smooth="yes"/>
      <point x="560" y="330" smooth="yes"/>
      <point x="547" y="330" type="curve" smooth="yes"/>
      <point x="411" y="330" type="line"/>
      <point x="428" y="353" smooth="yes"/>
      <point x="438" y="382" smooth="yes"/>
      <point x="447" y="412" type="curve" smooth="yes"/>
      <point x="451" y="427" type="line"/>
      <point x="547" y="427" type="line" smooth="yes"/>
      <point x="560" y="427" smooth="yes"/>
      <point x="565" y="441" smooth="yes"/>
      <point x="565" y="459" type="curve" smooth="yes"/>
      <point x="565" y="476" smooth="yes"/>
      <point x="560" y="490" smooth="yes"/>
      <point x="547" y="490" type="curve" smooth="yes"/>
      <point x="470" y="490" type="line"/>
      <point x="539" y="725" type="line"/>
      <point x="541" y="740" smooth="yes"/>
      <point x="522" y="745" smooth="yes"/>
      <point x="501" y="745" type="curve" smooth="yes"/>
      <point x="478" y="745" smooth="yes"/>
      <point x="464" y="739" smooth="yes"/>
      <point x="459" y="722" type="curve" smooth="yes"/>
      <point x="363" y="395" type="line" smooth="yes"/>
      <point x="349" y="348" smooth="yes"/>
      <point x="334" y="332" smooth="yes"/>
      <point x="307" y="330" type="curve" smooth="yes"/>
      <point x="300" y="330" type="line" smooth="yes"/>
      <point x="268" y="330" smooth="yes"/>
      <point x="252" y="344" smooth="yes"/>
      <point x="237" y="395" type="curve" smooth="yes"/>
      <point x="141" y="722" type="line"/>
      <point x="137" y="739" smooth="yes"/>
      <point x="122" y="745" smooth="yes"/>
      <point x="99" y="745" type="curve" smooth="yes"/>
      <point x="78" y="745"/>
      <point x="59" y="740"/>
      <point x="61" y="725" type="curve"/>
      <point x="130" y="490" type="line"/>
    </contour>
  </outline>
</glyph>
<glyph name="brokenbar" format="1">
  <advance width="320"/>
  <unicode hex="00A6"/>
  <outline>
    <contour>
      <point x="196" y="822" type="line" smooth="yes" name="hr00"/>
      <point x="196" y="839" smooth="yes"/>
      <point x="181" y="845" smooth="yes"/>
      <point x="160" y="845" type="curve" smooth="yes"/>
      <point x="140" y="845" smooth="yes"/>
      <point x="124" y="839" smooth="yes"/>
      <point x="124" y="822" type="curve" smooth="yes"/>
      <point x="124" y="518" type="line" smooth="yes"/>
      <point x="124" y="501" smooth="yes"/>
      <point x="140" y="495" smooth="yes"/>
      <point x="160" y="495" type="curve" smooth="yes"/>
      <point x="181" y="495" smooth="yes"/>
      <point x="196" y="501" smooth="yes"/>
      <point x="196" y="518" type="curve" smooth="yes"/>
    </contour>
    <contour>
      <point x="196" y="222" type="line" smooth="yes"/>
      <point x="196" y="239" smooth="yes"/>
      <point x="181" y="245" smooth="yes"/>
      <point x="160" y="245" type="curve" smooth="yes"/>
      <point x="140" y="245" smooth="yes"/>
      <point x="124" y="239" smooth="yes"/>
      <point x="124" y="222" type="curve" smooth="yes"/>
      <point x="124" y="-82" type="line" smooth="yes"/>
      <point x="124" y="-99" smooth="yes"/>
      <point x="140" y="-105" smooth="yes"/>
      <point x="160" y="-105" type="curve" smooth="yes"/>
      <point x="181" y="-105" smooth="yes"/>
      <point x="196" y="-99" smooth="yes"/>
      <point x="196" y="-82" type="curve" smooth="yes"/>
    </contour>
  </outline>
</glyph>
